<svg width="73" height="73" viewBox="0 0 73 73" fill="none" xmlns="http://www.w3.org/2000/svg">
<path d="M70.0636 47.3171H66.8364V16.8415C66.8364 15.027 66.0883 13.2868 64.7568 12.0038C63.4253 10.7208 61.6194 10 59.7364 10H13.2636C11.3806 10 9.57469 10.7208 8.24318 12.0038C6.91167 13.2868 6.16364 15.027 6.16364 16.8415V47.3171H2.93636C2.42281 47.3171 1.93029 47.5137 1.56715 47.8636C1.20401 48.2135 1 48.6881 1 49.1829V54.1585C1 55.973 1.74803 57.7132 3.07954 58.9962C4.41105 60.2792 6.21696 61 8.1 61H64.9C66.783 61 68.589 60.2792 69.9205 58.9962C71.252 57.7132 72 55.973 72 54.1585V49.1829C72 48.6881 71.796 48.2135 71.4329 47.8636C71.0697 47.5137 70.5772 47.3171 70.0636 47.3171ZM10.0364 16.8415C10.0364 16.0167 10.3764 15.2257 10.9816 14.6425C11.5868 14.0593 12.4077 13.7317 13.2636 13.7317H59.7364C60.5923 13.7317 61.4132 14.0593 62.0184 14.6425C62.6236 15.2257 62.9636 16.0167 62.9636 16.8415V47.3171H10.0364V16.8415ZM68.1273 54.1585C68.1273 54.9833 67.7873 55.7743 67.182 56.3575C66.5768 56.9407 65.7559 57.2683 64.9 57.2683H8.1C7.24407 57.2683 6.4232 56.9407 5.81797 56.3575C5.21274 55.7743 4.87273 54.9833 4.87273 54.1585V51.0488H68.1273V54.1585ZM43.6 21.8171C43.6 22.3119 43.396 22.7865 43.0329 23.1364C42.6697 23.4863 42.1772 23.6829 41.6636 23.6829H31.3364C30.8228 23.6829 30.3303 23.4863 29.9671 23.1364C29.604 22.7865 29.4 22.3119 29.4 21.8171C29.4 21.3222 29.604 20.8476 29.9671 20.4977C30.3303 20.1478 30.8228 19.9512 31.3364 19.9512H41.6636C42.1772 19.9512 42.6697 20.1478 43.0329 20.4977C43.396 20.8476 43.6 21.3222 43.6 21.8171Z" fill="url(#paint0_linear_632_5329)"/>
<defs>
<linearGradient id="paint0_linear_632_5329" x1="1" y1="35.5" x2="72" y2="35.5" gradientUnits="userSpaceOnUse">
<stop stop-color="#E348FF"/>
<stop offset="0.3" stop-color="#B514F7"/>
<stop offset="0.7" stop-color="#625BFB"/>
<stop offset="1" stop-color="#00CCFF"/>
</linearGradient>
</defs>
</svg>
