<svg width="69" height="68" viewBox="0 0 69 68" fill="none" xmlns="http://www.w3.org/2000/svg">
<path fill-rule="evenodd" clip-rule="evenodd" d="M55.4482 5.65488C62.518 5.65488 68.0168 11.1536 68.0168 18.2235V54.8818C68.0168 61.9516 62.518 67.4504 55.4482 67.4504H13.553C6.48313 67.4504 0.984375 61.9516 0.984375 54.8818V18.2235C0.984375 11.1536 6.48313 5.65488 13.553 5.65488H19.3136V2.51273C19.3136 1.2035 19.8372 0.417969 21.1465 0.417969C22.4557 0.417969 23.2412 1.2035 23.2412 2.51273V5.65488H45.4981V2.51273C45.4981 1.2035 46.2836 0.417969 47.5929 0.417969C48.9021 0.417969 49.6876 1.2035 49.6876 2.51273V5.65488H55.4482ZM55.4482 63.2609C60.1614 63.2609 63.8273 59.8569 63.8273 54.8818H64.0891V25.5551H5.1739V54.8818C5.1739 59.595 8.57789 63.2609 13.553 63.2609H55.4482ZM5.1739 21.6274H63.8273V18.2235C63.8273 13.5102 60.4233 9.8444 55.4482 9.8444H49.9495V12.9865C49.9495 14.2958 49.1639 15.0813 47.8547 15.0813C46.5455 15.0813 45.7599 14.2958 45.7599 12.9865V9.8444H23.5031V12.9865C23.5031 14.2958 22.7175 15.0813 21.4083 15.0813C20.0991 15.0813 19.3136 14.2958 19.3136 12.9865V9.8444H13.553C8.83974 9.8444 5.1739 13.2484 5.1739 18.2235V21.6274ZM55.4475 42.3125C56.7567 42.3125 57.5422 43.098 57.5422 44.4073V54.8811C57.5422 56.1903 56.7567 56.9758 55.4475 56.9758H44.9737C43.6644 56.9758 42.8789 56.1903 42.8789 54.8811V44.4073C42.8789 43.098 43.6644 42.3125 44.9737 42.3125H55.4475ZM46.8066 53.0482H53.3527V46.502H46.8066V53.0482Z" fill="url(#paint0_linear_650_4047)"/>
<defs>
<linearGradient id="paint0_linear_650_4047" x1="0.984375" y1="33.9342" x2="68.0168" y2="33.9342" gradientUnits="userSpaceOnUse">
<stop stop-color="#E348FF"/>
<stop offset="0.3" stop-color="#B514F7"/>
<stop offset="0.7" stop-color="#625BFB"/>
<stop offset="1" stop-color="#00CCFF"/>
</linearGradient>
</defs>
</svg>
