<svg width="73" height="72" viewBox="0 0 73 72" fill="none" xmlns="http://www.w3.org/2000/svg">
<path fill-rule="evenodd" clip-rule="evenodd" d="M18.41 14.3709C13.703 16.5245 10.2558 21.65 10.2558 27.7614C10.2558 34.0035 12.8093 38.8164 16.4636 42.9418C19.4796 46.3399 23.1282 49.1584 26.6861 51.9029C27.5316 52.5564 28.3714 53.207 29.197 53.8577C30.6894 55.0368 32.02 56.0681 33.3053 56.821C34.5877 57.5711 35.6205 57.9149 36.5 57.9149C37.3795 57.9149 38.4123 57.5739 39.6947 56.821C40.98 56.0681 42.3106 55.0368 43.803 53.8577C44.6258 53.2042 45.4684 52.5564 46.3139 51.9029C49.8718 49.1584 53.5204 46.3399 56.5364 42.9418C60.1935 38.8164 62.7442 34.0035 62.7442 27.7614C62.7442 21.6529 59.297 16.5245 54.59 14.3709C50.0165 12.277 43.8711 12.831 38.0321 18.9083C37.8336 19.1145 37.5956 19.2785 37.3324 19.3906C37.0691 19.5026 36.786 19.5604 36.5 19.5604C36.214 19.5604 35.9309 19.5026 35.6676 19.3906C35.4044 19.2785 35.1664 19.1145 34.9679 18.9083C29.1289 12.831 22.9835 12.277 18.41 14.3709ZM36.5 14.4732C29.9404 8.59194 22.5948 7.768 16.6395 10.4927C10.358 13.3765 6 20.059 6 27.7642C6 35.336 9.1493 41.115 13.2831 45.7745C16.5913 49.505 20.64 52.6274 24.2177 55.3834C25.0292 56.0084 25.8151 56.6165 26.5613 57.2074C28.0167 58.3553 29.5772 59.577 31.1575 60.5032C32.7379 61.4266 34.5423 62.1795 36.5 62.1795C38.4577 62.1795 40.2621 61.4266 41.8425 60.5032C43.4256 59.577 44.9833 58.3553 46.4387 57.2074C47.2159 56.5942 47.9971 55.9862 48.7823 55.3834C52.3572 52.6274 56.4087 49.5021 59.7169 45.7745C63.8507 41.115 67 35.336 67 27.7642C67 20.059 62.6449 13.3765 56.3605 10.4984C50.4052 7.77084 43.0596 8.59478 36.5 14.4732Z" fill="url(#paint0_linear_632_5269)"/>
<defs>
<linearGradient id="paint0_linear_632_5269" x1="6" y1="35.5897" x2="67" y2="35.5897" gradientUnits="userSpaceOnUse">
<stop stop-color="#E348FF"/>
<stop offset="0.3" stop-color="#B514F7"/>
<stop offset="0.7" stop-color="#625BFB"/>
<stop offset="1" stop-color="#00CCFF"/>
</linearGradient>
</defs>
</svg>
