<svg width="73" height="73" viewBox="0 0 73 73" fill="none" xmlns="http://www.w3.org/2000/svg">
<path d="M63 28.1622V8.59459H59.8953V6.2471C59.8953 3.89961 58.0141 2 55.6894 2H15.2059C12.8965 2.01544 11 3.91506 11 6.2471V13.4131C11 15.7606 12.8812 17.6602 15.2059 17.6602H20.8953C21.3541 19.3282 22.8835 20.5174 24.6118 20.5174C26.34 20.5174 27.8694 19.3282 28.3282 17.6602H55.6588C57.9682 17.6602 59.8647 15.7606 59.8647 13.4131V11.0656H60.5224V26.0772L35.5624 30.556V35.9459H31.2647V64.4247C31.2647 67.4981 33.7424 70 36.7859 70C39.8294 70 42.3071 67.4981 42.3071 64.4247V35.9768H38.0094V32.6564L63 28.1622ZM39.8753 41.2741V64.4402C39.8753 65.2741 39.5541 66.0463 38.9729 66.6332C38.3918 67.2201 37.6271 67.5444 36.8012 67.5444C35.1035 67.5444 33.7271 66.1544 33.7271 64.4402V41.2741H39.8753ZM39.8753 38.4479V38.8031H33.7271V38.4479H39.8753ZM20.0541 13.2741C19.6565 13.2741 19.3353 12.9498 19.3353 12.5483V11.0811C19.3353 9.52123 18.0659 8.23938 16.5212 8.23938C14.9765 8.23938 13.7071 9.52123 13.7071 11.0811V11.4363C13.7071 11.5135 13.6459 11.5598 13.5847 11.5598C13.5082 11.5598 13.4624 11.4981 13.4624 11.4363V6.2471C13.4624 5.27413 14.2576 4.47104 15.2212 4.47104H26.0647V16.61C26.0647 17.3977 25.4224 18.0463 24.6424 18.0463C23.8624 18.0463 23.22 17.3977 23.22 16.61V16.471C23.2047 14.7104 21.7976 13.2741 20.0541 13.2741ZM16.1541 11.4363V11.0811C16.1541 10.8803 16.3224 10.7104 16.5212 10.7104C16.72 10.7104 16.8882 10.8803 16.8882 11.0811V12.5483C16.8882 13.6448 17.4388 14.6023 18.2647 15.1892H15.2059C14.4565 15.1892 13.8141 14.7104 13.5694 14.0309H13.5847C15.0071 14.0463 16.1541 12.8726 16.1541 11.4363ZM57.4788 6.139V13.7992C57.4788 14.6486 56.7906 15.3436 55.9494 15.3436H28.5118V4.59459H55.9494C56.7906 4.59459 57.4788 5.28958 57.4788 6.139Z" fill="url(#paint0_linear_632_5335)"/>
<defs>
<linearGradient id="paint0_linear_632_5335" x1="11" y1="36" x2="63" y2="36" gradientUnits="userSpaceOnUse">
<stop stop-color="#E348FF"/>
<stop offset="0.3" stop-color="#B514F7"/>
<stop offset="0.7" stop-color="#625BFB"/>
<stop offset="1" stop-color="#00CCFF"/>
</linearGradient>
</defs>
</svg>
