<svg width="69" height="69" viewBox="0 0 69 69" fill="none" xmlns="http://www.w3.org/2000/svg">
<path fill-rule="evenodd" clip-rule="evenodd" d="M62.3961 0C59.2693 0 56.7109 2.55832 56.7109 5.68516C56.7109 8.812 59.2693 11.3703 62.3961 11.3703C65.5229 11.3703 68.0813 8.812 68.0813 5.68516C68.0813 2.55832 65.5229 0 62.3961 0ZM62.3961 8.52774C60.8327 8.52774 59.5535 7.24858 59.5535 5.68516C59.5535 4.12174 60.8327 2.84258 62.3961 2.84258C63.9595 2.84258 65.2387 4.12174 65.2387 5.68516C65.2387 7.24858 63.9595 8.52774 62.3961 8.52774ZM31.125 17.0563C31.125 13.9294 33.6833 11.3711 36.8102 11.3711C39.937 11.3711 42.4953 13.9294 42.4953 17.0563C42.4953 20.1831 39.937 22.7414 36.8102 22.7414C33.6833 22.7414 31.125 20.1831 31.125 17.0563ZM33.9676 17.0563C33.9676 18.6197 35.2467 19.8988 36.8102 19.8988C38.3736 19.8988 39.6527 18.6197 39.6527 17.0563C39.6527 15.4928 38.3736 14.2137 36.8102 14.2137C35.2467 14.2137 33.9676 15.4928 33.9676 17.0563ZM11.2282 41.3602V41.2181L20.7508 18.7617L49.1766 47.4718L0 68.0805L11.2282 41.3602ZM22.5985 55.431L28.2837 53.1569V30.4163L22.5985 24.7311V55.431ZM36.8114 38.944L31.1262 33.2589V51.8778L36.8114 49.4616V38.944ZM14.0708 59.1263L19.7559 56.7102V28.4265L14.0708 41.9287V59.1263ZM11.2282 60.2634V48.7509L5.4009 62.6796L11.2282 60.2634ZM39.654 41.7866V48.3245L44.2021 46.3347L39.654 41.7866ZM49.6016 28.4273C49.6016 25.3005 52.1599 22.7422 55.2867 22.7422C58.4136 22.7422 60.9719 25.3005 60.9719 28.4273C60.9719 31.5542 58.4136 34.1125 55.2867 34.1125C52.1599 34.1125 49.6016 31.5542 49.6016 28.4273ZM52.4441 28.4273C52.4441 29.9908 53.7233 31.2699 55.2867 31.2699C56.8501 31.2699 58.1293 29.9908 58.1293 28.4273C58.1293 26.8639 56.8501 25.5848 55.2867 25.5848C53.7233 25.5848 52.4441 26.8639 52.4441 28.4273ZM49.3203 42.2125L51.3101 44.2023C55.2897 40.2227 61.6855 40.2227 65.6651 44.2023L67.655 42.2125C62.6804 37.0958 54.437 37.0958 49.3203 42.2125ZM25.0132 5.40234C28.8507 9.23983 28.8507 15.6356 25.0132 19.4731L23.0234 17.4833C25.7239 14.6407 25.7239 10.2347 23.0234 7.39215L25.0132 5.40234ZM49.1773 19.1859C54.4361 13.9271 54.4361 5.3994 49.1773 0.140625L47.1875 2.13043C51.3092 6.25217 51.3092 13.0744 47.1875 17.1961L49.1773 19.1859ZM38.2344 27.0039H41.077V29.8465H38.2344V27.0039ZM63.8152 15.6328H60.9727V18.4754H63.8152V15.6328ZM32.5469 2.84375H35.3895V5.68633H32.5469V2.84375Z" fill="url(#paint0_linear_650_4046)"/>
<defs>
<linearGradient id="paint0_linear_650_4046" x1="1.46094" y1="34.458" x2="69.5407" y2="34.458" gradientUnits="userSpaceOnUse">
<stop stop-color="#E348FF"/>
<stop offset="0.3" stop-color="#B514F7"/>
<stop offset="0.7" stop-color="#625BFB"/>
<stop offset="1" stop-color="#00CCFF"/>
</linearGradient>
</defs>
</svg>
