<svg width="73" height="72" viewBox="0 0 73 72" fill="none" xmlns="http://www.w3.org/2000/svg">
<path d="M60.8159 37.6293C60.8159 34.1935 58.0158 31.3935 54.5801 31.3935C51.1443 31.3935 48.3578 34.1935 48.3578 37.6293C48.3578 40.5916 50.4409 43.0805 53.2274 43.7028V55.6333C53.2274 62.0855 47.979 67.3339 41.5268 67.3339C35.0746 67.3339 29.8262 62.0855 29.8262 55.6333V40.4158C31.2601 40.1182 32.5721 39.2119 33.5866 37.8051C34.7499 36.1819 35.3857 34.0447 35.3857 31.7993C35.3857 31.5693 35.3722 31.3394 35.3586 31.123C38.7133 29.0128 40.9452 25.2794 40.9452 21.032V10.8329C42.7172 10.2513 44.0022 8.5875 44.0022 6.62613C44.0022 4.19132 42.0138 2.2029 39.579 2.2029C37.1442 2.2029 35.1557 4.19132 35.1557 6.62613C35.1557 8.5875 36.4408 10.2513 38.2128 10.8329V21.0185C38.2128 24.5219 36.2514 27.579 33.3567 29.1345C33.3296 29.1481 33.3026 29.1616 33.2755 29.1751C32.4639 29.608 31.5847 29.9056 30.6784 30.0814C30.6649 30.0814 30.6514 30.0814 30.6243 30.0949C30.489 30.122 30.3673 30.1355 30.232 30.1626C30.1644 30.1761 30.1103 30.1761 30.0426 30.1896C29.9885 30.1896 29.9344 30.2031 29.8803 30.2031C29.7586 30.2167 29.6368 30.2302 29.5151 30.2302C29.4881 30.2302 29.4475 30.2302 29.4204 30.2302C29.2852 30.2302 29.1364 30.2437 29.0011 30.2437C28.8658 30.2437 28.717 30.2437 28.5818 30.2302C28.5412 30.2302 28.5141 30.2302 28.4736 30.2302C28.3518 30.2167 28.2301 30.2167 28.1083 30.2031C28.0678 30.2031 28.0136 30.1896 27.9731 30.1896C27.8784 30.1761 27.7837 30.1626 27.689 30.149C27.6214 30.1355 27.5673 30.1355 27.4996 30.122C27.4455 30.1085 27.3779 30.0949 27.3238 30.0949C27.1885 30.0679 27.0397 30.0408 26.9045 30.0002C26.8774 30.0002 26.8504 29.9867 26.8368 29.9867C26.7421 29.9597 26.6475 29.9461 26.5528 29.9191H26.5392C25.7547 29.7027 24.9837 29.378 24.2803 28.9452C24.2532 28.9316 24.2397 28.9181 24.2126 28.9046C21.5614 27.2814 19.7894 24.3731 19.7894 21.0456V10.63C21.5614 10.0484 22.8465 8.3846 22.8465 6.42323C22.8465 3.98842 20.858 2 18.4232 2C15.9884 2 14 3.98842 14 6.42323C14 8.3846 15.285 10.0484 17.057 10.63V21.0185C17.057 25.0359 19.059 28.5935 22.1025 30.7577C22.0754 31.0959 22.0619 31.4476 22.0619 31.7993C22.0619 34.0447 22.6977 36.1819 23.861 37.8051C24.7402 39.0361 25.8494 39.8747 27.0668 40.267V55.6468C27.0668 63.6005 33.5461 70.0798 41.4998 70.0798C49.4534 70.0798 55.9327 63.6005 55.9327 55.6468V43.7163C58.7327 43.0941 60.8159 40.6052 60.8159 37.6293ZM39.5654 4.93529C40.4988 4.93529 41.2563 5.69279 41.2563 6.62613C41.2563 7.37009 40.7693 8.00585 40.1065 8.2358C39.9442 8.16817 39.7548 8.12759 39.5654 8.12759C39.3761 8.12759 39.1867 8.16817 39.0244 8.2358C38.3616 8.00585 37.8746 7.37009 37.8746 6.62613C37.8746 5.69279 38.6321 4.93529 39.5654 4.93529ZM18.4368 4.73239C19.3701 4.73239 20.1276 5.48988 20.1276 6.42323C20.1276 7.35657 19.3701 8.11406 18.4368 8.11406C17.5034 8.11406 16.7459 7.35657 16.7459 6.42323C16.7459 5.48988 17.5034 4.73239 18.4368 4.73239ZM24.8213 32.1916C25.7953 32.5568 26.8368 32.8003 27.919 32.8949C27.9325 32.8949 27.946 32.8949 27.9595 32.8949C28.1219 32.9085 28.2842 32.922 28.46 32.922C28.4871 32.922 28.5006 32.922 28.5277 32.922C28.69 32.922 28.8523 32.9355 29.0146 32.9355H29.0281H29.0417C29.1769 32.9355 29.3122 32.9355 29.4339 32.922C29.461 32.922 29.4881 32.922 29.5151 32.922C30.5972 32.8814 31.6523 32.692 32.6398 32.3674C32.4504 35.2892 30.8137 37.6699 28.8794 37.7781C28.7441 37.7375 28.6088 37.7104 28.46 37.7104C28.3789 37.7104 28.3112 37.724 28.2436 37.724C26.4175 37.3858 24.9431 35.0186 24.8213 32.1916ZM54.5801 41.1462C52.6457 41.1462 51.0766 39.5771 51.0766 37.6428C51.0766 35.7085 52.6457 34.1394 54.5801 34.1394C56.5144 34.1394 58.0835 35.7085 58.0835 37.6428C58.0835 39.5636 56.5144 41.1462 54.5801 41.1462Z" fill="url(#paint0_linear_632_5262)"/>
<defs>
<linearGradient id="paint0_linear_632_5262" x1="14" y1="36.0399" x2="60.8159" y2="36.0399" gradientUnits="userSpaceOnUse">
<stop stop-color="#E348FF"/>
<stop offset="0.3" stop-color="#B514F7"/>
<stop offset="0.7" stop-color="#625BFB"/>
<stop offset="1" stop-color="#00CCFF"/>
</linearGradient>
</defs>
</svg>
