<svg width="73" height="73" viewBox="0 0 73 73" fill="none" xmlns="http://www.w3.org/2000/svg">
<path fill-rule="evenodd" clip-rule="evenodd" d="M65.0219 2C68.1951 2 70.7913 4.59626 70.7913 7.76948H71.0798V51.0405C71.0798 54.2138 68.4836 56.81 65.3103 56.81H47.425L49.1558 66.9066H54.3483C55.2138 66.9066 55.7907 67.4835 55.7907 68.349C55.7907 69.2144 55.2138 69.7913 54.3483 69.7913H19.7315C18.8661 69.7913 18.2891 69.2144 18.2891 68.349C18.2891 67.4835 18.8661 66.9066 19.7315 66.9066H24.924L26.6549 56.81H8.76948C5.59626 56.81 3 54.2138 3 51.0405V7.76948C3 4.59626 5.59626 2 8.76948 2H65.0219ZM29.5396 56.81L27.8087 66.9066H46.2711L44.5402 56.81H29.5396ZM65.0219 53.9253C66.7527 53.9253 67.9066 52.7714 67.9066 51.0405V7.76948C67.9066 6.03863 66.7527 4.88474 65.0219 4.88474H8.76948C7.03863 4.88474 5.88474 6.03863 5.88474 7.76948V51.0405C5.88474 52.7714 7.03863 53.9253 8.76948 53.9253H65.0219ZM57.8092 22.1915V22.7685H58.0976V29.4034C58.0976 30.2688 57.5207 30.8457 56.6553 30.8457C55.7898 30.8457 55.2129 30.2688 55.2129 29.4034V25.0762L49.4434 27.6725V38.0576C49.4434 38.6345 49.155 38.923 48.8665 39.2115C45.4048 42.0962 41.3662 43.827 37.0391 43.827C32.7119 43.827 28.3848 42.0962 25.2116 39.2115C24.9232 38.923 24.6347 38.346 24.6347 38.0576V27.6725L16.8459 24.2108C16.5574 23.9224 15.9805 23.3454 15.9805 22.7685C15.9805 22.1915 16.5574 21.6146 16.8459 21.3261L36.4621 12.6719H37.0391H37.616L57.2322 21.3261C57.2322 21.4487 57.2322 21.5192 57.2544 21.5818C57.2843 21.6667 57.3548 21.7371 57.5207 21.903C57.8092 21.903 57.8092 22.1915 57.8092 22.1915ZM37.0391 40.6538C40.2123 40.6538 43.3855 39.4999 46.2702 37.1921H45.9817V28.8264L37.3275 32.865C37.0391 33.1535 36.4621 33.1535 36.1736 32.865L27.5194 28.8264V37.1921L27.8079 37.4806C30.4042 39.4999 33.5774 40.6538 37.0391 40.6538ZM21.173 22.7685L37.0391 29.9803L52.9051 22.7685L37.0391 15.5566L21.173 22.7685Z" fill="url(#paint0_linear_632_5322)"/>
<defs>
<linearGradient id="paint0_linear_632_5322" x1="3" y1="35.8957" x2="71.0798" y2="35.8957" gradientUnits="userSpaceOnUse">
<stop stop-color="#E348FF"/>
<stop offset="0.3" stop-color="#B514F7"/>
<stop offset="0.7" stop-color="#625BFB"/>
<stop offset="1" stop-color="#00CCFF"/>
</linearGradient>
</defs>
</svg>
