<svg width="73" height="73" viewBox="0 0 73 73" fill="none" xmlns="http://www.w3.org/2000/svg">
<path d="M37.402 25.1986C43.6323 25.1986 48.6829 20.2293 48.6829 14.0993C48.6829 7.96934 43.6323 3 37.402 3C31.1717 3 26.1211 7.96934 26.1211 14.0993C26.1211 20.2293 31.1717 25.1986 37.402 25.1986Z" stroke="url(#paint0_linear_632_5358)" stroke-width="3" stroke-linecap="round" stroke-linejoin="round"/>
<path d="M21.7084 54.0392L42.6313 32.9556C43.6591 31.891 44.8963 31.0433 46.2677 30.464C47.639 29.8847 49.1158 29.5859 50.6082 29.5859C52.1006 29.5859 53.5773 29.8847 54.9487 30.464C56.32 31.0433 57.5572 31.891 58.585 32.9556C60.6269 35.0749 61.765 37.8839 61.765 40.8041C61.765 43.7242 60.6269 46.5332 58.585 48.6525C51.4364 55.8919 37.4006 69.9076 37.4006 69.9076C37.4006 69.9076 23.452 55.7032 16.3557 48.6525C15.2933 47.6301 14.4493 46.4091 13.8731 45.0614C13.2968 43.7136 13 42.2662 13 40.8041C13 39.3419 13.2968 37.8945 13.8731 36.5468C14.4493 35.199 15.2933 33.9781 16.3557 32.9556C18.5056 30.9389 21.362 29.8138 24.3325 29.8138C27.303 29.8138 30.1594 30.9389 32.3094 32.9556L53.3369 54.0392" stroke="url(#paint1_linear_632_5358)" stroke-width="3" stroke-linecap="round" stroke-linejoin="round"/>
<defs>
<linearGradient id="paint0_linear_632_5358" x1="26.1211" y1="14.0993" x2="48.6829" y2="14.0993" gradientUnits="userSpaceOnUse">
<stop stop-color="#E348FF"/>
<stop offset="0.3" stop-color="#B514F7"/>
<stop offset="0.7" stop-color="#625BFB"/>
<stop offset="1" stop-color="#00CCFF"/>
</linearGradient>
<linearGradient id="paint1_linear_632_5358" x1="13" y1="49.7468" x2="61.765" y2="49.7468" gradientUnits="userSpaceOnUse">
<stop stop-color="#E348FF"/>
<stop offset="0.3" stop-color="#B514F7"/>
<stop offset="0.7" stop-color="#625BFB"/>
<stop offset="1" stop-color="#00CCFF"/>
</linearGradient>
</defs>
</svg>
