<svg width="157" height="26" viewBox="0 0 157 26" fill="none" xmlns="http://www.w3.org/2000/svg">
<path d="M13.3403 25.124C11.4291 25.124 9.60239 24.8898 8.03931 24.3423C6.38834 23.8723 4.9976 23.0906 3.78091 22.0747C2.6504 21.0572 1.69566 19.8071 1.08732 18.2421C0.478976 16.7562 0.130859 15.0346 0.130859 13.0803C0.130859 11.1261 0.478976 9.56108 1.08732 8.07366C1.69566 6.58779 2.56423 5.25702 3.78091 4.2411C4.82354 3.14609 6.21428 2.28527 7.86525 1.73777C9.51622 1.19026 11.3412 0.876953 13.3403 0.876953C14.4708 0.876953 15.4256 0.954504 16.2959 1.03361C17.1662 1.11271 17.9468 1.26781 18.7292 1.50356C19.5116 1.73777 20.2062 1.89442 20.8145 2.12862C21.4228 2.36282 22.0312 2.59858 22.4655 2.83278V8.46452H21.6831C21.3349 8.23031 20.9886 7.91701 20.4664 7.6037C19.9442 7.2904 19.4238 6.89954 18.8154 6.58624C18.2071 6.27293 17.5126 5.96118 16.7302 5.72542C15.9478 5.49122 15.1654 5.41212 14.383 5.41212C13.4265 5.41212 12.5579 5.56877 11.6894 5.80297C10.8208 6.03718 10.0384 6.50714 9.34216 7.13219C8.64765 7.75725 8.12548 8.54052 7.69119 9.47888C7.25691 10.4963 7.08285 11.6689 7.08285 13.0772C7.08285 14.5631 7.34308 15.7372 7.77736 16.7531C8.21164 17.7706 8.81999 18.4732 9.51622 19.0998C10.2107 19.6473 10.9931 20.1173 11.8634 20.3515C12.732 20.5857 13.6023 20.7423 14.4708 20.7423C15.2533 20.7423 16.1218 20.6648 16.9042 20.429C17.6866 20.1948 18.469 19.8815 19.0774 19.5682C19.6857 19.2549 20.2079 18.9432 20.6422 18.6299C21.1643 18.3166 21.5107 18.0048 21.8588 17.769H22.5534V23.3232C21.945 23.5574 21.2505 23.7932 20.7283 24.0274C20.12 24.2616 19.5116 24.4182 18.9033 24.6525C18.0347 24.8867 17.2523 25.0433 16.5561 25.1224H13.3403V25.124Z" fill="#001244"/>
<path d="M34.4607 15.6571L37.6765 7.44447L40.8061 15.6571H34.4625H34.4607ZM41.5885 1.42188H33.9403L24.293 24.653H31.0726L32.8977 19.9596H42.3709L44.1959 24.653H51.1479L41.5885 1.42188Z" fill="#001244"/>
<path d="M79.1336 24.653H71.3974L65.8362 16.9879L60.0992 24.653H52.7129L61.9242 12.9195L52.9731 1.42188H60.6213L66.0103 8.61858L71.5715 1.42188H78.9595L69.9205 12.6853L79.1336 24.653Z" fill="#001244"/>
<path d="M103.206 5.88104H95.1237V24.653H88.5181V5.88104H80.4355V1.42188H103.206V5.88104Z" fill="#001244"/>
<path d="M119.285 20.2735C118.503 20.5868 117.721 20.7435 116.852 20.7435C115.983 20.7435 115.201 20.5868 114.419 20.2735C113.636 19.9602 112.942 19.5694 112.42 18.9443C111.811 18.3193 111.377 17.536 111.029 16.5976C110.681 15.6593 110.507 14.4852 110.507 13.0784C110.507 11.7492 110.681 10.575 111.029 9.48003C111.377 8.46256 111.897 7.68085 112.42 7.05579C113.028 6.43073 113.722 5.96078 114.505 5.72657C115.287 5.49237 116.07 5.33572 116.938 5.33572C117.807 5.33572 118.589 5.49237 119.372 5.72657C120.154 6.03988 120.849 6.43073 121.457 7.05579C122.065 7.68085 122.499 8.46411 122.848 9.40248C123.196 10.3408 123.37 11.5925 123.37 12.9217C123.37 14.2509 123.196 15.346 122.935 16.2859C122.587 17.2242 122.153 18.0851 121.459 18.7892C120.764 19.5709 120.068 19.9618 119.285 20.2751V20.2735ZM126.586 4.16005C124.238 1.97002 120.936 0.875 116.764 0.875C112.592 0.875 109.376 1.97002 106.943 4.16005C104.596 6.35008 103.379 9.32183 103.379 12.9993C103.379 16.6767 104.596 19.6485 106.943 21.8385C109.29 24.0285 112.592 25.1236 116.764 25.1236C120.936 25.1236 124.238 24.0285 126.586 21.8385C128.933 19.6485 130.149 16.6767 130.149 12.9993C130.149 9.32183 128.933 6.35008 126.586 4.16005Z" fill="#001244"/>
<path d="M156.569 24.653H150.137L139.185 8.69613V24.653H133.016V1.42188H141.01L150.397 14.7187V1.42188H156.569V24.653Z" fill="#001244"/>
</svg>
