<svg width="117" height="34" viewBox="0 0 117 34" fill="none" xmlns="http://www.w3.org/2000/svg">
<path d="M116.572 12.6927C115.895 10.421 110.629 5.14892 106.858 0.926385C106.816 0.879059 106.523 0.494141 106.127 0.494141C105.731 0.494141 105.443 0.850663 105.578 1.13146C105.716 1.42383 109.408 8.24194 108.721 10.5031C108.032 12.7621 104.679 12.3214 104.126 12.3214C103.861 12.3214 104.04 12.5181 104.366 12.78C106.199 14.2566 107.468 16.32 107.468 19.0775V21.122C107.468 21.1619 107.507 21.2156 107.581 21.2061C111.769 20.7812 118.289 18.4486 116.572 12.6937" fill="#001244"/>
<path d="M95.2058 11.9805C90.7104 12.0194 85.4648 14.3594 85.4648 19.0783V26.2551C85.4648 31.0529 90.7104 33.3151 95.2058 33.3529C99.6136 33.314 104.859 31.0529 104.859 26.2551V19.0783C104.859 14.3604 99.6136 12.0194 95.2058 11.9805ZM100.011 25.928C100.011 27.8694 97.1012 28.98 95.2058 28.98C93.1796 28.98 90.3108 27.8694 90.3108 25.928V19.0783C90.3108 17.1359 93.1784 16.224 95.2058 16.224C97.1012 16.224 100.011 17.1359 100.011 19.0783V25.928Z" fill="#001244"/>
<path d="M61.3433 11.9805C56.8491 12.0194 51.6035 14.3594 51.6035 19.0783V26.2551C51.6035 31.0529 56.8491 33.3151 61.3433 33.3529C65.7499 33.314 70.9932 31.0529 70.9932 26.2551V19.0783C70.9932 14.3604 65.7499 12.0194 61.3433 11.9805ZM66.1484 25.928C66.1484 27.8694 63.2375 28.98 61.3433 28.98C59.3171 28.98 56.4495 27.8694 56.4495 25.928V19.0783C56.4495 17.1359 59.3171 16.224 61.3433 16.224C63.2387 16.224 66.1484 17.1359 66.1484 19.0783V25.928Z" fill="#001244"/>
<path d="M12.4852 12.78C12.8135 12.516 12.99 12.3193 12.7259 12.3193C12.1732 12.3193 8.81945 12.761 8.13001 10.502C7.43706 8.24089 11.1332 1.42278 11.2734 1.13146C11.4066 0.84856 11.1285 0.494141 10.7242 0.494141C10.3199 0.494141 10.0336 0.879059 9.9915 0.927437C6.21944 5.14997 0.957483 10.4221 0.27739 12.6927C-1.43803 18.4475 5.19579 20.7781 9.38269 21.204C9.45981 21.2114 9.4937 21.1588 9.4937 21.1199V19.0764C9.4937 16.32 10.6506 14.2544 12.4852 12.78Z" fill="#001244"/>
<path d="M51.2391 13.5427C47.6505 12.6677 45.0003 12.3027 41.1546 12.3027C37.3054 12.3027 34.6481 12.6666 31.0666 13.5395C30.8971 13.5753 30.8644 13.7299 30.9427 13.8256C32.1685 14.7374 32.6815 15.9553 32.9222 17.3319C34.8912 16.9007 36.6651 16.6483 38.7287 16.5442V33.2124C38.7287 33.2713 38.7743 33.3081 38.8479 33.3081H43.459C43.5396 33.3144 43.5782 33.2808 43.5758 33.2156V16.5474C45.5612 16.6536 47.217 16.9028 49.172 17.3319C49.4676 15.9626 50.0881 14.689 51.3455 13.834C51.4577 13.7099 51.3607 13.5732 51.2391 13.5427Z" fill="#001244"/>
<path d="M85.6399 12.126C85.2963 12.0828 84.2797 11.9514 83.3823 11.9808C78.9687 12.1333 73.9766 14.4786 73.9766 19.0766V33.2555C73.9743 33.3143 74.0222 33.3501 74.0935 33.3501H78.7046C78.784 33.3575 78.8238 33.327 78.8226 33.2597V32.8895H78.8238V19.0776C78.8238 17.5611 80.8979 16.624 82.6274 16.3075C83.131 14.7951 84.1208 13.7045 85.6352 12.6118C85.9005 12.4183 85.8864 12.1586 85.6411 12.127" fill="#001244"/>
<path d="M21.4782 11.8272C16.9209 11.8682 11.9043 14.2398 11.9043 19.025V26.3058C11.9043 31.172 16.9209 33.4657 21.4782 33.5057C24.7419 33.4763 28.4602 32.2584 30.2306 29.6839C30.2913 29.5976 30.2364 29.4851 30.1476 29.4378C28.5853 28.6322 27.6808 28.1863 26.1348 27.4027C26.0857 27.3786 26.0332 27.3786 25.9958 27.4385C25.1486 28.7026 22.9949 29.4031 21.4782 29.4031C19.4204 29.4031 16.818 28.2767 16.818 26.3048V24.1309H29.457C30.1301 24.1309 30.6793 23.6366 30.6793 23.0298V19.0239C30.6793 14.2398 25.9479 11.8672 21.4793 11.8262M25.8614 20.287C25.8614 20.3343 25.8415 20.3796 25.8065 20.4132C25.7726 20.4469 25.7177 20.47 25.6604 20.47H16.8192V19.0229C16.8192 17.0531 19.4227 16.1297 21.4793 16.1297C23.4004 16.1297 25.8649 17.0531 25.8649 19.0229L25.8626 20.286L25.8614 20.287Z" fill="#001244"/>
</svg>
