<svg width="27" height="22" viewBox="0 0 27 22" fill="none" xmlns="http://www.w3.org/2000/svg">
<path d="M17.8117 10.5474L12.0037 6.73704C11.8942 6.66521 11.7671 6.62397 11.6357 6.61773C11.5043 6.6115 11.3737 6.64049 11.2578 6.70163C11.1419 6.76276 11.045 6.85374 10.9775 6.96484C10.9101 7.07594 10.8745 7.20298 10.8747 7.33241V14.9532C10.8745 15.0826 10.9101 15.2097 10.9775 15.3208C11.045 15.4319 11.1419 15.5229 11.2578 15.584C11.3737 15.6451 11.5043 15.6741 11.6357 15.6679C11.7671 15.6616 11.8942 15.6204 12.0037 15.5486L17.8117 11.7382C17.9116 11.673 17.9935 11.5845 18.0501 11.4807C18.1068 11.3768 18.1364 11.2607 18.1364 11.1428C18.1364 11.0249 18.1068 10.9088 18.0501 10.805C17.9935 10.7011 17.9116 10.6126 17.8117 10.5474ZM12.3267 13.6184V8.66724L16.0996 11.1428L12.3267 13.6184ZM26.1693 4.23646C26.0643 3.83483 25.8638 3.46348 25.5845 3.15296C25.3051 2.84244 24.9548 2.60163 24.5624 2.45034C20.4338 0.877362 13.8114 0.902367 13.5367 0.902367C13.2621 0.902367 6.63965 0.877362 2.50623 2.45034C2.11474 2.60225 1.76542 2.84334 1.48694 3.15382C1.20845 3.4643 1.00874 3.83532 0.904172 4.23646C0.595618 5.41411 0.226562 7.57056 0.226562 11.1428C0.226562 14.7151 0.595618 16.8715 0.904172 18.0492C1.00922 18.4508 1.20967 18.8221 1.48903 19.1327C1.76839 19.4432 2.11868 19.684 2.51107 19.8353C6.63965 21.4083 13.2609 21.3832 13.5367 21.3832H13.6227C14.4588 21.3832 20.6408 21.3309 24.5673 19.8353C24.9597 19.684 25.3099 19.4432 25.5893 19.1327C25.8687 18.8221 26.0691 18.4508 26.1742 18.0492C26.4827 16.8739 26.8518 14.7234 26.8518 11.1428C26.8518 7.56223 26.4839 5.41411 26.1693 4.23646ZM24.7633 17.6919C24.7167 17.8749 24.6266 18.0445 24.5003 18.1865C24.3741 18.3285 24.2154 18.439 24.0373 18.5088C20.1652 19.977 13.6069 19.9543 13.5367 19.9543C13.4666 19.9543 6.91675 19.9782 3.03985 18.5052C2.86173 18.4354 2.70301 18.3249 2.57679 18.1829C2.45056 18.0409 2.36044 17.8714 2.31384 17.6884C2.02223 16.5941 1.67858 14.5698 1.67858 11.1428C1.67858 7.71583 2.02223 5.69156 2.31021 4.59369C2.35681 4.41067 2.44693 4.24116 2.57316 4.09914C2.69938 3.95712 2.8581 3.84665 3.03622 3.77684C6.76791 2.36223 12.9959 2.33127 13.5077 2.33127H13.5367C13.6021 2.33127 20.1567 2.30745 24.0336 3.78041C24.2118 3.85022 24.3705 3.96069 24.4967 4.10271C24.6229 4.24473 24.7131 4.41424 24.7597 4.59726C25.0476 5.69156 25.3913 7.71583 25.3913 11.1464C25.3913 14.5769 25.0513 16.5941 24.7633 17.6919Z" fill="#001244"/>
</svg>
