<svg width="23" height="23" viewBox="0 0 23 23" fill="none" xmlns="http://www.w3.org/2000/svg">
<path d="M11.6543 6.94156C10.6731 6.94156 9.71403 7.2325 8.89823 7.7776C8.08244 8.3227 7.4466 9.09747 7.07113 10.0039C6.69566 10.9104 6.59742 11.9078 6.78883 12.8701C6.98025 13.8324 7.45271 14.7164 8.14649 15.4101C8.84027 16.1039 9.7242 16.5764 10.6865 16.7678C11.6488 16.9592 12.6462 16.861 13.5527 16.4855C14.4592 16.11 15.2339 15.4742 15.779 14.6584C16.3241 13.8426 16.6151 12.8835 16.6151 11.9023C16.6134 10.5872 16.0902 9.32639 15.1602 8.39643C14.2303 7.46647 12.9695 6.94327 11.6543 6.94156ZM11.6543 15.569C10.9291 15.569 10.2202 15.354 9.61721 14.9511C9.01423 14.5482 8.54426 13.9755 8.26674 13.3055C7.98922 12.6355 7.9166 11.8983 8.05808 11.187C8.19956 10.4757 8.54878 9.82241 9.06157 9.30962C9.57436 8.79683 10.2277 8.44761 10.939 8.30613C11.6502 8.16465 12.3875 8.23726 13.0575 8.51479C13.7275 8.79231 14.3001 9.26227 14.703 9.86525C15.1059 10.4682 15.321 11.1771 15.321 11.9023C15.321 12.8748 14.9347 13.8074 14.247 14.4951C13.5594 15.1827 12.6268 15.569 11.6543 15.569ZM16.8308 0.902344H6.47783C4.93386 0.904056 3.45361 1.51816 2.36186 2.60991C1.27011 3.70166 0.65601 5.1819 0.654297 6.72587V17.0788C0.65601 18.6228 1.27011 20.103 2.36186 21.1948C3.45361 22.2865 4.93386 22.9006 6.47783 22.9023H16.8308C18.3747 22.9006 19.855 22.2865 20.9467 21.1948C22.0385 20.103 22.6526 18.6228 22.6543 17.0788V6.72587C22.6526 5.1819 22.0385 3.70166 20.9467 2.60991C19.855 1.51816 18.3747 0.904056 16.8308 0.902344ZM21.3602 17.0788C21.3602 18.2801 20.883 19.4322 20.0335 20.2816C19.1841 21.131 18.032 21.6082 16.8308 21.6082H6.47783C5.27655 21.6082 4.12448 21.131 3.27505 20.2816C2.42562 19.4322 1.94841 18.2801 1.94841 17.0788V6.72587C1.94841 5.5246 2.42562 4.37252 3.27505 3.5231C4.12448 2.67367 5.27655 2.19646 6.47783 2.19646H16.8308C18.032 2.19646 19.1841 2.67367 20.0335 3.5231C20.883 4.37252 21.3602 5.5246 21.3602 6.72587V17.0788ZM18.3406 6.2945C18.3406 6.50779 18.2773 6.7163 18.1588 6.89364C18.0403 7.07099 17.8719 7.20922 17.6748 7.29084C17.4778 7.37247 17.2609 7.39382 17.0518 7.35221C16.8426 7.3106 16.6504 7.20789 16.4996 7.05707C16.3488 6.90625 16.246 6.71409 16.2044 6.50489C16.1628 6.2957 16.1842 6.07886 16.2658 5.8818C16.3474 5.68475 16.4856 5.51632 16.663 5.39782C16.8403 5.27932 17.0488 5.21607 17.2621 5.21607C17.5482 5.21607 17.8225 5.32969 18.0247 5.53193C18.227 5.73418 18.3406 6.00848 18.3406 6.2945Z" fill="#001244"/>
</svg>
