<svg width="23" height="23" viewBox="0 0 23 23" fill="none" xmlns="http://www.w3.org/2000/svg">
<path d="M5.42069 8.4335H1.00563C0.859265 8.4335 0.718892 8.49013 0.615394 8.59092C0.511896 8.69171 0.453752 8.82841 0.453752 8.97096V21.8699C0.453752 22.0124 0.511896 22.1491 0.615394 22.2499C0.718892 22.3507 0.859265 22.4073 1.00563 22.4073H5.42069C5.56706 22.4073 5.70743 22.3507 5.81093 22.2499C5.91442 22.1491 5.97257 22.0124 5.97257 21.8699V8.97096C5.97257 8.82841 5.91442 8.69171 5.81093 8.59092C5.70743 8.49013 5.56706 8.4335 5.42069 8.4335ZM4.86881 21.3324H1.55752V9.50841H4.86881V21.3324ZM17.0102 8.4335C15.8126 8.4335 14.6482 8.81832 13.6989 9.52883V8.97096C13.6989 8.82841 13.6408 8.69171 13.5373 8.59092C13.4338 8.49013 13.2934 8.4335 13.147 8.4335H8.73198C8.58561 8.4335 8.44524 8.49013 8.34174 8.59092C8.23824 8.69171 8.1801 8.82841 8.1801 8.97096V21.8699C8.1801 22.0124 8.23824 22.1491 8.34174 22.2499C8.44524 22.3507 8.58561 22.4073 8.73198 22.4073H13.147C13.2934 22.4073 13.4338 22.3507 13.5373 22.2499C13.6408 22.1491 13.6989 22.0124 13.6989 21.8699V15.9579C13.6989 15.5302 13.8733 15.1201 14.1838 14.8178C14.4943 14.5154 14.9155 14.3455 15.3546 14.3455C15.7937 14.3455 16.2148 14.5154 16.5253 14.8178C16.8358 15.1201 17.0102 15.5302 17.0102 15.9579V21.8699C17.0102 22.0124 17.0683 22.1491 17.1718 22.2499C17.2753 22.3507 17.4157 22.4073 17.5621 22.4073H21.9771C22.1235 22.4073 22.2639 22.3507 22.3674 22.2499C22.4709 22.1491 22.529 22.0124 22.529 21.8699V13.808C22.5273 12.3832 21.9453 11.0171 20.9107 10.0096C19.8761 9.002 18.4733 8.43521 17.0102 8.4335ZM21.4253 21.3324H18.114V15.9579C18.114 15.2452 17.8232 14.5616 17.3058 14.0577C16.7883 13.5537 16.0864 13.2706 15.3546 13.2706C14.6227 13.2706 13.9209 13.5537 13.4034 14.0577C12.8859 14.5616 12.5952 15.2452 12.5952 15.9579V21.3324H9.28386V9.50841H12.5952V10.8015C12.5951 10.9128 12.6306 11.0214 12.6967 11.1123C12.7627 11.2031 12.8561 11.2717 12.9639 11.3087C13.0718 11.3456 13.1887 11.349 13.2986 11.3184C13.4085 11.2879 13.506 11.2248 13.5775 11.138C14.1443 10.4383 14.9212 9.9283 15.7998 9.67912C16.6785 9.42995 17.6151 9.45401 18.479 9.74794C19.3429 10.0419 20.0911 10.591 20.6193 11.3189C21.1474 12.0467 21.4292 12.9168 21.4253 13.808V21.3324ZM3.61935 0.911288C3.48965 0.902386 3.3595 0.901668 3.22972 0.909138C2.81665 0.881767 2.40222 0.937282 2.01208 1.07224C1.62195 1.20721 1.26442 1.41874 0.96165 1.69374C0.65888 1.96875 0.417314 2.30136 0.251916 2.67099C0.0865187 3.04061 0.000811759 3.43937 0.000104708 3.84257C-0.00332322 4.24155 0.0774501 4.63696 0.237416 5.00429C0.397382 5.37162 0.633129 5.70302 0.93004 5.97796C1.22695 6.2529 1.57869 6.46551 1.96346 6.6026C2.34822 6.73969 2.7578 6.79834 3.1668 6.77492H3.19771C3.59305 6.80188 3.98998 6.75274 4.36583 6.63031C4.74168 6.50789 5.08908 6.31456 5.38821 6.06138C5.68734 5.8082 5.93233 5.50013 6.1092 5.15474C6.28607 4.80935 6.39136 4.43342 6.41904 4.04841C6.44673 3.6634 6.39627 3.27685 6.27056 2.91083C6.14484 2.5448 5.94633 2.20648 5.68635 1.91517C5.42638 1.62386 5.11003 1.38527 4.75537 1.21303C4.40071 1.04078 4.01469 0.938249 3.61935 0.911288ZM3.58071 5.70323C3.45325 5.71452 3.32495 5.71344 3.19771 5.70001H3.1668C2.90116 5.71946 2.63427 5.68475 2.38317 5.5981C2.13208 5.51145 1.90229 5.37476 1.70849 5.19676C1.51469 5.01876 1.36113 4.80337 1.25761 4.56433C1.1541 4.32528 1.1029 4.06785 1.10729 3.80845C1.11168 3.54906 1.17157 3.2934 1.28312 3.05782C1.39467 2.82223 1.55544 2.61188 1.75516 2.4402C1.95488 2.26852 2.18917 2.13929 2.44306 2.06075C2.69696 1.9822 2.96487 1.95608 3.22972 1.98405C3.73615 1.93872 4.24033 2.09117 4.63135 2.40786C5.02236 2.72455 5.26818 3.17953 5.31473 3.67273C5.36127 4.16592 5.20473 4.65693 4.87954 5.03772C4.55435 5.41851 4.08715 5.6579 3.58071 5.70323Z" fill="#001244"/>
</svg>
