<svg width="191" height="26" viewBox="0 0 191 26" fill="none" xmlns="http://www.w3.org/2000/svg">
<path d="M40.7051 24.7356V0.824219H44.9483V21.1854H55.6524V24.7356H40.7051Z" fill="#001244"/>
<path d="M63.3079 4.33609H59.0859V0.824219H63.3079V4.33609ZM63.2439 24.7356H59.1712V6.85005H63.2439V24.7356Z" fill="#001244"/>
<path d="M88.6182 15.7928C88.6182 21.147 84.311 25.1578 78.2766 25.1578C75.4834 25.1578 73.0526 24.2367 71.2401 22.7014L70.5365 24.7164H67.6152V0.824219H71.7092V8.51963C73.4364 7.19548 75.7179 6.42786 78.2553 6.42786C84.311 6.42786 88.6182 10.4003 88.6182 15.7928ZM84.4176 15.7928C84.4176 12.4153 81.6883 9.93973 77.9355 9.93973C74.1827 9.93973 71.432 12.4537 71.432 15.7928C71.432 19.1128 74.1827 21.646 77.9355 21.646C81.6883 21.646 84.4176 19.132 84.4176 15.7928Z" fill="#001244"/>
<path d="M111.327 17.0596H95.2068C95.6759 19.9382 98.0001 21.7229 101.284 21.7229C103.629 21.7229 105.591 20.725 106.614 19.113H110.922C109.344 22.8936 105.698 25.1772 101.284 25.1772C95.4627 25.1772 91.0488 21.1472 91.0488 15.8122C91.0488 10.4581 95.4627 6.44727 101.284 6.44727C107.361 6.44727 111.391 10.65 111.391 15.8506C111.391 16.2344 111.369 16.6566 111.327 17.0596ZM95.2921 14.0659H107.318C106.572 11.36 104.312 9.72885 101.284 9.72885C98.192 9.72885 95.9744 11.3984 95.2921 14.0659Z" fill="#001244"/>
<path d="M124.27 10.2274C120.88 10.2274 119.196 11.9545 119.196 15.1977V24.7354H115.102V6.84986H117.682L118.556 9.30625C119.984 7.5791 121.946 6.75391 124.633 6.75391H126.403V10.2274H124.27Z" fill="#001244"/>
<path d="M139.537 21.3974C137.106 21.3974 135.827 20.2076 135.827 18.0966V10.2285H141.669V7.10042H135.784V3.18555L127.938 10.2477H131.733V18.3845C131.733 22.3185 134.42 24.7365 138.748 24.7365H141.776V21.3974H139.537Z" fill="#001244"/>
<path d="M164.315 17.0596H148.195C148.664 19.9382 150.988 21.7229 154.272 21.7229C156.618 21.7229 158.579 20.725 159.603 19.113H163.91C162.332 22.8936 158.686 25.1772 154.272 25.1772C148.451 25.1772 144.037 21.1472 144.037 15.8122C144.037 10.4581 148.451 6.44727 154.272 6.44727C160.349 6.44727 164.379 10.65 164.379 15.8506C164.379 16.2344 164.336 16.6566 164.315 17.0596ZM148.259 14.0659H160.285C159.539 11.36 157.279 9.72885 154.251 9.72885C151.18 9.72885 148.963 11.3984 148.259 14.0659Z" fill="#001244"/>
<path d="M168.878 24.7352H164.379L171.458 15.5045L164.933 6.84961H169.496L173.91 12.8754L178.431 6.84961H182.93L176.298 15.2934L183.442 24.7352H178.836L173.868 17.9226L168.878 24.7352Z" fill="#001244"/>
<path d="M184.848 1.34236H183.547V4.33609H182.929V1.34236H181.543V0.824219H184.848V1.34236ZM187.663 4.33609H187.513L186.149 1.72617L185.658 4.33609H185.04L185.701 0.824219H186.255L187.599 3.39575L188.942 0.824219H189.496L190.157 4.33609H189.539L189.049 1.72617L187.663 4.33609Z" fill="#001244"/>
<path d="M27.4217 4.91211V7.42607L20.4918 13.6822L8.61502 13.663L0.853516 20.6484V18.1344L7.78343 11.8783H19.6602L27.4217 4.91211Z" fill="#001244"/>
<path d="M21.8138 16.5608H9.93704L0.853516 24.736H27.4217V11.5137L21.8138 16.5608Z" fill="#001244"/>
<path d="M6.46142 8.99939H18.3382L27.4217 0.824219H0.853516V14.0465L6.46142 8.99939Z" fill="#001244"/>
</svg>
