<svg width="13" height="12" viewBox="0 0 13 12" fill="none" xmlns="http://www.w3.org/2000/svg">
<path d="M1.5 5.5C1.08579 5.5 0.75 5.83579 0.75 6.25C0.75 6.66421 1.08579 7 1.5 7L1.5 5.5ZM12.0303 6.78033C12.3232 6.48744 12.3232 6.01256 12.0303 5.71967L7.25736 0.946699C6.96447 0.653805 6.48959 0.653805 6.1967 0.946699C5.90381 1.23959 5.90381 1.71447 6.1967 2.00736L10.4393 6.25L6.1967 10.4926C5.90381 10.7855 5.90381 11.2604 6.1967 11.5533C6.48959 11.8462 6.96447 11.8462 7.25736 11.5533L12.0303 6.78033ZM1.5 7L11.5 7L11.5 5.5L1.5 5.5L1.5 7Z" fill="#00CCFF"/>
</svg>
