<svg width="102" height="28" viewBox="0 0 102 28" fill="none" xmlns="http://www.w3.org/2000/svg">
<path d="M20.4022 17.946C20.4022 18.105 20.3335 18.2596 20.2059 18.3745C20.0783 18.4893 19.9066 18.5511 19.7299 18.5511H10.9599C10.7833 18.5511 10.6115 18.4849 10.4839 18.3745C10.3563 18.2596 10.2876 18.105 10.2876 17.946V10.0531C10.2876 9.89406 10.3563 9.73947 10.4839 9.62464C10.6115 9.5098 10.7833 9.44796 10.9599 9.44796H19.7299C19.9066 9.44796 20.0783 9.5098 20.2059 9.62464C20.3335 9.73947 20.4022 9.89406 20.4022 10.0531V17.946ZM29.8494 0.335938H0.83055C0.653875 0.335938 0.482108 0.397774 0.354509 0.512613C0.22691 0.627452 0.158203 0.782042 0.158203 0.94105V27.0536C0.158203 27.2127 0.22691 27.3672 0.354509 27.4821C0.482108 27.5969 0.653875 27.6588 0.83055 27.6588H29.8445C30.0212 27.6588 30.193 27.5969 30.3206 27.4821C30.4482 27.3672 30.5169 27.2127 30.5169 27.0536V0.945467C30.5169 0.786459 30.4482 0.631868 30.3206 0.51703C30.193 0.402191 30.0212 0.340354 29.8445 0.340354L29.8494 0.335938Z" fill="#001244"/>
<path d="M90.5957 9.44727H81.8208C81.4495 9.44727 81.1484 9.71818 81.1484 10.0524V17.9498C81.1484 18.284 81.4495 18.5549 81.8208 18.5549H90.5957C90.967 18.5549 91.268 18.284 91.268 17.9498V10.0524C91.268 9.71818 90.967 9.44727 90.5957 9.44727Z" fill="#001244"/>
<path d="M80.4677 0.335938H71.7026C71.3286 0.335938 71.0254 0.608833 71.0254 0.945467V8.83401C71.0254 9.17065 71.3286 9.44354 71.7026 9.44354H80.4677C80.8417 9.44354 81.145 9.17065 81.145 8.83401V0.945467C81.145 0.608833 80.8417 0.335938 80.4677 0.335938Z" fill="#001244"/>
<path d="M100.706 0.335938H91.9409C91.5669 0.335938 91.2637 0.608833 91.2637 0.945467V8.83401C91.2637 9.17065 91.5669 9.44354 91.9409 9.44354H100.706C101.08 9.44354 101.383 9.17065 101.383 8.83401V0.945467C101.383 0.608833 101.08 0.335938 100.706 0.335938Z" fill="#001244"/>
<path d="M80.4677 18.5547H71.7026C71.3286 18.5547 71.0254 18.8276 71.0254 19.1642V27.0528C71.0254 27.3894 71.3286 27.6623 71.7026 27.6623H80.4677C80.8417 27.6623 81.145 27.3894 81.145 27.0528V19.1642C81.145 18.8276 80.8417 18.5547 80.4677 18.5547Z" fill="#001244"/>
<path d="M100.711 18.5547H91.936C91.5647 18.5547 91.2637 18.8256 91.2637 19.1598V27.0572C91.2637 27.3914 91.5647 27.6623 91.936 27.6623H100.711C101.082 27.6623 101.383 27.3914 101.383 27.0572V19.1598C101.383 18.8256 101.082 18.5547 100.711 18.5547Z" fill="#001244"/>
<path d="M65.2685 0.335938H56.5034C56.1294 0.335938 55.8262 0.608833 55.8262 0.945467V8.83401C55.8262 9.17065 56.1294 9.44354 56.5034 9.44354H65.2685C65.6425 9.44354 65.9457 9.17065 65.9457 8.83401V0.945467C65.9457 0.608833 65.6425 0.335938 65.2685 0.335938Z" fill="#001244"/>
<path d="M65.2734 18.5547H56.4985C56.1272 18.5547 55.8262 18.8256 55.8262 19.1598V27.0572C55.8262 27.3914 56.1272 27.6623 56.4985 27.6623H65.2734C65.6447 27.6623 65.9457 27.3914 65.9457 27.0572V19.1598C65.9457 18.8256 65.6447 18.5547 65.2734 18.5547Z" fill="#001244"/>
<path d="M55.826 10.0437C55.826 9.88472 55.7524 9.73013 55.6297 9.61529C55.5021 9.50045 55.3303 9.43862 55.1537 9.43862H45.7065V0.944956C45.7065 0.785949 45.6328 0.631358 45.5101 0.516519C45.3875 0.40168 45.2108 0.339844 45.0341 0.339844H36.2641C36.0875 0.339844 35.9157 0.40168 35.7881 0.516519C35.6605 0.631358 35.5918 0.785949 35.5918 0.944956V27.0443C35.5918 27.2033 35.6605 27.3579 35.7881 27.4727C35.9157 27.5876 36.0875 27.6494 36.2641 27.6494H45.0341C45.2108 27.6494 45.3826 27.5876 45.5101 27.4727C45.6377 27.3579 45.7065 27.2033 45.7065 27.0443V18.5506H55.1537C55.3303 18.5506 55.5021 18.4844 55.6297 18.374C55.7573 18.2591 55.826 18.1045 55.826 17.9455V10.0526V10.0437Z" fill="#001244"/>
</svg>
