<svg width="72" height="73" viewBox="0 0 72 73" fill="none" xmlns="http://www.w3.org/2000/svg">
<path d="M27.8472 58.8125H11.8103V49.25C11.8103 41.4931 18.1159 35.1875 25.8728 35.1875C29.2703 35.1875 32.5553 36.4137 35.1091 38.6469C35.8122 39.26 36.8753 39.1869 37.4884 38.4837C38.1016 37.7806 38.0284 36.7175 37.3253 36.1044C35.8853 34.8444 34.2541 33.8487 32.5159 33.1344C35.6322 31.0025 37.6797 27.425 37.6797 23.375C37.6797 16.8612 32.3809 11.5625 25.8672 11.5625C19.3534 11.5625 14.0547 16.8612 14.0547 23.375C14.0547 27.425 16.1022 31.0025 19.2184 33.1344C13.1941 35.6262 8.86281 41.4031 8.46344 48.215C8.44094 48.3219 8.42969 48.4344 8.42969 48.5469V60.5C8.42969 61.4338 9.18344 62.1875 10.1172 62.1875H27.8416C28.7753 62.1875 29.5291 61.4338 29.5291 60.5C29.5291 59.5662 28.7753 58.8125 27.8416 58.8125H27.8472ZM17.4353 23.375C17.4353 18.7231 21.2209 14.9375 25.8728 14.9375C30.5247 14.9375 34.3103 18.7231 34.3103 23.375C34.3103 28.0269 30.5247 31.8125 25.8728 31.8125C21.2209 31.8125 17.4353 28.0269 17.4353 23.375ZM65.8103 42.5619C65.8103 42.5619 65.8103 42.5169 65.8047 42.5C65.8047 42.41 65.7934 42.32 65.7766 42.23C65.7653 42.1737 65.7428 42.1231 65.7259 42.0669C65.7091 42.0163 65.6978 41.9656 65.6809 41.915C65.6416 41.825 65.5966 41.7406 65.5459 41.6619C65.5403 41.6506 65.5347 41.6337 65.5234 41.6225C65.4616 41.5325 65.3884 41.4425 65.3097 41.3638C65.2759 41.33 65.2309 41.3019 65.1916 41.2681C65.1466 41.2288 65.1016 41.1894 65.0566 41.1556C65.0116 41.1219 64.9553 41.0994 64.9047 41.0769C64.8597 41.0544 64.8147 41.0263 64.7641 41.0037C64.7022 40.9813 64.6403 40.9644 64.5784 40.9475C64.5334 40.9363 64.4941 40.9194 64.4491 40.9081C64.3422 40.8856 64.2297 40.8744 64.1172 40.8744H56.8047V36.9369C56.8047 36.0031 56.0509 35.2494 55.1172 35.2494H41.6172C40.6834 35.2494 39.9297 36.0031 39.9297 36.9369V40.8744H32.6172C32.5047 40.8744 32.3922 40.8856 32.2853 40.9081C32.2347 40.9194 32.1897 40.9362 32.1391 40.9531C32.0828 40.97 32.0266 40.9813 31.9759 41.0037C31.9253 41.0263 31.8747 41.0544 31.8241 41.0825C31.7791 41.105 31.7284 41.1275 31.6891 41.1556C31.6384 41.1894 31.5878 41.2344 31.5372 41.2737C31.5034 41.3019 31.4641 41.33 31.4303 41.3581C31.3516 41.4369 31.2784 41.5212 31.2166 41.6169C31.2109 41.6281 31.2053 41.645 31.1941 41.6562C31.1434 41.735 31.0984 41.8194 31.0591 41.9094C31.0366 41.96 31.0253 42.0106 31.0141 42.0612C30.9972 42.1175 30.9747 42.1681 30.9634 42.2244C30.9466 42.3144 30.9409 42.4044 30.9353 42.4944C30.9353 42.5169 30.9297 42.5338 30.9297 42.5563V62.8063C30.9297 63.74 31.6834 64.4938 32.6172 64.4938H64.1172C65.0509 64.4938 65.8047 63.74 65.8047 62.8063V42.5675L65.8103 42.5619ZM48.3728 51.0444L38.1859 44.2438H58.5541L48.3672 51.0444H48.3728ZM43.3103 38.6188H53.4353V40.8688H43.3103V38.6188ZM34.3103 61.1188V45.7119L47.4334 54.4813C47.4728 54.5094 47.5122 54.5262 47.5516 54.5487C47.5741 54.56 47.5909 54.5712 47.6134 54.5825C47.7203 54.6387 47.8328 54.6781 47.9453 54.7062C47.9622 54.7062 47.9847 54.7175 48.0016 54.7175C48.1197 54.7456 48.2434 54.7625 48.3672 54.7625C48.4909 54.7625 48.6091 54.7456 48.7328 54.7175C48.7497 54.7175 48.7722 54.7119 48.7891 54.7062C48.9016 54.6781 49.0141 54.6331 49.1209 54.5825C49.1434 54.5712 49.1603 54.56 49.1828 54.5487C49.2222 54.5262 49.2616 54.5094 49.3009 54.4813L62.4241 45.7119V61.1188H34.2991H34.3103Z" fill="url(#paint0_linear_814_10901)"/>
<defs>
<linearGradient id="paint0_linear_814_10901" x1="8.43531" y1="38.0281" x2="65.8103" y2="38.0281" gradientUnits="userSpaceOnUse">
<stop stop-color="#E240FB"/>
<stop offset="0.3" stop-color="#B00DF1"/>
<stop offset="0.7" stop-color="#604BF6"/>
<stop offset="1" stop-color="#22C2FC"/>
</linearGradient>
</defs>
</svg>
