<svg width="32" height="32" viewBox="0 0 32 32" fill="none" xmlns="http://www.w3.org/2000/svg">
<path d="M5.88203 17.0221C5.58953 16.7296 5.58953 16.2546 5.88203 15.9621C6.17453 15.6696 6.64953 15.6696 6.94203 15.9621L9.75953 18.7796C9.88703 18.8121 10.0095 18.8746 10.1095 18.9746C10.402 19.2671 10.402 19.7421 10.1095 20.0346L7.07953 23.0646C6.93203 23.2121 6.74203 23.2846 6.54953 23.2846C6.35703 23.2846 6.16453 23.2121 6.01953 23.0646C5.72703 22.7722 5.72703 22.2971 6.01953 22.0046L8.44203 19.5821L5.88203 17.0221ZM16.397 23.3121C16.812 23.3121 17.147 22.9771 17.147 22.5621C17.147 22.1471 16.812 21.8121 16.397 21.8121H11.852C11.437 21.8121 11.102 22.1471 11.102 22.5621C11.102 22.9771 11.437 23.3121 11.852 23.3121H16.397ZM29.2495 12.7396V14.7946C29.2495 15.1446 29.007 15.4496 28.6645 15.5271L26.1245 16.0996C26.022 16.4021 25.8995 16.6946 25.7595 16.9821L27.152 19.1821C27.3395 19.4796 27.297 19.8646 27.0495 20.1121L25.597 21.5646C25.3495 21.8121 24.962 21.8571 24.6645 21.6671L22.4645 20.2746C22.1795 20.4171 21.8845 20.5396 21.582 20.6396L21.0095 23.1796C20.932 23.5222 20.6295 23.7646 20.277 23.7646H20.2295V24.1171C20.2295 24.3846 20.087 24.6321 19.8545 24.7671L11.8745 29.3746C11.7595 29.4421 11.6295 29.4746 11.4995 29.4746C11.3695 29.4746 11.2395 29.4421 11.1245 29.3746L3.14453 24.7671C2.91203 24.6321 2.76953 24.3846 2.76953 24.1171V14.9021C2.76953 14.6346 2.91203 14.3871 3.14453 14.2521L3.95453 13.7846C4.31453 13.5771 4.77203 13.7021 4.97953 14.0596C5.18703 14.4196 5.06453 14.8771 4.70453 15.0846L4.26953 15.3371V23.6871L11.4995 27.8621L18.7295 23.6871V23.0646C18.7295 23.0497 18.7245 23.0346 18.7245 23.0171C18.7245 22.9996 18.7295 22.9846 18.7295 22.9696V15.3371L11.4995 11.1621L8.49203 12.8971C8.13453 13.1046 7.67453 12.9821 7.46703 12.6221C7.25953 12.2646 7.38203 11.8046 7.74203 11.5971L11.1245 9.64465C11.357 9.50965 11.642 9.50965 11.8745 9.64465L12.3345 9.90965L11.347 8.34965C11.1595 8.05215 11.202 7.66715 11.4495 7.41715L12.902 5.96465C13.1495 5.71715 13.537 5.67465 13.8345 5.86215L16.0345 7.25465C16.3195 7.11215 16.6145 6.98965 16.917 6.88965L17.4895 4.34965C17.567 4.00715 17.8695 3.76465 18.222 3.76465H20.277C20.627 3.76465 20.932 4.00715 21.0095 4.34965L21.582 6.88965C21.882 6.99215 22.177 7.11465 22.4645 7.25465L24.6645 5.86215C24.962 5.67465 25.347 5.71715 25.597 5.96465L27.0495 7.41715C27.297 7.66465 27.3395 8.05215 27.152 8.34965L25.7595 10.5496C25.902 10.8346 26.0245 11.1296 26.1245 11.4321L28.6645 12.0046C29.007 12.0821 29.2495 12.3846 29.2495 12.7371V12.7396ZM19.8545 14.2546C20.087 14.3896 20.2295 14.6371 20.2295 14.9046V16.0671C21.1295 15.6846 21.7495 14.7896 21.7495 13.7671C21.7495 12.3896 20.627 11.2671 19.2495 11.2671C18.2995 11.2671 17.4495 11.8046 17.027 12.6221L19.8545 14.2546ZM27.7495 13.3396L25.3695 12.8046C25.097 12.7446 24.882 12.5371 24.8095 12.2671C24.682 11.7896 24.4895 11.3296 24.242 10.8971C24.102 10.6546 24.1095 10.3571 24.257 10.1221L25.562 8.05965L24.957 7.45465L22.8945 8.75965C22.6595 8.90965 22.3595 8.91465 22.1195 8.77465C21.687 8.52465 21.227 8.33465 20.7495 8.20465C20.4795 8.13215 20.2745 7.91715 20.212 7.64465L19.677 5.26465H18.822L18.287 7.64465C18.227 7.91715 18.0195 8.13215 17.7495 8.20465C17.272 8.33215 16.812 8.52465 16.3795 8.77465C16.1395 8.91465 15.8395 8.90715 15.6045 8.75965L13.542 7.45465L12.937 8.05965L14.242 10.1221C14.392 10.3571 14.397 10.6571 14.257 10.8971C14.2395 10.9296 14.2245 10.9621 14.207 10.9946L15.727 11.8721C16.412 10.5996 17.752 9.76715 19.2495 9.76715C21.4545 9.76715 23.2495 11.5621 23.2495 13.7671C23.2495 15.6196 21.982 17.2021 20.2295 17.6421V19.8421C20.3045 19.5946 20.497 19.3971 20.7495 19.3296C21.227 19.2021 21.687 19.0096 22.1195 18.7596C22.362 18.6196 22.6595 18.6271 22.8945 18.7746L24.957 20.0796L25.562 19.4746L24.257 17.4121C24.107 17.1771 24.102 16.8771 24.242 16.6371C24.492 16.2046 24.682 15.7446 24.8095 15.2671C24.882 14.9971 25.097 14.7921 25.3695 14.7296L27.7495 14.1946V13.3396Z" fill="url(#paint0_linear_405_3022)"/>
<defs>
<linearGradient id="paint0_linear_405_3022" x1="2.76953" y1="16.6196" x2="29.2495" y2="16.6196" gradientUnits="userSpaceOnUse">
<stop stop-color="#E348FF"/>
<stop offset="0.3" stop-color="#B514F7"/>
<stop offset="0.7" stop-color="#625BFB"/>
<stop offset="1" stop-color="#00CCFF"/>
</linearGradient>
</defs>
</svg>
