<svg width="32" height="32" viewBox="0 0 32 32" fill="none" xmlns="http://www.w3.org/2000/svg">
<path d="M27.32 9.91773V22.0827C27.32 22.3502 27.1775 22.5977 26.945 22.7327L16.41 28.8152C16.295 28.8827 16.165 28.9152 16.035 28.9152C15.905 28.9152 15.775 28.8827 15.66 28.8152L5.125 22.7327C4.8925 22.5977 4.75 22.3502 4.75 22.0827V9.91773C4.75 9.65023 4.8925 9.40273 5.125 9.26773L15.66 3.18523C15.8925 3.05023 16.1775 3.05023 16.41 3.18523L20.875 5.76273C21.235 5.97023 21.3575 6.42773 21.15 6.78773C20.9425 7.14773 20.485 7.27023 20.125 7.06273L16.035 4.70023L6.25 10.3502V21.6502L16.035 27.3002L25.82 21.6502V10.3502L25.125 9.94773C24.7675 9.74023 24.6425 9.28273 24.85 8.92273C25.0575 8.56523 25.515 8.44023 25.875 8.64773L26.945 9.26523C27.1775 9.40024 27.32 9.64773 27.32 9.91523V9.91773ZM8.97 20.5202C9.1175 20.6677 9.3075 20.7402 9.5 20.7402C9.6925 20.7402 9.885 20.6677 10.03 20.5202L14.03 16.5202C14.2125 16.3377 14.2825 16.0827 14.235 15.8477C14.235 15.8452 14.235 15.8402 14.2325 15.8377C14.2225 15.7952 14.2125 15.7502 14.195 15.7102C14.1925 15.7027 14.185 15.6927 14.1825 15.6852C14.145 15.6052 14.0975 15.5277 14.03 15.4627L10.0525 11.4852C9.76 11.1927 9.285 11.1927 8.9925 11.4852C8.7 11.7777 8.7 12.2527 8.9925 12.5452L12.44 15.9927L8.97 19.4627C8.6775 19.7552 8.6775 20.2302 8.97 20.5227V20.5202ZM15.75 20.0252C15.75 20.4402 16.085 20.7752 16.5 20.7752H22.5C22.915 20.7752 23.25 20.4402 23.25 20.0252C23.25 19.6102 22.915 19.2752 22.5 19.2752H16.5C16.085 19.2752 15.75 19.6102 15.75 20.0252Z" fill="url(#paint0_linear_405_3220)"/>
<defs>
<linearGradient id="paint0_linear_405_3220" x1="4.75" y1="15.9996" x2="27.32" y2="15.9996" gradientUnits="userSpaceOnUse">
<stop stop-color="#E348FF"/>
<stop offset="0.3" stop-color="#B514F7"/>
<stop offset="0.7" stop-color="#625BFB"/>
<stop offset="1" stop-color="#00CCFF"/>
</linearGradient>
</defs>
</svg>
