<svg width="32" height="33" viewBox="0 0 32 33" fill="none" xmlns="http://www.w3.org/2000/svg">
<path d="M24.2149 3.89254C24.2099 3.87254 24.2024 3.85254 24.1974 3.83254C24.1899 3.80504 24.1824 3.78004 24.1724 3.75254C24.1624 3.72754 24.1474 3.70504 24.1349 3.68254C24.1249 3.66254 24.1149 3.64254 24.1024 3.62254C24.0749 3.58254 24.0449 3.54254 24.0099 3.50754C24.0024 3.50004 23.9949 3.49504 23.9849 3.48754C23.9574 3.46254 23.9274 3.43504 23.8949 3.41504C23.8749 3.40254 23.8549 3.39254 23.8349 3.38254C23.8124 3.37004 23.7899 3.35754 23.7674 3.34754C23.7424 3.33754 23.7174 3.33254 23.6924 3.32504C23.6699 3.31754 23.6499 3.31004 23.6274 3.30504C23.5899 3.29754 23.5499 3.29504 23.5099 3.29254C23.4999 3.29254 23.4899 3.29004 23.4799 3.29004H16.5199C16.1049 3.29004 15.7699 3.62504 15.7699 4.04004C15.7699 4.45504 16.1049 4.79004 16.5199 4.79004H21.6749L12.9674 13.5325C12.6749 13.825 12.6749 14.3 12.9674 14.5925C13.1149 14.7375 13.3049 14.81 13.4974 14.81C13.6899 14.81 13.8824 14.7375 14.0299 14.59L22.7324 5.85254V11.0375C22.7324 11.4525 23.0674 11.7875 23.4824 11.7875C23.8974 11.7875 24.2324 11.4525 24.2324 11.0375V4.04004C24.2324 3.99004 24.2274 3.94254 24.2174 3.89254H24.2149Z" fill="url(#paint0_linear_310_2685)"/>
<path d="M22.9495 13.4704L9.26953 27.1854V22.0004C9.26953 21.5854 8.93453 21.2504 8.51953 21.2504C8.10453 21.2504 7.76953 21.5854 7.76953 22.0004V29.0004C7.76953 29.0504 7.77453 29.0978 7.78453 29.1479C7.78953 29.1704 7.79703 29.1904 7.80453 29.2129C7.81203 29.2379 7.81703 29.2629 7.82703 29.2879C7.83703 29.3129 7.85203 29.3354 7.86453 29.3604C7.87453 29.3804 7.88203 29.3979 7.89453 29.4179C7.92203 29.4579 7.95203 29.4979 7.98703 29.5329C7.98953 29.5354 7.99453 29.5379 7.99703 29.5404C8.02953 29.5729 8.06453 29.6004 8.10203 29.6254C8.11953 29.6379 8.13953 29.6454 8.15953 29.6554C8.18203 29.6679 8.20703 29.6828 8.23203 29.6929C8.25703 29.7029 8.28203 29.7079 8.30703 29.7154C8.32953 29.7229 8.34953 29.7304 8.37203 29.7354C8.41953 29.7454 8.46953 29.7504 8.51953 29.7504H15.4795C15.8945 29.7504 16.2295 29.4154 16.2295 29.0004C16.2295 28.5854 15.8945 28.2504 15.4795 28.2504H10.327L24.0095 14.5304C24.302 14.2379 24.302 13.7629 24.0095 13.4704C23.717 13.1779 23.242 13.1779 22.9495 13.4704Z" fill="url(#paint1_linear_310_2685)"/>
<defs>
<linearGradient id="paint0_linear_310_2685" x1="7.48742" y1="9.05254" x2="24.0549" y2="9.05254" gradientUnits="userSpaceOnUse">
<stop stop-color="#E240FB"/>
<stop offset="0.3" stop-color="#B00DF1"/>
<stop offset="0.7" stop-color="#604BF6"/>
<stop offset="1" stop-color="#22C2FC"/>
</linearGradient>
<linearGradient id="paint1_linear_310_2685" x1="-0.000468405" y1="21.5004" x2="24.0545" y2="21.5004" gradientUnits="userSpaceOnUse">
<stop stop-color="#E240FB"/>
<stop offset="0.3" stop-color="#B00DF1"/>
<stop offset="0.7" stop-color="#604BF6"/>
<stop offset="1" stop-color="#22C2FC"/>
</linearGradient>
</defs>
</svg>
