<svg width="32" height="33" viewBox="0 0 32 33" fill="none" xmlns="http://www.w3.org/2000/svg">
<path d="M25.3292 13.2974C25.3292 8.09044 21.0962 3.85742 15.8892 3.85742C10.6822 3.85742 6.44922 8.09044 6.44922 13.2974C6.44922 16.4815 8.04128 19.4222 10.701 21.1828V24.086C10.701 25.462 11.2476 26.7817 12.2206 27.7546C13.1936 28.7276 14.5132 29.2742 15.8892 29.2742C17.2652 29.2742 18.5849 28.7276 19.5579 27.7546C20.5309 26.7817 21.0775 25.462 21.0775 24.086V21.1828C22.3842 20.3238 23.4568 19.1534 24.199 17.777C24.9412 16.4005 25.3296 14.8612 25.3292 13.2974ZM19.1108 23.4117V24.086C19.1108 24.9404 18.7714 25.7598 18.1672 26.364C17.5631 26.9682 16.7436 27.3076 15.8892 27.3076C15.0348 27.3076 14.2154 26.9682 13.6112 26.364C13.007 25.7598 12.6676 24.9404 12.6676 24.086V23.4117H19.1108ZM16.8632 16.9123C18.0806 16.5003 18.886 15.3577 18.886 14.0654C18.886 13.5222 18.4365 13.0914 17.9121 13.0914C17.6553 13.0962 17.4103 13.2003 17.2287 13.382C17.0471 13.5636 16.9429 13.8085 16.9381 14.0654C16.9381 14.646 16.4699 15.0955 15.9079 15.0955C15.346 15.0955 14.8778 14.6273 14.8778 14.0654C14.8778 13.5222 14.4283 13.0914 13.9038 13.0914C13.647 13.0962 13.4021 13.2003 13.2204 13.382C13.0388 13.5636 12.9347 13.8085 12.9299 14.0654C12.9299 15.3577 13.7353 16.4815 14.9527 16.9123V21.445H12.7051V20.6209C12.7051 20.265 12.5178 19.9466 12.2181 19.7781C11.0772 19.1231 10.1287 18.1794 9.46787 17.0419C8.80705 15.9044 8.45716 14.613 8.45335 13.2974C8.45335 9.17679 11.806 5.82409 15.9267 5.82409C20.0473 5.82409 23.4 9.17679 23.4 13.2974C23.4 15.9758 21.9578 18.4482 19.6353 19.7781C19.3356 19.9466 19.1483 20.2838 19.1483 20.6209V21.445H16.9006V16.9123H16.8632Z" fill="url(#paint0_linear_424_2328)"/>
<defs>
<linearGradient id="paint0_linear_424_2328" x1="6.44922" y1="16.5658" x2="25.3292" y2="16.5658" gradientUnits="userSpaceOnUse">
<stop stop-color="#E348FF"/>
<stop offset="0.3" stop-color="#B514F7"/>
<stop offset="0.7" stop-color="#625BFB"/>
<stop offset="1" stop-color="#00CCFF"/>
</linearGradient>
</defs>
</svg>
