<svg width="32" height="32" viewBox="0 0 32 32" fill="none" xmlns="http://www.w3.org/2000/svg">
<path d="M27.7731 21.4798C27.7781 21.4548 27.7831 21.4298 27.7831 21.4048C27.7831 21.3798 27.7831 21.3573 27.7831 21.3348C27.7831 21.3098 27.7831 21.2848 27.7806 21.2598C27.7781 21.2348 27.7731 21.2123 27.7681 21.1898C27.7631 21.1673 27.7581 21.1423 27.7506 21.1198C27.7431 21.0948 27.7331 21.0698 27.7206 21.0448C27.7131 21.0298 27.7106 21.0148 27.7031 20.9998C27.7006 20.9948 27.6956 20.9898 27.6931 20.9848C27.6806 20.9598 27.6631 20.9398 27.6481 20.9173C27.6356 20.8998 27.6231 20.8798 27.6081 20.8623C27.5931 20.8448 27.5756 20.8273 27.5581 20.8098C27.5406 20.7923 27.5231 20.7748 27.5031 20.7573C27.4856 20.7448 27.4681 20.7323 27.4506 20.7223C27.4256 20.7073 27.4031 20.6898 27.3781 20.6773C27.3731 20.6748 27.3681 20.6698 27.3631 20.6673L23.6231 18.8598L27.3806 16.9298C27.3806 16.9298 27.3906 16.9223 27.3956 16.9198C27.4306 16.8998 27.4631 16.8798 27.4956 16.8548C27.5006 16.8523 27.5056 16.8473 27.5106 16.8448C27.5431 16.8173 27.5756 16.7873 27.6031 16.7523C27.6106 16.7423 27.6181 16.7323 27.6256 16.7248C27.6456 16.6998 27.6631 16.6723 27.6806 16.6448C27.6881 16.6323 27.6956 16.6223 27.7006 16.6098C27.7031 16.6023 27.7081 16.5973 27.7131 16.5898C27.7206 16.5748 27.7231 16.5598 27.7306 16.5448C27.7406 16.5198 27.7506 16.4948 27.7581 16.4698C27.7656 16.4473 27.7681 16.4223 27.7731 16.3998C27.7781 16.3748 27.7831 16.3523 27.7831 16.3273C27.7831 16.3023 27.7831 16.2798 27.7831 16.2548C27.7831 16.2298 27.7831 16.2073 27.7806 16.1823C27.7781 16.1573 27.7731 16.1348 27.7681 16.1098C27.7631 16.0873 27.7581 16.0623 27.7506 16.0398C27.7431 16.0148 27.7331 15.9898 27.7206 15.9648C27.7131 15.9498 27.7106 15.9348 27.7031 15.9198C27.7006 15.9148 27.6956 15.9098 27.6931 15.9048C27.6806 15.8798 27.6631 15.8598 27.6481 15.8348C27.6356 15.8173 27.6231 15.7973 27.6081 15.7798C27.5931 15.7623 27.5756 15.7448 27.5581 15.7273C27.5406 15.7098 27.5231 15.6923 27.5031 15.6748C27.4856 15.6623 27.4681 15.6498 27.4506 15.6373C27.4281 15.6223 27.4031 15.6073 27.3781 15.5923C27.3731 15.5898 27.3681 15.5848 27.3631 15.5823L23.7556 13.8398L27.3781 11.9798C27.3781 11.9798 27.3881 11.9723 27.3931 11.9698C27.4281 11.9498 27.4606 11.9298 27.4931 11.9048C27.4981 11.9023 27.5031 11.8973 27.5081 11.8948C27.5406 11.8673 27.5731 11.8373 27.6006 11.8048C27.6081 11.7948 27.6156 11.7848 27.6231 11.7748C27.6431 11.7498 27.6606 11.7248 27.6756 11.6973C27.6831 11.6848 27.6906 11.6723 27.6956 11.6598C27.6981 11.6523 27.7031 11.6473 27.7081 11.6398C27.7156 11.6248 27.7181 11.6098 27.7231 11.5973C27.7331 11.5723 27.7431 11.5473 27.7506 11.5198C27.7581 11.4973 27.7606 11.4748 27.7656 11.4523C27.7706 11.4273 27.7756 11.4023 27.7756 11.3773C27.7756 11.3523 27.7756 11.3298 27.7756 11.3073C27.7756 11.2823 27.7756 11.2573 27.7731 11.2323C27.7706 11.2073 27.7656 11.1848 27.7606 11.1623C27.7556 11.1398 27.7506 11.1148 27.7431 11.0923C27.7356 11.0673 27.7256 11.0423 27.7131 11.0173C27.7056 11.0023 27.7031 10.9873 27.6956 10.9723C27.6931 10.9673 27.6881 10.9623 27.6856 10.9573C27.6731 10.9323 27.6581 10.9123 27.6406 10.8898C27.6281 10.8723 27.6156 10.8523 27.6006 10.8348C27.5856 10.8173 27.5681 10.8023 27.5506 10.7848C27.5331 10.7673 27.5131 10.7473 27.4931 10.7323C27.4781 10.7198 27.4606 10.7098 27.4431 10.6973C27.4181 10.6798 27.3931 10.6648 27.3681 10.6523C27.3631 10.6498 27.3581 10.6448 27.3531 10.6423L16.3156 5.3098C16.3031 5.3048 16.2906 5.2998 16.2756 5.2948C16.2506 5.2848 16.2281 5.2748 16.2031 5.2673C16.1806 5.2598 16.1556 5.2548 16.1331 5.2498C16.1106 5.2448 16.0856 5.2423 16.0631 5.2398C16.0381 5.2398 16.0131 5.2373 15.9881 5.2373C15.9656 5.2373 15.9406 5.2373 15.9181 5.2398C15.8931 5.2398 15.8681 5.2473 15.8431 5.2498C15.8206 5.2548 15.7981 5.2598 15.7756 5.2673C15.7506 5.2748 15.7231 5.2848 15.6981 5.2948C15.6856 5.2998 15.6731 5.3023 15.6606 5.3073L4.62313 10.6398C4.62313 10.6398 4.61063 10.6473 4.60563 10.6498C4.58313 10.6623 4.56063 10.6773 4.54063 10.6898C4.52063 10.7023 4.50063 10.7148 4.48313 10.7298C4.46563 10.7448 4.44812 10.7623 4.43062 10.7773C4.41312 10.7948 4.39313 10.8123 4.37813 10.8323C4.36313 10.8498 4.35313 10.8673 4.34063 10.8848C4.32563 10.9073 4.30813 10.9298 4.29563 10.9548C4.29313 10.9598 4.28812 10.9648 4.28562 10.9698C4.27812 10.9848 4.27563 10.9998 4.26813 11.0148C4.25813 11.0398 4.24813 11.0623 4.23813 11.0898C4.23063 11.1123 4.22562 11.1373 4.22062 11.1598C4.21562 11.1823 4.21063 11.2073 4.20813 11.2298C4.20563 11.2548 4.20563 11.2798 4.20563 11.3048C4.20563 11.3273 4.20563 11.3523 4.20563 11.3748C4.20563 11.3998 4.21313 11.4248 4.21563 11.4498C4.22063 11.4723 4.22313 11.4948 4.23063 11.5173C4.23813 11.5448 4.24813 11.5698 4.25813 11.5948C4.26313 11.6098 4.26813 11.6248 4.27313 11.6373C4.27563 11.6448 4.28062 11.6498 4.28562 11.6573C4.29312 11.6698 4.30063 11.6823 4.30813 11.6948C4.32313 11.7223 4.34063 11.7473 4.36063 11.7723C4.36813 11.7823 4.37563 11.7923 4.38563 11.8023C4.41313 11.8348 4.44563 11.8648 4.47813 11.8923C4.48313 11.8973 4.48813 11.8998 4.49563 11.9048C4.52563 11.9298 4.56063 11.9498 4.59313 11.9673C4.59813 11.9698 4.60313 11.9748 4.60813 11.9773L8.23062 13.8373L4.62313 15.5798C4.62313 15.5798 4.61313 15.5873 4.60563 15.5898C4.58313 15.6023 4.56063 15.6173 4.53813 15.6323C4.51813 15.6448 4.49813 15.6573 4.48063 15.6698C4.46313 15.6848 4.44562 15.7023 4.42812 15.7198C4.41062 15.7373 4.39063 15.7548 4.37563 15.7748C4.36063 15.7923 4.35063 15.8098 4.33813 15.8273C4.32313 15.8498 4.30563 15.8723 4.29313 15.8973C4.29063 15.9023 4.28562 15.9073 4.28312 15.9123C4.27562 15.9273 4.27313 15.9423 4.26562 15.9573C4.25563 15.9823 4.24563 16.0073 4.23563 16.0323C4.22813 16.0548 4.22313 16.0798 4.21813 16.1023C4.21313 16.1273 4.20813 16.1498 4.20563 16.1748C4.20313 16.1998 4.20312 16.2248 4.20312 16.2473C4.20312 16.2723 4.20312 16.2948 4.20312 16.3198C4.20312 16.3448 4.21063 16.3673 4.21313 16.3923C4.21813 16.4148 4.22063 16.4398 4.22813 16.4623C4.23563 16.4873 4.24563 16.5123 4.25563 16.5373C4.26063 16.5523 4.26563 16.5673 4.27313 16.5823C4.27563 16.5898 4.28062 16.5948 4.28562 16.6023C4.29312 16.6148 4.29812 16.6248 4.30562 16.6373C4.32312 16.6648 4.34063 16.6923 4.36063 16.7173C4.36813 16.7273 4.37563 16.7373 4.38313 16.7473C4.41063 16.7798 4.44313 16.8123 4.47563 16.8373C4.48063 16.8423 4.48562 16.8448 4.49062 16.8473C4.52312 16.8723 4.55563 16.8923 4.59063 16.9123C4.59563 16.9148 4.60063 16.9198 4.60563 16.9223L8.36313 18.8523L4.62313 20.6598C4.62313 20.6598 4.61313 20.6673 4.60563 20.6698C4.58313 20.6823 4.56063 20.6973 4.53813 20.7098C4.51813 20.7223 4.49813 20.7348 4.48063 20.7498C4.46313 20.7648 4.44562 20.7823 4.42812 20.7998C4.41062 20.8173 4.39063 20.8348 4.37563 20.8548C4.36063 20.8723 4.35063 20.8898 4.33813 20.9073C4.32313 20.9298 4.30563 20.9523 4.29313 20.9773C4.29063 20.9823 4.28562 20.9873 4.28312 20.9923C4.27562 21.0073 4.27313 21.0223 4.26562 21.0373C4.25563 21.0623 4.24563 21.0848 4.23563 21.1123C4.22813 21.1348 4.22313 21.1598 4.21813 21.1823C4.21313 21.2048 4.20813 21.2298 4.20563 21.2523C4.20313 21.2773 4.20312 21.3023 4.20312 21.3273C4.20312 21.3498 4.20312 21.3748 4.20312 21.3973C4.20312 21.4223 4.21063 21.4473 4.21313 21.4723C4.21813 21.4948 4.22063 21.5173 4.22813 21.5398C4.23563 21.5673 4.24563 21.5923 4.25563 21.6173C4.26063 21.6323 4.26563 21.6473 4.27063 21.6598C4.27313 21.6673 4.27812 21.6723 4.28312 21.6798C4.29062 21.6923 4.29812 21.7048 4.30562 21.7173C4.32062 21.7448 4.34063 21.7698 4.35813 21.7948C4.36563 21.8048 4.37313 21.8148 4.38063 21.8248C4.40813 21.8573 4.44062 21.8873 4.47312 21.9148C4.47812 21.9198 4.48313 21.9223 4.48813 21.9273C4.51813 21.9523 4.55313 21.9723 4.58563 21.9923C4.59063 21.9948 4.59563 21.9998 4.60063 22.0023L15.6381 27.6698C15.7481 27.7248 15.8656 27.7523 15.9806 27.7523C16.2531 27.7523 16.5156 27.6023 16.6481 27.3448C16.8381 26.9773 16.6931 26.5248 16.3231 26.3348L6.62313 21.3548L10.0256 19.7098L15.6356 22.5898C15.6656 22.6048 15.6981 22.6123 15.7281 22.6248C15.7481 22.6323 15.7681 22.6423 15.7906 22.6473C15.8531 22.6623 15.9156 22.6723 15.9781 22.6723C16.0406 22.6723 16.1031 22.6623 16.1656 22.6473C16.1856 22.6423 16.2056 22.6323 16.2256 22.6248C16.2581 22.6148 16.2881 22.6048 16.3181 22.5898L21.9281 19.7098L25.3331 21.3548L20.1331 24.0248C19.7656 24.2148 19.6181 24.6673 19.8081 25.0348C19.9406 25.2948 20.2031 25.4423 20.4756 25.4423C20.5906 25.4423 20.7081 25.4148 20.8181 25.3598L27.3556 22.0023C27.3556 22.0023 27.3656 21.9948 27.3706 21.9923C27.4056 21.9723 27.4381 21.9523 27.4706 21.9273C27.4756 21.9248 27.4806 21.9198 27.4856 21.9173C27.5181 21.8898 27.5506 21.8598 27.5781 21.8273C27.5856 21.8173 27.5931 21.8073 27.6006 21.7973C27.6206 21.7723 27.6381 21.7473 27.6531 21.7198C27.6606 21.7073 27.6681 21.6948 27.6731 21.6823C27.6756 21.6748 27.6806 21.6698 27.6856 21.6623C27.6931 21.6473 27.6956 21.6323 27.7006 21.6198C27.7106 21.5948 27.7206 21.5698 27.7281 21.5423C27.7356 21.5198 27.7381 21.4973 27.7431 21.4748L27.7731 21.4798ZM16.0006 16.1448L6.64313 11.3398L16.0006 6.8198L25.3581 11.3398L16.0006 16.1448ZM15.6581 17.6548C15.6881 17.6698 15.7206 17.6773 15.7506 17.6898C15.7706 17.6973 15.7906 17.7073 15.8131 17.7123C15.8756 17.7273 15.9381 17.7373 16.0006 17.7373C16.0631 17.7373 16.1256 17.7273 16.1881 17.7123C16.2081 17.7073 16.2281 17.6973 16.2481 17.6898C16.2806 17.6798 16.3106 17.6698 16.3406 17.6548L22.0856 14.7048L25.3556 16.2848L15.9981 21.0898L6.64062 16.2848L9.91062 14.7048L15.6556 17.6548H15.6581Z" fill="url(#paint0_linear_405_3011)"/>
<defs>
<linearGradient id="paint0_linear_405_3011" x1="4.21563" y1="16.5023" x2="27.7856" y2="16.5023" gradientUnits="userSpaceOnUse">
<stop stop-color="#E240FB"/>
<stop offset="0.3" stop-color="#B00DF1"/>
<stop offset="0.7" stop-color="#604BF6"/>
<stop offset="1" stop-color="#22C2FC"/>
</linearGradient>
</defs>
</svg>
