<svg width="32" height="33" viewBox="0 0 32 33" fill="none" xmlns="http://www.w3.org/2000/svg">
<path fill-rule="evenodd" clip-rule="evenodd" d="M30.0996 27.6006V5.60059C30.0996 5.18559 29.7646 4.85059 29.3496 4.85059H2.34961C1.93461 4.85059 1.59961 5.18559 1.59961 5.60059V19.6006C1.59961 20.0156 1.93461 20.3506 2.34961 20.3506C2.76461 20.3506 3.09961 20.0156 3.09961 19.6006V6.35059H28.5996V26.8506H3.09961V25.6006C3.09961 25.1856 2.76461 24.8506 2.34961 24.8506C1.93461 24.8506 1.59961 25.1856 1.59961 25.6006V27.6006C1.59961 28.0156 1.93461 28.3506 2.34961 28.3506H29.3496C29.7646 28.3506 30.0996 28.0156 30.0996 27.6006ZM16.5996 8.60059V13.6006C16.5996 14.0156 16.9346 14.3506 17.3496 14.3506H26.3496C26.7646 14.3506 27.0996 14.0156 27.0996 13.6006V8.60059C27.0996 8.18559 26.7646 7.85059 26.3496 7.85059H17.3496C16.9346 7.85059 16.5996 8.18559 16.5996 8.60059ZM25.5996 12.8506H18.0996V9.35059H25.5996V12.8506ZM17.3496 14.8506C16.9346 14.8506 16.5996 15.1856 16.5996 15.6006V24.6006C16.5996 25.0156 16.9346 25.3506 17.3496 25.3506H26.3496C26.7646 25.3506 27.0996 25.0156 27.0996 24.6006V15.6006C27.0996 15.1856 26.7646 14.8506 26.3496 14.8506H17.3496ZM25.5996 23.8506H18.0996V16.3506H25.5996V23.8506ZM14.0359 8.50099H5.56256C5.41385 8.50311 5.27167 8.58388 5.16651 8.72597C5.06134 8.86807 5.00157 9.06018 5 9.26112C5 9.67685 5.2564 10.0233 5.56407 10.0233H14.0374C14.3436 10.0233 14.6 9.67685 14.6 9.26112C14.598 9.05983 14.5377 8.86763 14.4319 8.72586C14.3261 8.58409 14.1834 8.50408 14.0344 8.50303L14.0359 8.50099ZM5.56256 11.3953H14.0359L14.0344 11.3973C14.1834 11.3984 14.3261 11.4784 14.4319 11.6202C14.5377 11.7619 14.598 11.9541 14.6 12.1554C14.6 12.5711 14.3436 12.9176 14.0374 12.9176H5.56407C5.2564 12.9176 5 12.5711 5 12.1554C5.00157 11.9545 5.06134 11.7624 5.16651 11.6203C5.27167 11.4782 5.41385 11.3974 5.56256 11.3953ZM5.56256 14.3787H14.0359L14.0344 14.3807C14.1834 14.3818 14.3261 14.4618 14.4319 14.6036C14.5377 14.7453 14.598 14.9375 14.6 15.1388C14.6 15.5545 14.3436 15.901 14.0374 15.901H5.56407C5.2564 15.901 5 15.5545 5 15.1388C5.00157 14.9379 5.06134 14.7458 5.16651 14.6037C5.27167 14.4616 5.41385 14.3808 5.56256 14.3787ZM11.024 19.7002H5.37504C5.2759 19.7023 5.18111 19.7828 5.111 19.9243C5.0409 20.0659 5.00105 20.2573 5 20.4575C5 20.8716 5.17093 21.2168 5.37605 21.2168H11.025C11.2291 21.2168 11.4 20.8716 11.4 20.4575C11.3987 20.2569 11.3584 20.0655 11.2879 19.9242C11.2174 19.783 11.1223 19.7033 11.0229 19.7022L11.024 19.7002ZM11.024 22.5836H5.37504C5.2759 22.5857 5.18111 22.6662 5.111 22.8078C5.0409 22.9493 5.00105 23.1407 5 23.3409C5 23.7551 5.17093 24.1002 5.37605 24.1002H11.025C11.2291 24.1002 11.4 23.7551 11.4 23.3409C11.3987 23.1404 11.3584 22.9489 11.2879 22.8076C11.2174 22.6664 11.1223 22.5867 11.0229 22.5856L11.024 22.5836Z" fill="url(#paint0_linear_424_2313)"/>
<defs>
<linearGradient id="paint0_linear_424_2313" x1="1.59961" y1="18.1006" x2="30.0996" y2="18.1006" gradientUnits="userSpaceOnUse">
<stop stop-color="#E240FB"/>
<stop offset="0.3" stop-color="#B00DF1"/>
<stop offset="0.7" stop-color="#604BF6"/>
<stop offset="1" stop-color="#22C2FC"/>
</linearGradient>
</defs>
</svg>
