<svg width="32" height="32" viewBox="0 0 32 32" fill="none" xmlns="http://www.w3.org/2000/svg">
<path d="M7.00055 12.25C9.10555 12.25 10.853 10.71 11.188 8.7H14.803C15.138 10.71 16.8855 12.25 18.9905 12.25C21.333 12.25 23.2405 10.3425 23.2405 8C23.2405 5.6575 21.333 3.75 18.9905 3.75C16.9205 3.75 15.1955 5.2375 14.818 7.2H11.1705C10.7955 5.2375 9.06805 3.75 6.99805 3.75C4.65555 3.75 2.74805 5.6575 2.74805 8C2.74805 10.3425 4.65555 12.25 6.99805 12.25H7.00055ZM18.9905 5.25C20.508 5.25 21.7405 6.4825 21.7405 8C21.7405 9.5175 20.508 10.75 18.9905 10.75C17.473 10.75 16.2555 9.53 16.243 8.025C16.2455 8 16.2505 7.975 16.2505 7.9475C16.2505 7.9325 16.248 7.92 16.2455 7.905C16.2955 6.4325 17.5055 5.2475 18.9905 5.2475V5.25ZM7.00055 5.25C8.51805 5.25 9.75055 6.4825 9.75055 8C9.75055 9.5175 8.51805 10.75 7.00055 10.75C5.48305 10.75 4.25055 9.5175 4.25055 8C4.25055 6.4825 5.48305 5.25 7.00055 5.25ZM18.9905 19.75C16.9205 19.75 15.1955 21.2375 14.818 23.2H11.1705C10.7955 21.2375 9.06805 19.75 6.99805 19.75C4.65555 19.75 2.74805 21.6575 2.74805 24C2.74805 26.3425 4.65555 28.25 6.99805 28.25C9.10305 28.25 10.8505 26.71 11.1855 24.7H14.8005C15.1355 26.71 16.883 28.25 18.988 28.25C21.3305 28.25 23.238 26.3425 23.238 24C23.238 21.6575 21.3305 19.75 18.988 19.75H18.9905ZM7.00055 26.75C5.48305 26.75 4.25055 25.5175 4.25055 24C4.25055 22.4825 5.48305 21.25 7.00055 21.25C8.51805 21.25 9.75055 22.4825 9.75055 24C9.75055 25.5175 8.51805 26.75 7.00055 26.75ZM18.9905 26.75C17.483 26.75 16.2555 25.53 16.243 24.025C16.2455 24 16.2505 23.975 16.2505 23.9475C16.2505 23.9325 16.248 23.92 16.2455 23.905C16.2955 22.4325 17.5055 21.2475 18.9905 21.2475C20.4755 21.2475 21.7405 22.48 21.7405 23.9975C21.7405 25.515 20.508 26.7475 18.9905 26.7475V26.75ZM24.9905 11.75C22.9205 11.75 21.1955 13.2375 20.818 15.2H17.1705C16.7955 13.2375 15.068 11.75 12.998 11.75C10.6555 11.75 8.74805 13.6575 8.74805 16C8.74805 18.3425 10.6555 20.25 12.998 20.25C15.103 20.25 16.8505 18.71 17.1855 16.7H20.8005C21.1355 18.71 22.883 20.25 24.988 20.25C27.3305 20.25 29.238 18.3425 29.238 16C29.238 13.6575 27.3305 11.75 24.988 11.75H24.9905ZM13.0005 18.75C11.483 18.75 10.2505 17.5175 10.2505 16C10.2505 14.4825 11.483 13.25 13.0005 13.25C14.518 13.25 15.7505 14.4825 15.7505 16C15.7505 17.5175 14.518 18.75 13.0005 18.75ZM24.9905 18.75C23.483 18.75 22.2555 17.53 22.243 16.025C22.2455 16 22.2505 15.975 22.2505 15.9475C22.2505 15.9325 22.248 15.92 22.2455 15.905C22.2955 14.4325 23.5055 13.2475 24.9905 13.2475C26.4755 13.2475 27.7405 14.48 27.7405 15.9975C27.7405 17.515 26.508 18.7475 24.9905 18.7475V18.75ZM17.483 8C17.483 7.1675 18.158 6.49 18.993 6.49C19.828 6.49 20.503 7.165 20.503 8C20.503 8.835 19.828 9.51 18.993 9.51C18.158 9.51 17.483 8.835 17.483 8ZM14.538 15.97C14.538 16.8025 13.863 17.48 13.028 17.48C12.193 17.48 11.518 16.805 11.518 15.97C11.518 15.135 12.193 14.46 13.028 14.46C13.863 14.46 14.538 15.135 14.538 15.97ZM20.5105 24C20.5105 24.8325 19.8355 25.51 19.0005 25.51C18.1655 25.51 17.4905 24.835 17.4905 24C17.4905 23.165 18.1655 22.49 19.0005 22.49C19.8355 22.49 20.5105 23.165 20.5105 24Z" fill="url(#paint0_linear_405_3213)"/>
<defs>
<linearGradient id="paint0_linear_405_3213" x1="2.75055" y1="16" x2="29.2405" y2="16" gradientUnits="userSpaceOnUse">
<stop stop-color="#E240FB"/>
<stop offset="0.3" stop-color="#B00DF1"/>
<stop offset="0.7" stop-color="#604BF6"/>
<stop offset="1" stop-color="#22C2FC"/>
</linearGradient>
</defs>
</svg>
