<svg width="32" height="32" viewBox="0 0 32 32" fill="none" xmlns="http://www.w3.org/2000/svg">
<path d="M29.07 11.0428L16.565 23.0428C16.565 23.0428 16.5575 23.0478 16.5525 23.0528C16.55 23.0553 16.5475 23.0603 16.5425 23.0628C16.525 23.0778 16.5075 23.0878 16.49 23.1003C16.4725 23.1128 16.455 23.1278 16.4375 23.1378C16.415 23.1528 16.39 23.1628 16.365 23.1753C16.3475 23.1828 16.33 23.1928 16.3125 23.2003C16.285 23.2103 16.255 23.2178 16.225 23.2253C16.21 23.2278 16.195 23.2353 16.18 23.2378C16.135 23.2453 16.09 23.2503 16.045 23.2503C15.995 23.2503 15.945 23.2453 15.895 23.2353C15.88 23.2328 15.8625 23.2253 15.8475 23.2203C15.815 23.2103 15.7825 23.2028 15.75 23.1878C15.73 23.1803 15.7125 23.1678 15.695 23.1578C15.6675 23.1428 15.64 23.1303 15.615 23.1128C15.595 23.1003 15.58 23.0828 15.56 23.0678C15.54 23.0528 15.52 23.0378 15.5025 23.0203C15.5 23.0178 15.4975 23.0128 15.4925 23.0078C15.49 23.0053 15.485 23.0028 15.4825 22.9978L11.9375 18.9978C11.6625 18.6878 11.6925 18.2128 12.0025 17.9378C12.3125 17.6628 12.7875 17.6903 13.06 18.0003L16.0875 21.4153L28.03 9.95531C28.33 9.66781 28.8025 9.67781 29.09 9.97781C29.3775 10.2778 29.3675 10.7503 29.0675 11.0378L29.07 11.0428ZM25.25 17.5003V29.5003C25.25 29.9153 24.915 30.2503 24.5 30.2503H7.5C7.085 30.2503 6.75 29.9153 6.75 29.5003V7.50031C6.75 7.08531 7.085 6.75031 7.5 6.75031H9.73V5.88281C9.73 5.46781 10.065 5.13281 10.48 5.13281H12.7775C12.905 3.45781 14.31 2.13281 16.0175 2.13281C17.725 2.13281 19.13 3.45781 19.2575 5.13281H21.555C21.97 5.13281 22.305 5.46781 22.305 5.88281V6.75031H24.4975C24.9125 6.75031 25.2475 7.08531 25.2475 7.50031V11.5003C25.2475 11.9153 24.9125 12.2503 24.4975 12.2503C24.0825 12.2503 23.7475 11.9153 23.7475 11.5003V8.25031H22.305V9.50031C22.305 9.91531 21.97 10.2503 21.555 10.2503H10.48C10.065 10.2503 9.73 9.91531 9.73 9.50031V8.25031H8.25V28.7503H23.75V17.5003C23.75 17.0853 24.085 16.7503 24.5 16.7503C24.915 16.7503 25.25 17.0853 25.25 17.5003ZM11.23 8.75031H20.805V6.63281H18.4675C18.2425 6.63281 18.03 6.53281 17.8875 6.35781C17.745 6.18281 17.6875 5.95531 17.7325 5.73281C17.755 5.61781 17.7675 5.50031 17.7675 5.38281C17.7675 4.41781 16.9825 3.63281 16.0175 3.63281C15.0525 3.63281 14.2675 4.41781 14.2675 5.38281C14.2675 5.50031 14.28 5.61781 14.3025 5.73281C14.3475 5.95281 14.29 6.18281 14.1475 6.35781C14.005 6.53281 13.7925 6.63281 13.5675 6.63281H11.23V8.75031Z" fill="url(#paint0_linear_405_3223)"/>
<defs>
<linearGradient id="paint0_linear_405_3223" x1="6.75" y1="16.1928" x2="29.3" y2="16.1928" gradientUnits="userSpaceOnUse">
<stop stop-color="#E240FB"/>
<stop offset="0.3" stop-color="#B00DF1"/>
<stop offset="0.7" stop-color="#604BF6"/>
<stop offset="1" stop-color="#22C2FC"/>
</linearGradient>
</defs>
</svg>
