<svg width="33" height="33" viewBox="0 0 33 33" fill="none" xmlns="http://www.w3.org/2000/svg">
<path d="M17.3932 2.27793C17.2857 2.25043 17.1757 2.24543 17.0682 2.26543C16.8982 2.26043 16.7282 2.25293 16.5557 2.25293C16.3832 2.25293 16.2132 2.26043 16.0432 2.26543C15.9357 2.24543 15.8257 2.25043 15.7182 2.27793C8.25066 2.71293 2.30566 8.92293 2.30566 16.5004C2.30566 24.0779 8.40316 30.4454 16.0057 30.7354C16.0507 30.7429 16.0957 30.7504 16.1407 30.7504C16.1657 30.7504 16.1882 30.7454 16.2132 30.7429C16.3257 30.7454 16.4407 30.7504 16.5532 30.7504C16.6657 30.7504 16.7782 30.7429 16.8907 30.7404C16.9157 30.7429 16.9407 30.7504 16.9682 30.7504C17.0157 30.7504 17.0632 30.7454 17.1082 30.7354C21.0007 30.5829 24.6757 28.8454 27.2607 25.9054C29.5457 23.3054 30.8032 19.9654 30.8032 16.5004C30.8032 8.92293 24.8582 2.71293 17.3907 2.27793H17.3932ZM24.7907 15.7504C24.7107 13.6954 24.2632 11.6879 23.4907 9.82043C24.4657 9.40043 25.4032 8.88793 26.2957 8.28543C28.0207 10.3279 29.1157 12.9154 29.2807 15.7504H24.7907ZM3.83066 17.2504H8.32816C8.43066 19.3604 8.91816 21.4104 9.74066 23.3079C8.76566 23.7304 7.82316 24.2429 6.92816 24.8454C5.13816 22.7829 3.99566 20.1454 3.82816 17.2479L3.83066 17.2504ZM6.87566 8.21543C7.75816 8.81793 8.68316 9.33543 9.64566 9.76043C8.85816 11.6454 8.40066 13.6729 8.32066 15.7504H3.83066C3.99816 12.8829 5.11816 10.2679 6.87816 8.21543H6.87566ZM15.8057 28.8154C14.1657 27.5154 12.8182 25.9204 11.8182 24.1329C13.1007 23.7279 14.4382 23.4879 15.8057 23.4204V28.8154ZM15.8057 21.9179C14.2032 21.9904 12.6382 22.2779 11.1432 22.7729C10.3832 21.0429 9.93066 19.1754 9.82816 17.2504H15.8057V21.9179ZM9.82066 15.7504C9.90066 13.8604 10.3232 12.0204 11.0407 10.3079C12.5657 10.8279 14.1657 11.1329 15.8032 11.2104V15.7504H9.81816H9.82066ZM11.6932 8.94543C12.7057 7.06043 14.0982 5.37793 15.8057 4.02293V9.70793C14.3932 9.63543 13.0132 9.38043 11.6932 8.94543ZM19.6932 4.14293C21.8032 4.67793 23.7007 5.74293 25.2457 7.18293C24.4832 7.68043 23.6857 8.10543 22.8582 8.46043C22.0357 6.87543 20.9707 5.41543 19.6932 4.14293ZM21.4432 8.99043C20.1132 9.41293 18.7257 9.66043 17.3057 9.71793V4.02293C19.0282 5.38793 20.4282 7.08793 21.4432 8.99043ZM10.2832 8.40293C9.47066 8.04543 8.68316 7.61793 7.93316 7.12043C9.46566 5.71293 11.3407 4.67293 13.4182 4.14543C12.1557 5.40293 11.1007 6.84293 10.2832 8.40543V8.40293ZM10.3982 24.6579C11.2457 26.2229 12.3357 27.6604 13.6357 28.9079C11.5007 28.4054 9.57066 27.3679 7.99816 25.9429C8.76566 25.4429 9.56816 25.0129 10.4007 24.6579H10.3982ZM17.3057 28.8154V23.4154C18.6757 23.4754 20.0157 23.7104 21.3032 24.1104C20.3032 25.9054 18.9507 27.5104 17.3057 28.8154ZM22.7282 24.6304C23.5682 24.9854 24.3782 25.4129 25.1532 25.9154C23.5407 27.3854 21.5857 28.4104 19.4782 28.9079C20.7857 27.6529 21.8782 26.2079 22.7282 24.6329V24.6304ZM17.3057 21.9129V17.2504H23.2832C23.1807 19.1679 22.7332 21.0279 21.9782 22.7504C20.4782 22.2604 18.9107 21.9779 17.3057 21.9129ZM17.3057 15.7504V11.2179C18.9507 11.1554 20.5557 10.8629 22.0882 10.3554C22.7957 12.0529 23.2082 13.8779 23.2882 15.7504H17.3032H17.3057ZM26.2182 24.8179C25.3157 24.2129 24.3682 23.7004 23.3832 23.2804C24.2007 21.3904 24.6832 19.3504 24.7832 17.2504H29.2807C29.1157 20.0379 28.0457 22.6954 26.2182 24.8179Z" fill="url(#paint0_linear_289_4407)"/>
<defs>
<linearGradient id="paint0_linear_289_4407" x1="2.30566" y1="16.5004" x2="30.8057" y2="16.5004" gradientUnits="userSpaceOnUse">
<stop stop-color="#E240FB"/>
<stop offset="0.3" stop-color="#B00DF1"/>
<stop offset="0.7" stop-color="#604BF6"/>
<stop offset="1" stop-color="#22C2FC"/>
</linearGradient>
</defs>
</svg>
