<svg width="32" height="33" viewBox="0 0 32 33" fill="none" xmlns="http://www.w3.org/2000/svg">
<path d="M27.7877 9.13672C27.7877 9.13672 27.7877 9.13172 27.7877 9.12922C27.7877 9.10422 27.7827 9.07922 27.7802 9.05422C27.7802 9.03672 27.7802 9.01922 27.7752 9.00172C27.7752 8.99922 27.7752 8.99672 27.7752 8.99422C27.7752 8.98922 27.7752 8.98422 27.7727 8.97922C27.7677 8.95422 27.7577 8.93172 27.7502 8.90672C27.7452 8.88922 27.7402 8.86922 27.7327 8.84922C27.7327 8.84422 27.7302 8.84172 27.7277 8.83672C27.7177 8.81672 27.7052 8.79672 27.6952 8.77672C27.6852 8.75672 27.6752 8.73672 27.6627 8.71922C27.6627 8.71672 27.6577 8.71422 27.6577 8.71172C27.6452 8.69172 27.6277 8.67672 27.6152 8.65922C27.6002 8.64172 27.5902 8.62422 27.5752 8.60922C27.5752 8.60922 27.5702 8.60422 27.5677 8.60172C27.5502 8.58422 27.5302 8.56922 27.5102 8.55422C27.5077 8.55172 27.5027 8.54922 27.5002 8.54672C27.4877 8.53672 27.4777 8.52672 27.4652 8.51672C27.4627 8.51672 27.4577 8.51172 27.4552 8.50922C27.4377 8.49672 27.4152 8.48672 27.3952 8.47672C27.3877 8.47172 27.3777 8.46672 27.3702 8.46172C27.3602 8.45672 27.3502 8.44922 27.3402 8.44422C27.3352 8.44422 27.3302 8.43922 27.3252 8.43922C27.3077 8.43172 27.2877 8.42672 27.2677 8.42172C27.2602 8.42172 27.2527 8.41672 27.2452 8.41422C27.2302 8.40922 27.2152 8.40422 27.2002 8.39922C27.1952 8.39922 27.1877 8.39672 27.1827 8.39672C27.1802 8.39672 27.1777 8.39672 27.1752 8.39672L16.1377 6.39672C16.1177 6.39422 16.1002 6.39672 16.0802 6.39172C16.0552 6.38922 16.0302 6.38672 16.0027 6.38672C15.9777 6.38672 15.9552 6.38922 15.9327 6.39172C15.9127 6.39172 15.8902 6.39172 15.8702 6.39672L4.83266 8.39672C4.83266 8.39672 4.82766 8.39672 4.82516 8.39672C4.81766 8.39672 4.81266 8.39672 4.80766 8.40172C4.79516 8.40422 4.78516 8.40922 4.77266 8.41172C4.76266 8.41422 4.75016 8.41922 4.74016 8.42172C4.72016 8.42672 4.70016 8.43172 4.68266 8.43922C4.67766 8.43922 4.67266 8.44422 4.66766 8.44672C4.66516 8.44672 4.66266 8.44922 4.66016 8.45172C4.64266 8.45922 4.62766 8.46922 4.61266 8.47672C4.59266 8.48672 4.57266 8.49672 4.55266 8.50922C4.54766 8.51172 4.54516 8.51422 4.54266 8.51672C4.54016 8.51672 4.53516 8.52172 4.53266 8.52422C4.52016 8.53172 4.51016 8.54422 4.49766 8.55172C4.47766 8.56672 4.45766 8.58172 4.44016 8.59922C4.43766 8.60172 4.43516 8.60422 4.43266 8.60672C4.42266 8.61672 4.41516 8.62922 4.40516 8.63922C4.40016 8.64422 4.39766 8.64922 4.39266 8.65422C4.37766 8.67172 4.36016 8.68922 4.34766 8.70922C4.34766 8.71172 4.34266 8.71422 4.34266 8.71922C4.33266 8.73672 4.32516 8.75422 4.31516 8.77172C4.31516 8.77172 4.31516 8.77422 4.31516 8.77672C4.30516 8.79672 4.29266 8.81672 4.28266 8.83672C4.28266 8.84172 4.28016 8.84422 4.27766 8.84922C4.27016 8.86672 4.26516 8.88672 4.26016 8.90422C4.25266 8.92922 4.24266 8.95172 4.23766 8.97672C4.23766 8.98172 4.23766 8.98672 4.23516 8.99172C4.23516 8.99422 4.23516 8.99672 4.23516 8.99922C4.23266 9.01672 4.23516 9.03422 4.23016 9.05172C4.22766 9.07672 4.22266 9.10172 4.22266 9.12672C4.22266 9.12922 4.22266 9.13172 4.22266 9.13422V24.1342C4.22266 24.5267 4.52516 24.8442 4.90766 24.8767L15.8577 26.8667H15.8702C15.9152 26.8767 15.9602 26.8817 16.0052 26.8817C16.0502 26.8817 16.0952 26.8767 16.1402 26.8692L20.1402 26.1442C20.5477 26.0692 20.8177 25.6792 20.7452 25.2717C20.6702 24.8642 20.2827 24.5942 19.8727 24.6667L16.7577 25.2317V11.7567L26.2952 10.0292V23.5042L25.3552 23.6742C24.9477 23.7492 24.6777 24.1392 24.7502 24.5467C24.8152 24.9092 25.1327 25.1642 25.4877 25.1642C25.5327 25.1642 25.5777 25.1592 25.6227 25.1517L27.1777 24.8692C27.1777 24.8692 27.1827 24.8692 27.1852 24.8692C27.2152 24.8642 27.2427 24.8542 27.2702 24.8442C27.2902 24.8392 27.3102 24.8342 27.3277 24.8267C27.3527 24.8167 27.3752 24.8017 27.3977 24.7892C27.4177 24.7792 27.4377 24.7692 27.4577 24.7567C27.4777 24.7442 27.4952 24.7267 27.5127 24.7117C27.5302 24.6967 27.5502 24.6817 27.5677 24.6667C27.5852 24.6492 27.6002 24.6292 27.6152 24.6092C27.6302 24.5917 27.6452 24.5742 27.6577 24.5567C27.6727 24.5342 27.6827 24.5117 27.6952 24.4892C27.7052 24.4692 27.7177 24.4517 27.7277 24.4317C27.7377 24.4117 27.7427 24.3892 27.7502 24.3667C27.7577 24.3417 27.7677 24.3167 27.7727 24.2917C27.7777 24.2717 27.7777 24.2517 27.7802 24.2342C27.7852 24.2042 27.7902 24.1742 27.7902 24.1442C27.7902 24.1417 27.7902 24.1392 27.7902 24.1367V9.13672H27.7877ZM5.71266 10.0342L15.2502 11.7617V25.2367L5.71266 23.5017V10.0317V10.0342ZM16.0002 10.3742L9.16766 9.13672L16.0002 7.89922L22.8327 9.13672L16.0002 10.3742Z" fill="url(#paint0_linear_729_5312)"/>
<defs>
<linearGradient id="paint0_linear_729_5312" x1="4.21266" y1="16.6392" x2="27.7877" y2="16.6392" gradientUnits="userSpaceOnUse">
<stop stop-color="#E240FB"/>
<stop offset="0.3" stop-color="#B00DF1"/>
<stop offset="0.7" stop-color="#604BF6"/>
<stop offset="1" stop-color="#22C2FC"/>
</linearGradient>
</defs>
</svg>
