<svg width="32" height="33" viewBox="0 0 32 33" fill="none" xmlns="http://www.w3.org/2000/svg">
<path d="M27.25 29C27.25 29.415 26.915 29.75 26.5 29.75H3.5C3.085 29.75 2.75 29.415 2.75 29C2.75 28.585 3.085 28.25 3.5 28.25H26.5C26.915 28.25 27.25 28.585 27.25 29ZM25.9725 20C25.9725 21.3625 24.8625 22.4725 23.5 22.4725C22.1375 22.4725 21.0275 21.365 21.0275 20C21.0275 18.635 22.135 17.5275 23.5 17.5275C24.865 17.5275 25.9725 18.6375 25.9725 20ZM24.4725 20C24.4725 19.465 24.0375 19.0275 23.5 19.0275C22.9625 19.0275 22.5275 19.4625 22.5275 20C22.5275 20.5375 22.9625 20.9725 23.5 20.9725C24.0375 20.9725 24.4725 20.5375 24.4725 20ZM30.5375 19.1475V20.545C30.5375 20.895 30.295 21.2 29.9525 21.2775L28.355 21.6375C28.3075 21.765 28.255 21.8925 28.1975 22.015L29.0725 23.3975C29.26 23.695 29.2175 24.08 28.97 24.3275L27.9825 25.315C27.735 25.5625 27.3475 25.6075 27.05 25.4175L25.6675 24.5425C25.5425 24.6 25.4175 24.6525 25.29 24.7L24.9425 26.2475H26.5C26.915 26.2475 27.25 26.5825 27.25 26.9975C27.25 27.4125 26.915 27.7475 26.5 27.7475H3.5C3.085 27.7475 2.75 27.4125 2.75 26.9975C2.75 26.5825 3.085 26.2475 3.5 26.2475H4.75V13.7475H3.5C3.4425 13.7475 3.3875 13.74 3.335 13.7275C3.32 13.725 3.3075 13.7175 3.2925 13.715C3.2525 13.7025 3.215 13.69 3.18 13.6725C3.1625 13.665 3.1475 13.655 3.13 13.645C3.0975 13.6275 3.0675 13.605 3.0375 13.5825C3.0225 13.57 3.0075 13.56 2.995 13.5475C2.96 13.515 2.9275 13.48 2.9 13.44C2.895 13.435 2.89 13.43 2.885 13.425C2.885 13.425 2.885 13.4225 2.885 13.42C2.8625 13.3875 2.845 13.355 2.8275 13.32C2.8225 13.31 2.815 13.3 2.8125 13.29C2.8025 13.2675 2.7975 13.2425 2.79 13.22C2.7825 13.1975 2.7725 13.1725 2.7675 13.15C2.7675 13.14 2.7675 13.1275 2.7625 13.115C2.7575 13.0775 2.75 13.04 2.75 13C2.75 13 2.75 12.9975 2.75 12.995C2.75 12.9775 2.755 12.9625 2.755 12.945C2.755 12.915 2.7575 12.8825 2.765 12.8525C2.77 12.8275 2.7775 12.805 2.785 12.7825C2.7925 12.76 2.7975 12.735 2.8075 12.7125C2.8175 12.69 2.83 12.6675 2.84 12.6475C2.85 12.625 2.86 12.605 2.875 12.585C2.8875 12.565 2.905 12.545 2.92 12.5275C2.935 12.51 2.9475 12.49 2.965 12.4725C2.985 12.45 3.01 12.4325 3.035 12.4125C3.0475 12.4025 3.06 12.39 3.0725 12.38L14.5725 4.385C14.5725 4.385 14.5825 4.38 14.5875 4.3775C14.61 4.3625 14.635 4.35 14.6575 4.3375C14.6775 4.3275 14.6975 4.315 14.72 4.3075C14.74 4.3 14.7625 4.295 14.785 4.2875C14.81 4.28 14.835 4.27 14.8625 4.265C14.8825 4.26 14.9025 4.26 14.925 4.2575C14.9525 4.255 14.98 4.25 15.005 4.25C15.0275 4.25 15.05 4.2525 15.0725 4.255C15.0975 4.255 15.1225 4.2575 15.1475 4.2625C15.17 4.2675 15.1925 4.275 15.215 4.28C15.24 4.2875 15.265 4.2925 15.2875 4.3025C15.3075 4.31 15.325 4.32 15.345 4.33C15.37 4.3425 15.3975 4.355 15.42 4.3725C15.425 4.375 15.43 4.3775 15.4325 4.38L19.05 6.8975C19.39 7.135 19.475 7.6025 19.2375 7.9425C19.0925 8.1525 18.8575 8.265 18.62 8.265C18.4725 8.265 18.3225 8.2225 18.1925 8.13L15.0025 5.9125L5.895 12.25H24.1125L22.8325 11.36C22.4925 11.1225 22.4075 10.655 22.645 10.315C22.8825 9.975 23.35 9.89 23.69 10.1275L26.9325 12.3825C26.9475 12.3925 26.9575 12.405 26.97 12.415C26.9925 12.435 27.0175 12.4525 27.04 12.475C27.0575 12.4925 27.07 12.5125 27.085 12.53C27.1 12.55 27.1175 12.5675 27.13 12.5875C27.1425 12.6075 27.1525 12.63 27.165 12.65C27.1775 12.6725 27.1875 12.6925 27.1975 12.715C27.2075 12.7375 27.2125 12.7625 27.22 12.785C27.2275 12.8075 27.235 12.83 27.24 12.855C27.245 12.885 27.2475 12.915 27.25 12.9475C27.25 12.965 27.255 12.98 27.255 12.9975C27.255 12.9975 27.255 13 27.255 13.0025C27.255 13.04 27.25 13.0775 27.2425 13.1175C27.2425 13.1275 27.2425 13.14 27.2375 13.1525C27.2325 13.1775 27.2225 13.2 27.215 13.2225C27.2075 13.245 27.2025 13.27 27.1925 13.2925C27.1875 13.3025 27.1825 13.3125 27.1775 13.3225C27.16 13.3575 27.1425 13.3925 27.12 13.4225C27.12 13.4225 27.12 13.425 27.12 13.4275C27.115 13.4325 27.11 13.4375 27.105 13.4425C27.0775 13.48 27.045 13.5175 27.01 13.55C26.995 13.5625 26.9825 13.575 26.9675 13.585C26.9375 13.6075 26.9075 13.63 26.875 13.6475C26.8575 13.6575 26.8425 13.665 26.825 13.675C26.79 13.6925 26.75 13.705 26.7125 13.7175C26.6975 13.7225 26.685 13.7275 26.67 13.73C26.6175 13.7425 26.5625 13.75 26.505 13.75H25.015L25.295 14.99C25.4225 15.0375 25.55 15.09 25.6725 15.1475L27.055 14.2725C27.3525 14.085 27.7375 14.1275 27.9875 14.375L28.975 15.3625C29.2225 15.61 29.265 15.9975 29.0775 16.2925L28.2025 17.6775C28.26 17.8025 28.3125 17.9275 28.36 18.055L29.9575 18.415C30.3 18.4925 30.5425 18.795 30.5425 19.1475H30.5375ZM16.4625 20.545V19.1475C16.4625 18.7975 16.705 18.4925 17.0475 18.415L18.645 18.055C18.6925 17.9275 18.745 17.8 18.8025 17.6775L17.9275 16.2925C17.74 15.995 17.7825 15.61 18.03 15.3625L18.75 14.6425V13.75H11.25V26.25H18.75V25.05L18.03 24.33C17.7825 24.0825 17.74 23.695 17.9275 23.4L18.8025 22.0175C18.745 21.8925 18.6925 21.7675 18.645 21.64L17.0475 21.28C16.705 21.2025 16.4625 20.9 16.4625 20.5475V20.545ZM20.25 14.4625L21.3325 15.1475C21.4575 15.09 21.5825 15.0375 21.71 14.99L21.99 13.75H20.25V14.4625ZM6.25 26.25H9.75V13.75H6.25V26.25ZM22.0575 26.25L21.71 24.7025C21.5825 24.655 21.455 24.6025 21.3325 24.545L20.25 25.23V26.25H22.0575ZM29.0375 19.7475L27.6075 19.425C27.335 19.365 27.12 19.1575 27.0475 18.8875C26.965 18.5825 26.8425 18.29 26.685 18.0125C26.545 17.7725 26.5525 17.4725 26.7 17.2375L27.485 15.9975L27.345 15.8575L26.105 16.6425C25.87 16.7925 25.57 16.7975 25.33 16.6575C25.055 16.5 24.76 16.3775 24.4575 16.295C24.1875 16.2225 23.9825 16.0075 23.92 15.735L23.5975 14.305H23.4L23.0775 15.735C23.0175 16.0075 22.81 16.2225 22.54 16.295C22.235 16.3775 21.9425 16.5 21.6675 16.6575C21.4275 16.7975 21.1275 16.79 20.8925 16.6425L19.74 15.9125C19.6825 15.9325 19.625 15.945 19.5625 15.95L19.515 15.9975L20.3 17.2375C20.45 17.4725 20.455 17.7725 20.315 18.0125C20.155 18.2875 20.035 18.5825 19.9525 18.8875C19.88 19.1575 19.665 19.3625 19.3925 19.425L17.9625 19.7475V19.945L19.3925 20.2675C19.665 20.3275 19.88 20.535 19.9525 20.805C20.035 21.11 20.1575 21.4025 20.315 21.68C20.455 21.9225 20.4475 22.22 20.3 22.455L19.515 23.695L19.655 23.835L20.895 23.05C21.13 22.9 21.43 22.895 21.67 23.035C21.945 23.1925 22.24 23.315 22.545 23.3975C22.815 23.47 23.02 23.685 23.0825 23.9575L23.405 25.3875H23.6025L23.925 23.9575C23.985 23.685 24.1925 23.47 24.4625 23.3975C24.7675 23.315 25.06 23.1925 25.3375 23.035C25.58 22.895 25.8775 22.9025 26.1125 23.05L27.3525 23.835L27.4925 23.695L26.7075 22.455C26.5575 22.22 26.5525 21.92 26.6925 21.68C26.85 21.405 26.9725 21.11 27.055 20.805C27.1275 20.535 27.3425 20.33 27.615 20.2675L29.045 19.945V19.7475H29.0375Z" fill="url(#paint0_linear_729_5334)"/>
<defs>
<linearGradient id="paint0_linear_729_5334" x1="2.75" y1="17" x2="30.5375" y2="17" gradientUnits="userSpaceOnUse">
<stop stop-color="#E240FB"/>
<stop offset="0.3" stop-color="#B00DF1"/>
<stop offset="0.7" stop-color="#604BF6"/>
<stop offset="1" stop-color="#22C2FC"/>
</linearGradient>
</defs>
</svg>
