<svg width="32" height="32" viewBox="0 0 32 32" fill="none" xmlns="http://www.w3.org/2000/svg">
<path d="M30.1574 15.1308C30.1022 15.0065 30.0017 14.9114 29.8744 14.863C29.7481 14.8148 29.6105 14.8188 29.4879 14.8739L28.1977 15.4462C28.0805 15.4983 27.9884 15.5915 27.9382 15.7081L27.2746 17.2413L18.5801 9.76098C18.5548 9.73949 18.5303 9.72788 18.5157 9.72097L18.5128 9.71948C18.5128 9.71948 18.5105 9.71775 18.5093 9.71677C18.4957 9.70639 18.4731 9.68885 18.441 9.67576C16.6714 8.95495 15.4121 9.66514 14.667 10.3882C14.0418 10.9951 13.6328 11.7994 13.5154 12.6531C13.4137 13.3952 12.759 13.8952 11.622 14.099C11.1427 14.1854 10.7584 14.1807 10.4803 14.0849C10.2231 13.9964 10.0589 13.8314 9.97822 13.5805C9.90146 13.3416 9.94306 13.0513 10.0956 12.7631C10.5509 11.9004 10.7346 10.4608 10.8035 9.67947C10.8213 9.48061 10.8842 9.30029 10.9904 9.14367C11.3732 8.57947 12.3765 7.48047 14.795 6.45952C15.5611 6.13617 16.4728 5.98869 17.5043 6.0213C18.3382 6.04773 19.2514 6.19125 20.219 6.44766C21.9143 6.897 23.1686 7.53036 23.1818 7.53728C23.3001 7.59755 23.4351 7.60917 23.5616 7.57014L25.5226 6.96839C25.6521 6.92886 25.7583 6.84117 25.8217 6.72186C25.8851 6.6023 25.8982 6.46545 25.8583 6.3365C25.8185 6.20682 25.7303 6.1006 25.6102 6.03711C25.4906 5.97412 25.3535 5.96152 25.2247 6.00154L23.4554 6.5445C22.4278 6.0549 17.8633 4.06513 14.3994 5.52775C14.1307 5.64113 13.8675 5.76119 13.5957 5.89433L9.00713 6.0129L7.05133 5.29332C6.92431 5.24614 6.78664 5.25108 6.66383 5.30765C6.54053 5.36422 6.44669 5.4655 6.39964 5.59272C6.3526 5.71944 6.35805 5.85678 6.415 5.97955C6.4717 6.10232 6.57297 6.19545 6.69998 6.24239L8.74814 6.99605C8.80459 7.0168 8.86352 7.02718 8.92319 7.02718H8.9321L11.8067 6.95307C10.9208 7.59336 10.4217 8.17757 10.1505 8.57725C9.94677 8.87763 9.82668 9.21852 9.79326 9.59054C9.74299 10.1592 9.58428 11.5605 9.19827 12.292C8.91799 12.8223 8.85188 13.3895 9.01233 13.8895C9.16584 14.368 9.63009 15.1708 11.0119 15.1708C11.2551 15.1708 11.5205 15.1453 11.8015 15.0952C13.9445 14.7106 14.4246 13.4863 14.52 12.791C14.6066 12.1601 14.9102 11.5643 15.3742 11.1134C16.1232 10.3862 17.0026 10.2096 17.9883 10.5885L28.0231 19.222C28.4069 19.5522 28.4819 20.1169 28.1977 20.5351C27.93 20.9284 27.5239 21.1888 27.0542 21.2678C26.583 21.3461 26.1138 21.2332 25.7325 20.9496L18.6591 15.6895C18.5499 15.6085 18.4157 15.5747 18.2815 15.5947C18.148 15.6144 18.0299 15.6848 17.9497 15.793C17.8687 15.9015 17.8348 16.0349 17.8544 16.1685C17.8739 16.3022 17.9445 16.4202 18.0532 16.5008L25.0974 21.7391C25.5179 22.0519 25.6246 22.641 25.3406 23.0805C25.1247 23.4149 24.7892 23.6363 24.3965 23.7035C24.0011 23.7694 23.6109 23.6723 23.2971 23.4305L20.9694 21.6337L20.9474 21.6166H20.9469L17.5021 18.9577C17.3948 18.8747 17.2616 18.8383 17.1269 18.8556C16.993 18.8729 16.8736 18.9411 16.7907 19.0478C16.7078 19.1548 16.6716 19.2874 16.6887 19.4213C16.7058 19.5554 16.7744 19.6748 16.8813 19.7573L21.8261 23.574C22.046 23.7437 22.1854 23.9888 22.2191 24.264C22.2528 24.5391 22.1763 24.8104 22.0039 25.0278C21.6548 25.4667 21.0247 25.5544 20.5693 25.2269L15.6493 21.6865C15.422 21.5237 15.1045 21.5754 14.9416 21.8009C14.8624 21.9106 14.8307 22.0445 14.8522 22.1778C14.8738 22.3112 14.9463 22.4283 15.056 22.5071L17.8398 24.5102L17.8559 24.5302L17.8777 24.5374L18.334 24.8657C18.7022 25.1308 18.795 25.6369 18.5447 26.0198C18.3513 26.3234 18.0356 26.5259 17.6786 26.5758C17.3218 26.6255 16.9593 26.5141 16.684 26.27L15.3796 25.1999C15.6441 24.5782 15.5108 23.8623 15.03 23.3823L14.7891 23.1425C14.4947 22.8485 14.0869 22.6837 13.6486 22.6771C13.6449 22.2394 13.4721 21.8281 13.1614 21.518L12.9205 21.2777C12.6196 20.9773 12.2036 20.8125 11.7575 20.8116C11.7575 20.8096 11.7575 20.8074 11.7575 20.8054C11.7575 20.3617 11.5844 19.945 11.2702 19.6313L11.0293 19.3909C10.7069 19.0691 10.2481 18.9011 9.77295 18.9241C9.77246 18.4209 9.57785 17.9429 9.22402 17.5901L8.93309 17.2999C8.26259 16.6312 7.19568 16.5682 6.44619 17.1326L4.76177 15.7091C4.7323 15.6843 4.70011 15.6629 4.6657 15.6451L2.53906 14.5597C2.41823 14.4979 2.28056 14.4868 2.15181 14.5285C2.02306 14.57 1.91807 14.6595 1.85667 14.7798C1.79502 14.9001 1.78388 15.0371 1.82572 15.1658C1.86732 15.2945 1.9567 15.399 2.07728 15.4608L4.15168 16.5195L5.70686 17.8339L4.21754 19.32C3.47548 20.0604 3.47548 21.2646 4.21754 22.0049L4.50847 22.2952C4.86749 22.6534 5.34536 22.8505 5.85418 22.8505C5.98516 22.8505 6.12184 22.8339 6.26247 22.8008C6.31992 23.1398 6.47838 23.4503 6.7193 23.6909L7.00775 23.9786H7.00973C7.3175 24.2617 7.71515 24.4171 8.13706 24.4171C8.23758 24.4171 8.34059 24.406 8.44854 24.3835C8.50474 24.7251 8.6642 25.0386 8.90784 25.2814L9.149 25.522C9.46296 25.8355 9.88091 26.0084 10.3256 26.0084C10.518 26.0084 10.7081 25.9731 10.8936 25.9034C10.9706 26.1729 11.1127 26.4155 11.3108 26.6131L11.5993 26.9009H11.6012C11.909 27.1843 12.3067 27.3396 12.7286 27.3396C13.1735 27.3396 13.5914 27.1672 13.9054 26.854L14.7596 26.0018L16.0234 27.038C16.4334 27.4004 16.9601 27.6 17.5068 27.6H17.508C17.6125 27.6 17.7175 27.5928 17.8195 27.5785C18.4712 27.4876 19.0468 27.1188 19.3974 26.5687C19.5438 26.3451 19.6388 26.0951 19.6785 25.8335L19.9766 26.048C20.3309 26.3029 20.7478 26.4378 21.1824 26.4378C21.8158 26.4378 22.405 26.1529 22.7992 25.6567C23.0498 25.341 23.1976 24.9549 23.2273 24.5485C23.6495 24.7244 24.1167 24.7787 24.5676 24.7017C25.2344 24.5876 25.8271 24.1968 26.1933 23.6296C26.4508 23.2309 26.5533 22.7625 26.4904 22.2897C26.5838 22.3001 26.6727 22.3053 26.7591 22.3053C26.9131 22.3053 27.0693 22.2922 27.2231 22.2663C27.9689 22.1408 28.6129 21.7278 29.037 21.1038C29.6105 20.2605 29.4594 19.1224 28.6859 18.4569L28.0793 17.9352L28.7907 16.292L29.8999 15.8002C30.1552 15.6866 30.2706 15.3872 30.1572 15.1325L30.1574 15.1308ZM14.364 24.9366C14.3511 24.9457 14.333 24.9596 14.3157 24.9808C14.2922 25.0092 14.2785 25.0374 14.2684 25.0596L13.1886 26.1369C13.066 26.2592 12.9029 26.3266 12.7293 26.3266C12.5557 26.3266 12.3923 26.2592 12.2698 26.1369L12.0286 25.8963C11.9058 25.7738 11.8384 25.611 11.8384 25.4378C11.8384 25.3037 11.8813 25.1737 11.9627 25.0616L13.1621 23.8653C13.174 23.8534 13.1824 23.8425 13.1881 23.8349C13.4397 23.6175 13.842 23.6266 14.073 23.8576L14.3142 24.0975C14.5378 24.3205 14.5581 24.678 14.3645 24.9368L14.364 24.9366ZM12.4683 23.1148C12.4604 23.1205 12.4488 23.1294 12.4366 23.1415L11.3115 24.264C11.2868 24.2887 11.268 24.3134 11.2511 24.3351C11.2447 24.3435 11.2385 24.3516 11.2316 24.3598L10.7851 24.8049C10.54 25.049 10.1107 25.049 9.86605 24.8049L9.62489 24.5643C9.50208 24.4418 9.43473 24.2793 9.43473 24.1061C9.43473 23.9329 9.50233 23.7704 9.62489 23.6476L11.2843 21.9921C11.4069 21.8698 11.57 21.8026 11.7441 21.8026C11.9182 21.8026 12.0811 21.8698 12.2036 21.9921L12.4446 22.2324C12.6847 22.472 12.6941 22.8574 12.4681 23.1146L12.4683 23.1148ZM7.43734 22.9745C7.31453 22.8517 7.24693 22.6889 7.24693 22.516C7.24693 22.3431 7.31453 22.1803 7.43734 22.0575L9.39338 20.1058C9.63851 19.862 10.0681 19.862 10.3127 20.1058L10.5536 20.3462C10.6764 20.4689 10.744 20.6317 10.744 20.8049C10.744 20.9781 10.6764 21.1406 10.5536 21.2634L8.59735 23.2153C8.3443 23.4676 7.93204 23.4678 7.67825 23.2153L7.43734 22.9747V22.9745ZM8.50846 19.5577L6.48284 21.5786C6.31546 21.7458 6.09237 21.8379 5.85468 21.8379C5.61698 21.8379 5.39364 21.7458 5.22602 21.5786L4.93509 21.2883C4.76746 21.1211 4.67511 20.8983 4.67511 20.6611C4.67511 20.424 4.76746 20.2012 4.93509 20.0339L6.95922 18.0143C7.12685 17.847 7.34994 17.7551 7.58788 17.7551C7.82582 17.7551 8.04916 17.8473 8.21654 18.0143L8.50747 18.3045C8.85361 18.6496 8.85386 19.2121 8.50846 19.5577Z" fill="url(#paint0_linear_427_2510)"/>
<defs>
<linearGradient id="paint0_linear_427_2510" x1="1.80078" y1="16.3" x2="30.2008" y2="16.3" gradientUnits="userSpaceOnUse">
<stop stop-color="#E348FF"/>
<stop offset="0.3" stop-color="#B514F7"/>
<stop offset="0.7" stop-color="#625BFB"/>
<stop offset="1" stop-color="#00CCFF"/>
</linearGradient>
</defs>
</svg>
