<svg width="32" height="32" viewBox="0 0 32 32" fill="none" xmlns="http://www.w3.org/2000/svg">
<path fill-rule="evenodd" clip-rule="evenodd" d="M26.4194 13.1977C26.3144 12.7952 26.5544 12.3852 26.9544 12.2802L26.9519 12.2827C27.3544 12.1777 27.7644 12.4177 27.8694 12.8177C29.1544 17.7002 27.3619 22.7952 23.2994 25.7977C21.1144 27.4127 18.5619 28.1926 16.0319 28.1926C12.2744 28.1926 8.5619 26.4727 6.1619 23.2252C2.1469 17.7902 3.2994 10.1002 8.7344 6.08515C12.5794 3.24265 17.7694 2.90265 21.9544 5.21515C22.3169 5.41515 22.4494 5.87265 22.2469 6.23515C22.0444 6.59765 21.5894 6.72765 21.2269 6.52765C17.5544 4.49765 12.9994 4.79515 9.6244 7.29015C4.8544 10.8152 3.8419 17.5627 7.3669 22.3327C10.8919 27.1027 17.6394 28.1152 22.4094 24.5902C25.9744 21.9552 27.5469 17.4827 26.4194 13.1977ZM15.6564 18.2745C15.8352 18.4564 16.0547 18.5474 16.3149 18.5474C16.5644 18.5474 16.7813 18.4618 16.9656 18.2905C17.15 18.1193 17.2639 17.8999 17.3072 17.6324C17.3615 17.3541 17.4645 17.108 17.6163 16.8939C17.7681 16.6799 18.0284 16.4017 18.3971 16.0592C18.896 15.5776 19.2621 15.147 19.4955 14.7673C19.7284 14.3872 19.8449 13.9296 19.8449 13.3945C19.8449 12.5169 19.5387 11.7652 18.9261 11.1394C18.3132 10.5131 17.4374 10.2 16.2987 10.2C15.5829 10.2 14.9593 10.3605 14.4279 10.6816C13.8965 11.0026 13.4736 11.4039 13.1591 11.8855C13.0289 12.0996 13.0101 12.3296 13.1025 12.5758C13.1944 12.8219 13.3651 12.9985 13.6146 13.1055C13.8206 13.1911 14.0349 13.1965 14.2574 13.1216C14.4795 13.0467 14.6665 12.9022 14.8183 12.6882C14.9702 12.4741 15.1682 12.2948 15.4124 12.1501C15.6562 12.0058 15.9516 11.9337 16.2987 11.9337C16.8301 11.9337 17.245 12.0782 17.5434 12.3671C17.8414 12.6561 17.9905 13.0199 17.9905 13.4587C17.9905 13.8225 17.8738 14.1462 17.6404 14.4295C17.4074 14.7134 17.0686 15.0479 16.624 15.4332C16.2227 15.7863 15.9299 16.1288 15.7456 16.4605C15.5612 16.7923 15.4528 17.1829 15.4202 17.6324C15.3985 17.8785 15.4773 18.0925 15.6564 18.2745ZM15.3799 22.0231C15.6345 22.2744 15.9408 22.4 16.2987 22.4C16.6565 22.4 16.963 22.2744 17.2181 22.0231C17.4727 21.7714 17.6 21.4689 17.6 21.1158C17.6 20.7626 17.4727 20.4602 17.2181 20.2085C16.963 19.9572 16.6565 19.8316 16.2987 19.8316C15.9408 19.8316 15.6345 19.9572 15.3799 20.2085C15.1248 20.4602 14.9973 20.7626 14.9973 21.1158C14.9973 21.4689 15.1248 21.7714 15.3799 22.0231Z" fill="url(#paint0_linear_462_8072)"/>
<defs>
<linearGradient id="paint0_linear_462_8072" x1="3.76758" y1="15.9415" x2="28.2795" y2="15.9415" gradientUnits="userSpaceOnUse">
<stop stop-color="#E348FF"/>
<stop offset="0.3" stop-color="#B514F7"/>
<stop offset="0.7" stop-color="#625BFB"/>
<stop offset="1" stop-color="#00CCFF"/>
</linearGradient>
</defs>
</svg>
