<svg width="32" height="32" viewBox="0 0 32 32" fill="none" xmlns="http://www.w3.org/2000/svg">
<path d="M23.4324 25.2186L27.7531 16.528C28.1553 15.7164 28.0576 14.7695 27.4945 14.0594L22.1051 7.23991C21.4904 6.46215 20.5193 6 19.5081 6L10.7116 6.03382C9.79225 6.03382 8.97063 6.54105 8.56843 7.35263L4.24197 16.0376C3.86276 16.8041 3.93171 17.7171 4.43158 18.416L9.58541 25.6357C10.1944 26.4923 11.1942 26.9996 12.2571 26.9996C12.3146 26.9996 12.372 26.9996 12.4295 26.9996L21.3984 26.543C22.266 26.498 23.0417 25.9964 23.4266 25.2242L23.4324 25.2186ZM19.5139 7.26245C20.1229 7.26245 20.7089 7.54425 21.0824 8.01767L26.3397 14.6681L17.7499 14.6963C17.1409 14.6963 16.5549 14.4145 16.1814 13.9411L10.9299 7.29627L19.5139 7.26809V7.26245ZM10.6598 24.9312L5.48878 17.689C5.25895 17.3677 5.22448 16.945 5.40259 16.59L9.74629 7.85423L15.2966 14.8766C15.5551 15.2091 15.6068 15.6431 15.4172 16.0151L10.8667 25.1679L10.6656 24.9312H10.6598ZM12.0216 25.7427L12.1537 25.444L16.5663 16.5674C16.7502 16.1898 17.1352 15.9587 17.5603 15.9587L26.6155 15.9249L22.2718 24.6606C22.0936 25.0157 21.7374 25.2468 21.3352 25.2693L12.0216 25.7427Z" fill="url(#paint0_linear_405_3067)"/>
<path d="M7.72975 15.53C7.43097 15.5581 7.16093 15.761 7.03453 16.0541C6.78172 16.6233 6.83343 17.4067 7.16093 17.9083C7.31032 18.1394 7.54014 18.269 7.79869 18.269C7.81593 18.269 7.83317 18.269 7.85041 18.269C8.15492 18.2465 8.4422 18.0436 8.5801 17.7449C8.86164 17.1531 8.80418 16.3866 8.44795 15.8794C8.27558 15.6314 8.01128 15.5074 7.72975 15.53Z" fill="url(#paint1_linear_405_3067)"/>
<path d="M19.4167 12.1149C19.8936 12.1149 20.0717 11.8951 20.1407 11.7598C20.2039 11.6302 20.2728 11.354 19.9798 10.982C19.6121 10.5199 18.8594 10.1592 18.2619 10.1592C17.785 10.1592 17.6069 10.379 17.5379 10.5142C17.4747 10.6439 17.4058 10.92 17.6988 11.292C18.0665 11.7542 18.8192 12.1149 19.4167 12.1149Z" fill="url(#paint2_linear_405_3067)"/>
<path d="M9.94139 14.043C10.2459 14.0204 10.5389 13.8119 10.6768 13.5132C10.9584 12.9158 10.9009 12.1549 10.5332 11.6646C10.3551 11.4279 10.0965 11.3039 9.81499 11.3321C9.51047 11.3659 9.24617 11.5688 9.11402 11.8619C8.85547 12.4367 8.91867 13.2088 9.25766 13.6992C9.40705 13.919 9.63687 14.043 9.88393 14.043C9.90117 14.043 9.92415 14.043 9.94139 14.043Z" fill="url(#paint3_linear_405_3067)"/>
<path d="M18.8019 21.8425C18.8019 21.8425 18.8364 21.8425 18.8594 21.8425C19.4856 21.8087 20.1349 21.3747 20.4394 20.7942C20.5945 20.5012 20.583 20.1461 20.4107 19.8981C20.2613 19.6727 20.0027 19.5599 19.7097 19.5769C19.1064 19.6219 18.4457 20.0559 18.1354 20.6195C17.9745 20.9126 17.9803 21.2507 18.1411 21.5043C18.279 21.7185 18.5204 21.8425 18.7961 21.8425H18.8019Z" fill="url(#paint4_linear_405_3067)"/>
<path d="M22.0947 19.6676C22.0947 19.6676 22.1235 19.6676 22.1407 19.6676C22.767 19.6394 23.4105 19.2167 23.715 18.6418C23.8644 18.3544 23.8587 18.0049 23.6863 17.7513C23.5369 17.5259 23.2841 17.4075 22.9911 17.4244C22.3878 17.4583 21.7328 17.8922 21.4225 18.4502C21.2616 18.7376 21.2674 19.0758 21.4283 19.3294C21.5719 19.5492 21.8132 19.6732 22.0947 19.6732V19.6676Z" fill="url(#paint5_linear_405_3067)"/>
<path d="M16.4179 21.7803C15.8146 21.831 15.1481 22.2762 14.8379 22.8455C14.677 23.1385 14.6827 23.488 14.8493 23.7416C14.9872 23.9558 15.2228 24.0741 15.4929 24.0741C15.5158 24.0741 15.5388 24.0741 15.5618 24.0741C16.1881 24.029 16.8431 23.5894 17.1476 23.0033C17.3027 22.7046 17.2912 22.3495 17.1189 22.0959C16.9695 21.8761 16.7109 21.7577 16.4179 21.7859V21.7803Z" fill="url(#paint6_linear_405_3067)"/>
<path d="M10.3671 19.081C10.0626 19.1091 9.78676 19.3177 9.64887 19.622C9.39032 20.2081 9.43628 20.9972 9.76378 21.4988C9.91317 21.7299 10.1372 21.8538 10.3901 21.8538C10.4073 21.8538 10.4245 21.8538 10.4418 21.8538C10.752 21.8313 11.0508 21.6228 11.1944 21.3128C11.4817 20.7097 11.43 19.932 11.0738 19.4247C10.9014 19.1824 10.6429 19.0528 10.3671 19.081Z" fill="url(#paint7_linear_405_3067)"/>
<path d="M12.5049 14.7812C12.2004 14.8151 11.9131 15.0292 11.781 15.3279C11.5167 15.9141 11.5741 16.6975 11.9131 17.1878C12.0625 17.4076 12.2866 17.5316 12.5336 17.5316C12.5509 17.5316 12.5739 17.5316 12.5911 17.5316C12.9071 17.5091 13.2001 17.2892 13.3495 16.9849C13.6368 16.3762 13.5793 15.6097 13.2174 15.1138C13.045 14.8771 12.7864 14.7587 12.5107 14.7869L12.5049 14.7812Z" fill="url(#paint8_linear_405_3067)"/>
<defs>
<linearGradient id="paint0_linear_405_3067" x1="4" y1="16.4998" x2="27.9981" y2="16.4998" gradientUnits="userSpaceOnUse">
<stop stop-color="#E348FF"/>
<stop offset="0.3" stop-color="#B514F7"/>
<stop offset="0.7" stop-color="#625BFB"/>
<stop offset="1" stop-color="#00CCFF"/>
</linearGradient>
<linearGradient id="paint1_linear_405_3067" x1="6.875" y1="16.8982" x2="8.75846" y2="16.8982" gradientUnits="userSpaceOnUse">
<stop stop-color="#E348FF"/>
<stop offset="0.3" stop-color="#B514F7"/>
<stop offset="0.7" stop-color="#625BFB"/>
<stop offset="1" stop-color="#00CCFF"/>
</linearGradient>
<linearGradient id="paint2_linear_405_3067" x1="17.4824" y1="11.137" x2="20.1962" y2="11.137" gradientUnits="userSpaceOnUse">
<stop stop-color="#E348FF"/>
<stop offset="0.3" stop-color="#B514F7"/>
<stop offset="0.7" stop-color="#625BFB"/>
<stop offset="1" stop-color="#00CCFF"/>
</linearGradient>
<linearGradient id="paint3_linear_405_3067" x1="8.95508" y1="12.6855" x2="10.8543" y2="12.6855" gradientUnits="userSpaceOnUse">
<stop stop-color="#E348FF"/>
<stop offset="0.3" stop-color="#B514F7"/>
<stop offset="0.7" stop-color="#625BFB"/>
<stop offset="1" stop-color="#00CCFF"/>
</linearGradient>
<linearGradient id="paint4_linear_405_3067" x1="18.0176" y1="20.7089" x2="20.5483" y2="20.7089" gradientUnits="userSpaceOnUse">
<stop stop-color="#E348FF"/>
<stop offset="0.3" stop-color="#B514F7"/>
<stop offset="0.7" stop-color="#625BFB"/>
<stop offset="1" stop-color="#00CCFF"/>
</linearGradient>
<linearGradient id="paint5_linear_405_3067" x1="21.3047" y1="18.548" x2="23.8217" y2="18.548" gradientUnits="userSpaceOnUse">
<stop stop-color="#E348FF"/>
<stop offset="0.3" stop-color="#B514F7"/>
<stop offset="0.7" stop-color="#625BFB"/>
<stop offset="1" stop-color="#00CCFF"/>
</linearGradient>
<linearGradient id="paint6_linear_405_3067" x1="14.7207" y1="22.9272" x2="17.2565" y2="22.9272" gradientUnits="userSpaceOnUse">
<stop stop-color="#E348FF"/>
<stop offset="0.3" stop-color="#B514F7"/>
<stop offset="0.7" stop-color="#625BFB"/>
<stop offset="1" stop-color="#00CCFF"/>
</linearGradient>
<linearGradient id="paint7_linear_405_3067" x1="9.48242" y1="20.4655" x2="11.3797" y2="20.4655" gradientUnits="userSpaceOnUse">
<stop stop-color="#E348FF"/>
<stop offset="0.3" stop-color="#B514F7"/>
<stop offset="0.7" stop-color="#625BFB"/>
<stop offset="1" stop-color="#00CCFF"/>
</linearGradient>
<linearGradient id="paint8_linear_405_3067" x1="11.6152" y1="16.1564" x2="13.5321" y2="16.1564" gradientUnits="userSpaceOnUse">
<stop stop-color="#E348FF"/>
<stop offset="0.3" stop-color="#B514F7"/>
<stop offset="0.7" stop-color="#625BFB"/>
<stop offset="1" stop-color="#00CCFF"/>
</linearGradient>
</defs>
</svg>
