<svg width="32" height="33" viewBox="0 0 32 33" fill="none" xmlns="http://www.w3.org/2000/svg">
<path d="M28.5 16.2498H24.25V7.99977C24.25 7.99977 24.2475 7.97727 24.2475 7.96727C24.2475 7.93977 24.2425 7.91477 24.24 7.88727C24.2375 7.86477 24.2325 7.83977 24.2275 7.81727C24.2225 7.79477 24.215 7.77227 24.205 7.74977C24.1975 7.72727 24.1875 7.70227 24.1775 7.68227C24.1675 7.65977 24.155 7.63977 24.145 7.61977C24.1325 7.59977 24.12 7.57727 24.105 7.55977C24.09 7.53977 24.075 7.52227 24.06 7.50477C24.0425 7.48727 24.0275 7.46977 24.01 7.45227C23.9925 7.43727 23.975 7.42227 23.955 7.40727C23.9325 7.38977 23.9125 7.37477 23.89 7.36227C23.88 7.35727 23.8725 7.34977 23.8625 7.34477L18.3625 4.34477C18.3625 4.34477 18.3575 4.34477 18.355 4.34227C18.33 4.32977 18.3025 4.31977 18.275 4.30977C18.255 4.30227 18.2375 4.29227 18.2175 4.28727C18.1975 4.28227 18.1775 4.27977 18.155 4.27477C18.1275 4.26977 18.1025 4.26227 18.075 4.25977C18.0525 4.25977 18.0275 4.25977 18.0025 4.25977C17.9775 4.25977 17.955 4.25977 17.93 4.25977C17.9025 4.26227 17.875 4.26977 17.85 4.27477C17.83 4.27977 17.8075 4.28227 17.7875 4.28727C17.7675 4.29227 17.7475 4.30227 17.7275 4.30977C17.7 4.31977 17.675 4.32977 17.65 4.34227C17.65 4.34227 17.645 4.34227 17.6425 4.34477L12.1425 7.34477C12.1425 7.34477 12.125 7.35727 12.115 7.36227C12.0925 7.37727 12.07 7.39227 12.05 7.40727C12.0325 7.42227 12.0125 7.43477 11.995 7.45227C11.9775 7.46977 11.96 7.48727 11.945 7.50477C11.93 7.52227 11.9125 7.54227 11.9 7.55977C11.885 7.57977 11.8725 7.59977 11.86 7.61977C11.8475 7.63977 11.8375 7.65977 11.8275 7.68227C11.8175 7.70477 11.8075 7.72727 11.8 7.74977C11.7925 7.77227 11.785 7.79477 11.7775 7.81727C11.7725 7.83977 11.7675 7.86227 11.765 7.88727C11.76 7.91477 11.7575 7.93977 11.7575 7.96727C11.7575 7.97727 11.755 7.98977 11.755 7.99977V12.2498H3.5C3.085 12.2498 2.75 12.5848 2.75 12.9998V26.9998C2.75 27.4148 3.085 27.7498 3.5 27.7498H12.5C12.915 27.7498 13.25 27.4148 13.25 26.9998V13.7498H15.75V26.9998C15.75 27.4148 16.085 27.7498 16.5 27.7498H20.5C20.915 27.7498 21.25 27.4148 21.25 26.9998V17.7498H22.75V26.9998C22.75 27.4148 23.085 27.7498 23.5 27.7498H28.5C28.915 27.7498 29.25 27.4148 29.25 26.9998V16.9998C29.25 16.5848 28.915 16.2498 28.5 16.2498ZM11.75 26.2498H4.25V13.7498H11.75V26.2498ZM20.5 16.2498C20.085 16.2498 19.75 16.5848 19.75 16.9998V26.2498H17.25V12.9998C17.25 12.5848 16.915 12.2498 16.5 12.2498H13.25V8.44477L18 5.85477L22.75 8.44477V16.2498H20.5ZM27.75 17.7498V26.2498H24.25V17.7498H27.75Z" fill="url(#paint0_linear_729_5319)"/>
<defs>
<linearGradient id="paint0_linear_729_5319" x1="2.75" y1="16.0023" x2="29.25" y2="16.0023" gradientUnits="userSpaceOnUse">
<stop stop-color="#E240FB"/>
<stop offset="0.3" stop-color="#B00DF1"/>
<stop offset="0.7" stop-color="#604BF6"/>
<stop offset="1" stop-color="#22C2FC"/>
</linearGradient>
</defs>
</svg>
