<svg width="32" height="32" viewBox="0 0 32 32" fill="none" xmlns="http://www.w3.org/2000/svg">
<path d="M24.575 15.3375C25.96 14.39 26.87 12.8 26.87 11C26.87 8.105 24.515 5.75 21.62 5.75C18.725 5.75 16.37 8.105 16.37 11C16.37 12.8 17.28 14.39 18.665 15.3375C17.65 15.7575 16.7425 16.3875 15.9975 17.175C15.2525 16.39 14.345 15.7575 13.33 15.3375C14.715 14.39 15.625 12.8 15.625 11C15.625 8.105 13.27 5.75 10.375 5.75C7.48 5.75 5.125 8.105 5.125 11C5.125 12.8 6.035 14.39 7.42 15.3375C4.7425 16.445 2.8175 19.0125 2.64 22.04C2.63 22.0875 2.625 22.1375 2.625 22.1875V27.5C2.625 27.915 2.96 28.25 3.375 28.25H22.4975C22.9125 28.25 23.2475 27.915 23.2475 27.5C23.2475 27.085 22.9125 26.75 22.4975 26.75H18.125V22.5C18.125 20.985 17.685 19.57 16.93 18.3725C18.075 17.0725 19.7525 16.25 21.6175 16.25C25.065 16.25 27.8675 19.0525 27.8675 22.5V27.5C27.8675 27.915 28.2025 28.25 28.6175 28.25C29.0325 28.25 29.3675 27.915 29.3675 27.5V22.5C29.3675 19.2725 27.3825 16.5 24.5725 15.3375H24.575ZM6.6275 11C6.6275 8.9325 8.31 7.25 10.3775 7.25C12.445 7.25 14.1275 8.9325 14.1275 11C14.1275 13.0675 12.445 14.75 10.3775 14.75C8.31 14.75 6.6275 13.0675 6.6275 11ZM10.3775 16.25C12.2425 16.25 13.92 17.0725 15.065 18.3725C14.3875 19.4475 13.965 20.6975 13.885 22.0375C13.875 22.085 13.87 22.135 13.87 22.185V26.7475H4.1275V22.4975C4.1275 19.05 6.93 16.2475 10.3775 16.2475V16.25ZM16.6275 22.5V26.75H15.37V22.5C15.37 21.5225 15.5975 20.595 15.9975 19.77C16.4 20.595 16.625 21.52 16.625 22.5H16.6275ZM17.8725 11C17.8725 8.9325 19.555 7.25 21.6225 7.25C23.69 7.25 25.3725 8.9325 25.3725 11C25.3725 13.0675 23.69 14.75 21.6225 14.75C19.555 14.75 17.8725 13.0675 17.8725 11Z" fill="url(#paint0_linear_424_2479)"/>
<defs>
<linearGradient id="paint0_linear_424_2479" x1="2.6275" y1="17" x2="29.3725" y2="17" gradientUnits="userSpaceOnUse">
<stop stop-color="#E240FB"/>
<stop offset="0.3" stop-color="#B00DF1"/>
<stop offset="0.7" stop-color="#604BF6"/>
<stop offset="1" stop-color="#22C2FC"/>
</linearGradient>
</defs>
</svg>
