<svg width="32" height="32" viewBox="0 0 32 32" fill="none" xmlns="http://www.w3.org/2000/svg">
<path fill-rule="evenodd" clip-rule="evenodd" d="M30.2012 25.4512V11.4512V6.45117C30.2012 6.03617 29.8662 5.70117 29.4512 5.70117H2.45117C2.03617 5.70117 1.70117 6.03617 1.70117 6.45117V11.4512V17.4512C1.70117 17.8662 2.03617 18.2012 2.45117 18.2012C2.86617 18.2012 3.20117 17.8662 3.20117 17.4512V12.2012H28.7012V24.7012H3.20117V23.4512C3.20117 23.0362 2.86617 22.7012 2.45117 22.7012C2.03617 22.7012 1.70117 23.0362 1.70117 23.4512V25.4512C1.70117 25.8662 2.03617 26.2012 2.45117 26.2012H29.4512C29.8662 26.2012 30.2012 25.8662 30.2012 25.4512ZM28.7012 10.7012V7.20117H3.20117V10.7012H28.7012ZM11.0198 18.5423C11.3123 18.2498 11.7873 18.2498 12.0798 18.5423V18.5373L13.7723 20.2298L19.9648 14.0198C20.2573 13.7273 20.7323 13.7273 21.0248 14.0198C21.3173 14.3123 21.3173 14.7873 21.0248 15.0798L14.3023 21.8198C14.2798 21.8423 14.2573 21.8598 14.2323 21.8773C14.2249 21.8826 14.2183 21.8883 14.212 21.8939C14.2033 21.9016 14.1949 21.909 14.1848 21.9148C14.1598 21.9323 14.1323 21.9448 14.1048 21.9573C14.0898 21.9673 14.0723 21.9773 14.0548 21.9848C14.0248 21.9973 13.9948 22.0048 13.9648 22.0123C13.9584 22.0141 13.9523 22.0163 13.9463 22.0184C13.936 22.0221 13.9259 22.0257 13.9148 22.0273C13.8673 22.0373 13.8198 22.0423 13.7723 22.0423C13.7248 22.0423 13.6773 22.0398 13.6298 22.0298C13.6117 22.0278 13.592 22.0209 13.5733 22.0144C13.5687 22.0128 13.5642 22.0112 13.5598 22.0098C13.5508 22.0068 13.5418 22.0046 13.5328 22.0024C13.5193 21.9991 13.5058 21.9958 13.4923 21.9898C13.4773 21.9838 13.4623 21.9751 13.4473 21.9664C13.4373 21.9606 13.4273 21.9548 13.4173 21.9498C13.4147 21.9487 13.412 21.9475 13.4094 21.9464C13.3939 21.9399 13.3772 21.9329 13.3623 21.9223C13.3482 21.9145 13.3362 21.9038 13.3242 21.8932C13.317 21.8868 13.3098 21.8804 13.3023 21.8748C13.2957 21.8691 13.2883 21.8634 13.2808 21.8576C13.2685 21.8481 13.2557 21.8382 13.2448 21.8273L11.0198 19.6023C10.7273 19.3098 10.7273 18.8348 11.0198 18.5423Z" fill="url(#paint0_linear_424_2473)"/>
<defs>
<linearGradient id="paint0_linear_424_2473" x1="1.70117" y1="15.9512" x2="30.2012" y2="15.9512" gradientUnits="userSpaceOnUse">
<stop stop-color="#E348FF"/>
<stop offset="0.3" stop-color="#B514F7"/>
<stop offset="0.7" stop-color="#625BFB"/>
<stop offset="1" stop-color="#00CCFF"/>
</linearGradient>
</defs>
</svg>
