<svg width="32" height="32" viewBox="0 0 32 32" fill="none" xmlns="http://www.w3.org/2000/svg">
<path d="M24.8644 20.1354C25.1569 20.4279 25.1569 20.9029 24.8644 21.1954L16.5294 29.5304C16.3819 29.6779 16.1919 29.7504 15.9994 29.7504C15.8069 29.7504 15.6144 29.6779 15.4694 29.5304L2.46937 16.5304C2.17687 16.2379 2.17687 15.7629 2.46937 15.4704C2.76187 15.1779 3.23687 15.1779 3.52937 15.4704L9.15937 21.1004L16.2994 13.9604L13.8694 11.5304C13.5769 11.2379 13.5769 10.7629 13.8694 10.4704C14.1619 10.1779 14.6369 10.1779 14.9294 10.4704L17.7794 13.3204C17.7994 13.3404 17.8119 13.3604 17.8294 13.3829C17.8494 13.4004 17.8719 13.4129 17.8919 13.4329C18.1844 13.7254 18.1844 14.2004 17.8919 14.4929L10.2219 22.1629L15.9994 27.9404L23.8019 20.1379C24.0944 19.8454 24.5694 19.8454 24.8619 20.1379L24.8644 20.1354ZM29.5294 15.4704L16.5294 2.47035C16.2369 2.17785 15.7619 2.17785 15.4694 2.47035L7.16437 10.7754C6.98187 10.9579 6.91187 11.2129 6.95937 11.4479C6.95937 11.4504 6.95937 11.4529 6.95937 11.4554C6.96938 11.5004 6.98187 11.5429 6.99937 11.5854C6.99937 11.5854 7.00187 11.5904 7.00187 11.5929C7.03937 11.6804 7.09187 11.7629 7.16187 11.8354L9.96687 14.6404C10.1144 14.7879 10.3044 14.8604 10.4969 14.8604C10.6894 14.8604 10.8819 14.7879 11.0269 14.6404C11.3194 14.3479 11.3194 13.8729 11.0269 13.5804L8.75187 11.3054L15.9969 4.06035L24.4094 12.4729L16.6344 20.2479C16.3419 20.5403 16.3419 21.0154 16.6344 21.3079C16.7819 21.4554 16.9719 21.5279 17.1644 21.5279C17.3569 21.5279 17.5494 21.4554 17.6944 21.3079L25.4694 13.5329L28.4669 16.5304C28.6144 16.6779 28.8044 16.7504 28.9969 16.7504C29.1894 16.7504 29.3819 16.6779 29.5269 16.5304C29.8194 16.2379 29.8194 15.7629 29.5269 15.4704H29.5294Z" fill="url(#paint0_linear_424_2492)"/>
<defs>
<linearGradient id="paint0_linear_424_2492" x1="2.24938" y1="16.0004" x2="29.7494" y2="16.0004" gradientUnits="userSpaceOnUse">
<stop stop-color="#E240FB"/>
<stop offset="0.3" stop-color="#B00DF1"/>
<stop offset="0.7" stop-color="#604BF6"/>
<stop offset="1" stop-color="#22C2FC"/>
</linearGradient>
</defs>
</svg>
