<svg width="32" height="33" viewBox="0 0 32 33" fill="none" xmlns="http://www.w3.org/2000/svg">
<path d="M21.51 12.25C21.085 12.25 20.6675 12.2825 20.26 12.345V10.005C20.26 9.885 20.23 9.7725 20.18 9.6725C19.6775 7.77 14.885 7.25 11.9875 7.25C8.9275 7.25 3.75 7.83 3.75 10.005V13.375V17.3725V21.37V25.355C3.75 27.575 7.895 28.7375 11.9875 28.7375C14.3475 28.7375 16.575 28.36 18.095 27.705C18.2025 27.66 18.29 27.59 18.36 27.5075C18.3675 27.5 18.3725 27.4925 18.3775 27.485C18.4 27.4575 18.4225 27.4275 18.44 27.3975C18.445 27.3925 18.45 27.3875 18.4525 27.38C18.4625 27.3625 18.4675 27.345 18.475 27.33C18.4825 27.3125 18.4925 27.295 18.4975 27.2775C18.5125 27.24 18.5225 27.2 18.5325 27.16C18.5325 27.1575 18.5325 27.155 18.5325 27.1525C18.5925 26.845 18.4575 26.52 18.1725 26.3575C16.0675 25.1575 14.76 22.91 14.76 20.49C14.76 16.7675 17.7875 13.74 21.51 13.74C25.2325 13.74 28.26 16.7675 28.26 20.49C28.26 24.2125 25.485 27.0025 21.945 27.225C21.5325 27.2525 21.2175 27.6075 21.245 28.02C21.27 28.4175 21.6 28.7225 21.9925 28.7225C22.0075 28.7225 22.025 28.7225 22.04 28.7225C26.37 28.4475 29.76 24.8325 29.76 20.49C29.76 16.1475 26.06 12.24 21.51 12.24V12.25ZM7.225 9.2275C8.535 8.92 10.225 8.75 11.9875 8.75C13.75 8.75 15.44 8.92 16.75 9.2275C18.075 9.54 18.54 9.8725 18.6825 10.0075C18.515 10.17 17.9825 10.495 16.75 10.7825C15.44 11.09 13.75 11.26 11.9875 11.26C10.225 11.26 8.535 11.09 7.225 10.7825C5.9925 10.4925 5.4625 10.17 5.2925 10.0075C5.435 9.87 5.8975 9.5375 7.225 9.2275ZM5.25 19.4075C6.82 20.3 9.415 20.76 11.9875 20.76C12.4175 20.76 12.845 20.7425 13.2675 20.7175C13.29 21.5675 13.44 22.3975 13.7125 23.1825C13.1525 23.23 12.575 23.2575 11.9875 23.2575C7.81 23.2575 5.2525 22.04 5.25 21.3775V19.405V19.4075ZM13.3625 19.21C12.91 19.24 12.4525 19.2625 11.9875 19.2625C7.81 19.2625 5.2525 18.045 5.25 17.3825V15.41C6.82 16.3025 9.415 16.7625 11.9875 16.7625C12.7475 16.7625 13.4975 16.7225 14.22 16.645C13.8025 17.4325 13.5075 18.2975 13.3625 19.21ZM16.1675 26.78C14.9725 27.0825 13.52 27.25 11.99 27.25C7.8125 27.25 5.2525 26.0325 5.2525 25.3675V23.4075C6.8225 24.3 9.4175 24.76 11.99 24.76C12.8075 24.76 13.605 24.7125 14.3725 24.625C14.84 25.435 15.4475 26.165 16.1675 26.78ZM15.405 14.9575C14.3625 15.155 13.1875 15.2625 11.9875 15.2625C7.81 15.2625 5.2525 14.045 5.25 13.3825V11.7075C7.015 12.5075 9.965 12.7625 11.9875 12.7625C14.01 12.7625 16.9975 12.505 18.76 11.69V12.725C17.4625 13.185 16.3125 13.96 15.405 14.96V14.9575Z" fill="url(#paint0_linear_729_5326)"/>
<defs>
<linearGradient id="paint0_linear_729_5326" x1="3.75" y1="18" x2="29.76" y2="18" gradientUnits="userSpaceOnUse">
<stop stop-color="#E240FB"/>
<stop offset="0.3" stop-color="#B00DF1"/>
<stop offset="0.7" stop-color="#604BF6"/>
<stop offset="1" stop-color="#22C2FC"/>
</linearGradient>
</defs>
</svg>
