<svg width="175" height="58" viewBox="0 0 175 58" fill="none" xmlns="http://www.w3.org/2000/svg">
<path d="M60.9924 36.0628C59.2766 37.7471 56.8254 38.6204 54.2516 38.6204C51.6778 38.6204 49.2879 37.7471 47.5108 36.0628C45.6724 34.3161 44.8145 31.8833 44.8145 29.5752C44.8145 27.2671 45.6724 24.8342 47.5108 23.0876C49.2266 21.4033 51.6778 20.53 54.2516 20.53C56.8254 20.53 59.2153 21.4033 60.9924 23.0876C62.8309 24.8342 63.6888 27.2671 63.6888 29.5752C63.6888 31.8833 62.8309 34.3161 60.9924 36.0628ZM50.8812 26.269C49.962 27.2047 49.533 28.4523 49.533 29.7C49.533 31.2595 50.2684 32.3199 50.8812 32.9438C51.6778 33.7547 52.8422 34.3161 54.3129 34.3161C55.8449 34.3161 56.948 33.7547 57.7446 32.9438C58.5412 32.1328 59.0928 30.9476 59.0928 29.6376C59.0928 28.2652 58.48 27.08 57.7446 26.3314C56.8254 25.3957 55.4772 24.959 54.3129 24.959C53.0873 24.8966 51.8004 25.3333 50.8812 26.269ZM70.3071 44.1723H66.2013V26.6433H70.3071V27.8909C71.0424 26.9552 72.1455 26.2066 73.8 26.2066C75.5772 26.2066 76.9253 26.9552 77.8445 27.8909C78.7637 28.8266 79.5604 30.3861 79.5604 32.3823C79.5604 34.3161 78.825 35.8757 77.722 36.9985C76.4351 38.2461 74.9644 38.6204 73.8 38.6204C73.0647 38.6204 71.5327 38.4957 70.2458 37.1233V44.1723H70.3071ZM70.9811 30.5733C70.4909 31.0723 70.1845 31.8209 70.1845 32.5071C70.1845 33.1933 70.5522 33.8795 70.9811 34.3785C71.4714 34.8776 72.1455 35.1271 72.8195 35.1271C73.5549 35.1271 74.1677 34.8152 74.658 34.3785C75.0869 33.9419 75.4546 33.2557 75.4546 32.5071C75.4546 31.8833 75.1482 31.1347 74.658 30.5733C74.229 30.0742 73.5549 29.8247 72.8195 29.8247C72.1455 29.7623 71.4714 30.0742 70.9811 30.5733ZM94.1451 33.1933H85.6271C85.6271 33.8171 85.8722 34.628 86.3625 35.1271C86.6076 35.3766 87.0978 35.6885 88.017 35.6885C88.1396 35.6885 88.8137 35.6885 89.3652 35.3766C89.6103 35.2519 89.9167 34.9399 90.1006 34.628H94.0225C93.8387 35.2519 93.471 36.1876 92.6744 36.9985C91.8164 37.8095 90.5295 38.6204 88.017 38.6204C86.485 38.6204 84.7079 38.3085 83.2985 36.8738C82.5631 36.1252 81.6439 34.6904 81.6439 32.5071C81.6439 30.5733 82.3793 29.0138 83.3598 28.0157C84.279 27.08 85.811 26.3314 88.017 26.3314C89.3652 26.3314 91.0811 26.6433 92.4292 27.8909C94.0225 29.4504 94.2676 31.4466 94.2676 32.7566V33.1933H94.1451ZM90.407 30.8228C90.2844 30.3861 90.0393 29.8871 89.7329 29.5752C89.1814 29.0138 88.446 28.9514 88.0783 28.9514C87.4042 28.9514 86.8527 29.1385 86.4238 29.5752C86.1174 29.8871 85.8722 30.3238 85.811 30.8228H90.407ZM96.2286 26.6433H100.334V28.078C101.437 26.5809 102.969 26.3938 103.95 26.3938C105.114 26.3938 106.401 26.7057 107.32 27.6414C108.301 28.6395 108.362 29.6376 108.362 30.8852V38.2461H104.256V32.3823C104.256 31.6961 104.256 30.698 103.766 30.1366C103.398 29.7 102.847 29.6376 102.479 29.6376C101.866 29.6376 101.315 29.8871 100.947 30.199C100.518 30.5733 100.273 31.3219 100.273 32.0704V38.3085H96.1673V26.6433H96.2286ZM115.348 32.5071V38.2461H110.936V20.9042H117.983C119.454 20.9042 120.986 21.2162 122.273 22.4638C123.621 23.7738 123.866 25.2085 123.866 26.6433C123.866 28.0157 123.682 29.6376 122.334 30.9476C120.986 32.2576 119.454 32.4447 118.106 32.4447H115.348V32.5071ZM115.348 28.889H116.819C117.248 28.889 118.167 28.8266 118.657 28.3276C119.209 27.8909 119.209 27.1423 119.209 26.7681C119.209 26.3314 119.147 25.7076 118.718 25.2085C118.228 24.6471 117.37 24.5847 116.819 24.5847H115.287V28.889H115.348ZM134.1 26.6433H138.206V38.2461H134.1V36.9985C133.181 38.3085 131.649 38.6828 130.546 38.6828C129.32 38.6828 127.788 38.3085 126.44 36.8114C125.337 35.6261 124.785 34.3161 124.785 32.5695C124.785 30.3861 125.643 28.8266 126.562 27.8909C127.543 26.8928 129.014 26.269 130.668 26.269C132.507 26.269 133.61 27.2047 134.1 27.7661V26.6433ZM129.81 30.5109C129.259 31.0723 129.014 31.8209 129.014 32.3823C129.014 33.0685 129.32 33.7547 129.81 34.2538C130.239 34.6904 130.975 35.0023 131.649 35.0023C132.323 35.0023 132.997 34.6904 133.487 34.1914C133.855 33.8171 134.222 33.2557 134.222 32.3199C134.222 31.7585 134.1 31.0723 133.426 30.4485C133.058 30.0742 132.445 29.7 131.587 29.7C131.036 29.7623 130.362 29.9495 129.81 30.5109ZM145.927 36.6866L140.412 26.6433H145.13L148.194 32.5695L151.136 26.6433H155.793L146.724 44.1723H142.128L145.927 36.6866ZM169.642 38.2461H165.537V36.9985C164.372 38.4957 162.902 38.6828 162.105 38.6828C160.45 38.6828 159.163 38.1214 158.122 37.0609C156.957 35.938 156.283 34.2538 156.283 32.4447C156.283 30.4485 157.08 28.889 158.122 27.8285C159.225 26.7681 160.757 26.269 162.166 26.269C163.698 26.269 164.801 26.9552 165.537 27.7661V19.3447H169.642V38.2461ZM164.801 34.4409C165.353 33.9419 165.659 33.1933 165.659 32.4447C165.659 31.8209 165.292 31.01 164.924 30.5733C164.495 30.0742 163.821 29.8247 163.085 29.8247C162.227 29.8247 161.615 30.199 161.247 30.5733C160.818 31.01 160.45 31.7585 160.45 32.5695C160.45 33.1933 160.695 33.8171 161.247 34.3785C161.799 34.9399 162.473 35.1271 163.085 35.1271C163.759 35.1271 164.372 34.8152 164.801 34.4409Z" fill="#001244"/>
<path d="M20.5869 9.00479C9.69948 9.18853 0.802915 18.0083 0.678488 28.788C0.616274 36.0153 4.41131 42.3239 10.1972 45.9376C11.5659 46.7951 12.9968 47.4688 14.5522 47.9588V43.3039V37.4853C16.4186 38.8328 18.6583 39.629 21.1468 39.5677C27.1193 39.5065 31.8476 34.7904 31.7854 28.9105C31.7854 23.0307 26.9327 18.2533 20.9602 18.2533C15.1121 18.2533 10.3838 22.7857 10.135 28.4818V40.4252C6.89986 37.4853 4.90902 33.1979 5.03345 28.4818C5.28231 20.0907 12.4369 13.2309 21.0846 13.2922C29.8567 13.2922 36.9491 20.3357 36.9491 28.9718C36.9491 37.669 29.7945 44.6514 21.0224 44.6514C20.338 44.6514 19.6537 44.5901 18.9693 44.5289V48.8775C19.7781 48.9387 20.6491 49 21.5201 49C32.4075 48.755 41.1796 39.9965 41.3663 29.3393C41.4907 17.9471 32.0964 8.75979 20.5869 9.00479ZM21.0224 22.6632C24.5686 22.6632 27.4304 25.4806 27.4304 28.9718C27.4304 32.4629 24.5686 35.2804 21.0224 35.2804C17.4762 35.2804 14.6144 32.4629 14.6144 28.9718C14.6144 25.4806 17.4762 22.6632 21.0224 22.6632Z" fill="url(#paint0_linear_729_934)"/>
<defs>
<linearGradient id="paint0_linear_729_934" x1="0.677735" y1="29" x2="41.3675" y2="29" gradientUnits="userSpaceOnUse">
<stop stop-color="#E348FF"/>
<stop offset="0.3" stop-color="#B514F7"/>
<stop offset="0.7" stop-color="#625BFB"/>
<stop offset="1" stop-color="#00CCFF"/>
</linearGradient>
</defs>
</svg>
