<svg width="38" height="38" viewBox="0 0 38 38" fill="none" xmlns="http://www.w3.org/2000/svg">
<rect width="38" height="38" rx="19" fill="url(#paint0_linear_1279_10706)"/>
<path d="M18.7286 6.33637C11.9502 6.45274 6.41119 12.0386 6.33372 18.8658C6.29499 23.443 8.65777 27.4385 12.26 29.7271C13.1122 30.2702 14.0031 30.6969 14.9714 31.0072V28.0591V24.374C16.1334 25.2274 17.5279 25.7317 19.0772 25.6929C22.7957 25.6541 25.7395 22.6672 25.7008 18.9433C25.7008 15.2194 22.6795 12.1938 18.961 12.1938C15.32 12.1938 12.3762 15.0643 12.2213 18.6718V26.236C10.2071 24.374 8.96764 21.6587 9.04511 18.6718C9.20004 13.3575 13.6545 9.01292 19.0385 9.05171C24.5 9.05171 28.9157 13.5126 28.9157 18.9821C28.9157 24.4904 24.4613 28.9125 18.9998 28.9125C18.5737 28.9125 18.1476 28.8737 17.7215 28.8349V31.5891C18.2251 31.6279 18.7674 31.6667 19.3096 31.6667C26.0881 31.5115 31.5496 25.9644 31.6658 19.2149C31.7433 11.9998 25.8944 6.1812 18.7286 6.33637ZM18.9998 14.9867C21.2076 14.9867 22.9894 16.7711 22.9894 18.9821C22.9894 21.1932 21.2076 22.9776 18.9998 22.9776C16.7919 22.9776 15.0102 21.1932 15.0102 18.9821C15.0102 16.7711 16.7919 14.9867 18.9998 14.9867Z" fill="white"/>
<defs>
<linearGradient id="paint0_linear_1279_10706" x1="1.19973e-06" y1="-5.9375" x2="34.2" y2="41.5625" gradientUnits="userSpaceOnUse">
<stop stop-color="#E348FF"/>
<stop offset="0.3" stop-color="#B514F7"/>
<stop offset="0.7" stop-color="#625BFB"/>
<stop offset="1" stop-color="#00CCFF"/>
</linearGradient>
</defs>
</svg>
