<svg width="20" height="18" viewBox="0 0 20 18" fill="none" xmlns="http://www.w3.org/2000/svg">
<path d="M4.48633 2.001C4.48606 2.53143 4.2751 3.04004 3.89983 3.41492C3.52457 3.78981 3.01576 4.00027 2.48533 4C1.9549 3.99974 1.44629 3.78877 1.07141 3.41351C0.696522 3.03825 0.486063 2.52943 0.486328 1.999C0.486594 1.46857 0.697562 0.959965 1.07282 0.585079C1.44808 0.210194 1.9569 -0.000264966 2.48733 2.50361e-07C3.01776 0.000265467 3.52636 0.211233 3.90125 0.586494C4.27613 0.961754 4.48659 1.47057 4.48633 2.001ZM4.54633 5.481H0.546328V18.001H4.54633V5.481ZM10.8663 5.481H6.88633V18.001H10.8263V11.431C10.8263 7.771 15.5963 7.431 15.5963 11.431V18.001H19.5463V10.071C19.5463 3.901 12.4863 4.131 10.8263 7.161L10.8663 5.481Z" fill="#001244"/>
</svg>
