<svg width="19" height="20" viewBox="0 0 19 20" fill="none" xmlns="http://www.w3.org/2000/svg">
<path d="M7.83269 11.4105C8.24269 11.8005 8.24269 12.4405 7.83269 12.8305C7.44269 13.2205 6.80269 13.2205 6.41269 12.8305C5.47607 11.8925 4.95 10.6211 4.95 9.2955C4.95 7.96993 5.47607 6.69853 6.41269 5.7605L9.95269 2.2205C10.8907 1.28388 12.1621 0.757812 13.4877 0.757813C14.8133 0.757812 16.0847 1.28388 17.0227 2.2205C17.9593 3.15853 18.4854 4.42993 18.4854 5.7555C18.4854 7.08108 17.9593 8.35248 17.0227 9.2905L15.5327 10.7805C15.5427 9.9605 15.4127 9.1405 15.1327 8.3605L15.6027 7.8805C15.883 7.60319 16.1056 7.27303 16.2575 6.90913C16.4094 6.54524 16.4876 6.15483 16.4876 5.7605C16.4876 5.36618 16.4094 4.97577 16.2575 4.61187C16.1056 4.24798 15.883 3.91782 15.6027 3.6405C15.3254 3.36017 14.9952 3.13761 14.6313 2.98572C14.2674 2.83383 13.877 2.75563 13.4827 2.75563C13.0884 2.75563 12.698 2.83383 12.3341 2.98572C11.9702 3.13761 11.64 3.36017 11.3627 3.6405L7.83269 7.1705C7.55235 7.44782 7.3298 7.77798 7.17791 8.14187C7.02602 8.50577 6.94781 8.89618 6.94781 9.2905C6.94781 9.68483 7.02602 10.0752 7.17791 10.4391C7.3298 10.803 7.55235 11.1332 7.83269 11.4105ZM10.6527 7.1705C11.0427 6.7805 11.6827 6.7805 12.0727 7.1705C13.0093 8.10853 13.5354 9.37993 13.5354 10.7055C13.5354 12.0311 13.0093 13.3025 12.0727 14.2405L8.53269 17.7805C7.59466 18.7171 6.32327 19.2432 4.99769 19.2432C3.67211 19.2432 2.40072 18.7171 1.46269 17.7805C0.52607 16.8425 0 15.5711 0 14.2455C0 12.9199 0.52607 11.6485 1.46269 10.7105L2.95269 9.2205C2.94269 10.0405 3.07269 10.8605 3.35269 11.6505L2.88269 12.1205C2.60235 12.3978 2.3798 12.728 2.22791 13.0919C2.07602 13.4558 1.99781 13.8462 1.99781 14.2405C1.99781 14.6348 2.07602 15.0252 2.22791 15.3891C2.3798 15.753 2.60235 16.0832 2.88269 16.3605C3.16 16.6408 3.49016 16.8634 3.85406 17.0153C4.21796 17.1672 4.60837 17.2454 5.00269 17.2454C5.39702 17.2454 5.78742 17.1672 6.15132 17.0153C6.51522 16.8634 6.84538 16.6408 7.12269 16.3605L10.6527 12.8305C10.933 12.5532 11.1556 12.223 11.3075 11.8591C11.4594 11.4952 11.5376 11.1048 11.5376 10.7105C11.5376 10.3162 11.4594 9.92577 11.3075 9.56187C11.1556 9.19798 10.933 8.86782 10.6527 8.5905C10.5556 8.4995 10.4782 8.38953 10.4252 8.26741C10.3723 8.14529 10.345 8.0136 10.345 7.8805C10.345 7.74741 10.3723 7.61572 10.4252 7.4936C10.4782 7.37148 10.5556 7.26151 10.6527 7.1705Z" fill="#001244"/>
</svg>
