<svg width="215" height="24" viewBox="0 0 215 24" fill="none" xmlns="http://www.w3.org/2000/svg">
<path d="M184.536 23.3296C184.687 23.4797 184.581 23.7253 184.354 23.7253H178.649C178.573 23.7253 178.513 23.698 178.467 23.657L170.885 16.4254L163.212 23.657C163.167 23.698 163.091 23.7253 163.031 23.7253H157.325C157.098 23.7253 156.977 23.4797 157.144 23.3296L167.601 13.4508L157.507 3.85859C157.356 3.7085 157.462 3.46289 157.689 3.46289H163.394C163.47 3.46289 163.53 3.49018 163.576 3.53111L170.825 10.4763L178.104 3.53111C178.149 3.49018 178.225 3.46289 178.286 3.46289H183.991C184.218 3.46289 184.339 3.7085 184.173 3.85859L174.078 13.4508L184.536 23.3296Z" fill="#001244"/>
<path d="M130.447 23.7253C130.25 23.7253 130.084 23.5752 130.084 23.3978V3.79036C130.084 3.61298 130.25 3.46289 130.447 3.46289H151.997C152.194 3.46289 152.361 3.61298 152.361 3.79036V6.60117C152.361 6.77855 152.194 6.92864 151.997 6.92864H135.305V11.445H145.308C145.505 11.445 145.672 11.5951 145.672 11.7725V14.5833C145.672 14.7607 145.505 14.9108 145.308 14.9108H135.305V19.9184H152.209C152.406 19.9184 152.573 20.0685 152.573 20.2459V23.3978C152.573 23.5752 152.406 23.7253 152.209 23.7253H130.447Z" fill="#001244"/>
<path d="M92.2792 23.7253C92.0825 23.7253 91.916 23.5752 91.916 23.3978V3.79036C91.916 3.61298 92.0825 3.46289 92.2792 3.46289H96.7891C96.9858 3.46289 97.1523 3.61298 97.1523 3.79036V23.3978C97.1523 23.5752 96.9858 23.7253 96.7891 23.7253H92.2792Z" fill="#001244"/>
<path d="M66.6581 23.7253C66.4614 23.7253 66.2949 23.5752 66.2949 23.3978V3.79036C66.2949 3.61298 66.4614 3.46289 66.6581 3.46289H87.9512C88.1479 3.46289 88.3144 3.61298 88.3144 3.79036V6.6694C88.3144 6.84678 88.1479 6.99687 87.9512 6.99687H71.5312V12.3319H80.6265C80.8232 12.3319 80.9897 12.482 80.9897 12.6594V15.7022C80.9897 15.8796 80.8232 16.0297 80.6265 16.0297H71.5312V23.3978C71.5312 23.5752 71.3647 23.7253 71.168 23.7253H66.6581Z" fill="#001244"/>
<path d="M52.6746 7.07874V23.3978C52.6746 23.5752 52.5082 23.7253 52.3114 23.7253H47.8016C47.6049 23.7253 47.4384 23.5752 47.4384 23.3978V7.07874H37.8437C37.6469 7.07874 37.4805 6.92864 37.4805 6.75126V3.79036C37.4805 3.61298 37.6469 3.46289 37.8437 3.46289H62.3148C62.5115 3.46289 62.678 3.61298 62.678 3.79036V6.75126C62.678 6.92864 62.5115 7.07874 62.3148 7.07874H52.6746Z" fill="#001244"/>
<path d="M29.0214 23.7253C28.8247 23.7253 28.6582 23.5752 28.6582 23.3978V3.79036C28.6582 3.61298 28.8247 3.46289 29.0214 3.46289H33.5312C33.728 3.46289 33.8944 3.61298 33.8944 3.79036V23.3978C33.8944 23.5752 33.728 23.7253 33.5312 23.7253H29.0214Z" fill="#001244"/>
<path fill-rule="evenodd" clip-rule="evenodd" d="M0.570312 3.79036C0.570312 3.61298 0.736783 3.46289 0.93352 3.46289H20.1835C22.7714 3.46289 24.8749 5.3595 24.8749 7.69275V9.04357C24.8749 11.3768 22.7714 13.2734 20.1835 13.2734H20.3651C22.953 13.2734 25.0565 15.17 25.0565 17.5033V19.4818C25.0565 21.815 22.953 23.7116 20.3651 23.7116H0.93352C0.736783 23.7116 0.570312 23.5615 0.570312 23.3842V3.79036ZM5.70062 6.76491H17.8681C19.0636 6.76491 20.0322 7.63817 20.0322 8.7161V9.64394C20.0322 10.7219 19.0636 11.5951 17.8681 11.5951H5.70062V6.76491ZM5.70062 14.9244H17.9891C19.1847 14.9244 20.1532 15.7977 20.1532 16.8756V18.1173C20.1532 19.1952 19.1847 20.0685 17.9891 20.0685H5.70062V14.9244Z" fill="#001244"/>
<path d="M100.756 23.3978V3.79036C100.756 3.61298 100.922 3.46289 101.119 3.46289H104.191C104.282 3.46289 104.358 3.49018 104.433 3.54476L121.776 17.3805V3.79036C121.776 3.61298 121.943 3.46289 122.14 3.46289H126.12C126.317 3.46289 126.483 3.61298 126.483 3.79036V23.3978C126.483 23.5752 126.317 23.7253 126.12 23.7253H123.048C122.957 23.7253 122.881 23.698 122.806 23.6434L105.462 9.76674V23.3978C105.462 23.5752 105.296 23.7253 105.099 23.7253H101.119C100.922 23.7253 100.756 23.5752 100.756 23.3978Z" fill="#001244"/>
<path d="M188.877 15.5654C188.65 12.2497 190.194 8.552 193.387 5.68661C200.318 -0.562661 214.741 0.310599 214.816 0.324244C214.771 0.378823 204.223 14.16 191.738 15.4562C190.769 15.5381 189.8 15.579 188.877 15.5654Z" fill="#001244"/>
<path d="M190.33 19.8089C190.693 20.3274 191.102 20.8049 191.601 21.2415C195.884 25.103 203.602 24.3798 208.854 19.6451C215.8 13.3822 214.801 0.324219 214.801 0.324219C214.771 0.406087 207.204 15.6745 195.188 19.0175C193.569 19.4541 191.934 19.7133 190.33 19.8089Z" fill="#001244"/>
</svg>
