<svg width="164" height="30" viewBox="0 0 164 30" fill="none" xmlns="http://www.w3.org/2000/svg">
<path d="M54.5224 6.61304V2.55024L49.947 6.61304H54.5224ZM49.947 24.2769H54.5224V8.22046H49.947V24.2769ZM44.073 9.29075C42.7264 8.57657 41.2071 8.22046 39.5129 8.22046C38.5117 8.22046 37.5586 8.35031 36.6601 8.61395C35.7616 8.87759 34.9572 9.24747 34.2467 9.72753C33.5384 10.2076 32.9154 10.7762 32.3842 11.4333C31.8486 12.0924 31.442 12.8341 31.1621 13.6624C30.8801 14.4907 30.7402 15.3545 30.7402 16.2556C30.7402 18.5299 31.5753 20.4384 33.2455 21.9789C34.9178 23.5214 37.0055 24.2926 39.5129 24.2926C41.4782 24.2926 43.2095 23.8047 44.7136 22.8288C46.2176 21.851 47.2822 20.5328 47.9096 18.8801H43.0849C42.7286 19.4251 42.2389 19.8521 41.6115 20.1629C40.9841 20.4738 40.2846 20.6292 39.5129 20.6292C38.3849 20.6292 37.4602 20.3538 36.741 19.797C36.0218 19.2441 35.5649 18.4493 35.3769 17.4164H48.161C48.2244 17.0032 48.255 16.5979 48.255 16.2024C48.255 14.7544 47.8943 13.4204 47.1729 12.1987C46.4537 10.9769 45.4197 10.0089 44.0709 9.29469L44.073 9.29075ZM35.5037 14.5931C35.7551 13.69 36.2294 12.9856 36.929 12.478C37.6285 11.9704 38.4898 11.7147 39.5151 11.7147C40.184 11.7147 40.7939 11.8268 41.3492 12.055C41.9023 12.2793 42.3767 12.604 42.7745 13.0289C43.1702 13.45 43.4741 13.9733 43.6817 14.5931H35.5037ZM160.608 10.5027C158.927 8.9799 156.811 8.21849 154.262 8.21849C152.152 8.21849 150.346 8.82053 148.84 10.0207L148.058 8.21849H145.019V29.7799H149.594V23.0531C150.974 23.8991 152.528 24.3221 154.262 24.3221C156.791 24.3221 158.9 23.5548 160.592 22.0261C162.284 20.4935 163.13 18.5693 163.13 16.2575C163.13 13.9458 162.291 12.0295 160.608 10.5047V10.5027ZM157.178 19.2461C156.299 20.035 155.195 20.4285 153.87 20.4285C152.546 20.4285 151.446 20.035 150.58 19.2461C149.715 18.4571 149.28 17.4596 149.28 16.2556C149.28 15.4646 149.472 14.7504 149.859 14.111C150.246 13.4736 150.792 12.9738 151.505 12.6177C152.213 12.2596 153.009 12.0806 153.886 12.0806C154.762 12.0806 155.551 12.2596 156.251 12.6177C156.95 12.9738 157.499 13.4736 157.897 14.111C158.293 14.7504 158.494 15.4646 158.494 16.2556C158.494 17.4596 158.054 18.4571 157.178 19.2461ZM70.2839 10.1643C68.7187 8.86775 66.8365 8.21849 64.6439 8.21849C62.2829 8.21849 60.2936 8.96022 58.6738 10.4476C57.0517 11.9311 56.2429 13.7352 56.2429 15.8601C56.2429 17.2708 56.6079 18.5594 57.3403 19.7242C58.0704 20.8889 59.0847 21.8058 60.3789 22.4727C61.6752 23.1397 63.0962 23.4742 64.6417 23.4742C66.4583 23.4742 68.0673 23.0236 69.4664 22.1205V22.6852C69.4664 23.7732 69.0641 24.6448 68.2618 25.296C67.4574 25.9433 66.4474 26.266 65.2385 26.266C64.3422 26.266 63.5159 26.083 62.7639 25.7151C62.0315 25.359 61.5419 24.871 61.2861 24.2572H56.7303C57.1129 25.963 58.0617 27.3087 59.5832 28.2964C61.1178 29.2919 63.035 29.7897 65.3325 29.7897C67.1076 29.7897 68.6444 29.4788 69.9385 28.8611C71.2327 28.2393 72.2295 27.35 72.9313 26.1952C73.6286 25.0403 73.9806 23.6709 73.9806 22.093V8.64346H71.9628L70.2818 10.1663L70.2839 10.1643ZM68.2793 18.6952C67.4639 19.4369 66.4299 19.8088 65.1773 19.8088C63.9247 19.8088 62.895 19.4369 62.0906 18.6952C61.2861 17.9515 60.8839 17.0071 60.8839 15.8601C60.8839 14.7131 61.2905 13.7982 62.1059 13.0565C62.9213 12.3128 63.9444 11.9409 65.1773 11.9409C66.4102 11.9409 67.4902 12.3128 68.2968 13.0565C69.1013 13.7982 69.5035 14.7327 69.5035 15.8601C69.5035 16.9874 69.0947 17.9515 68.2815 18.6952H68.2793ZM138.281 10.0777C136.736 8.83824 134.886 8.21652 132.735 8.21652C130.186 8.21652 128.073 8.97793 126.391 10.5007C124.708 12.0255 123.869 13.932 123.869 16.228C123.869 18.524 124.708 20.462 126.391 21.9946C128.073 23.5273 130.189 24.2926 132.735 24.2926C134.845 24.2926 136.673 23.6925 138.22 22.4885L138.594 24.2749H142.199V8.22046H138.784L138.284 10.0817L138.281 10.0777ZM136.401 19.2146C135.523 20.0055 134.421 20.401 133.096 20.401C131.771 20.401 130.674 20.0075 129.804 19.2146C128.938 18.4276 128.505 17.4282 128.505 16.228C128.505 15.4371 128.702 14.7268 129.1 14.0973C129.496 13.4677 130.044 12.9699 130.746 12.602C131.446 12.2341 132.235 12.0531 133.111 12.0531C134.427 12.0531 135.523 12.4466 136.401 13.2355C137.278 14.0264 137.717 15.022 137.717 16.228C137.717 17.4341 137.28 18.4257 136.401 19.2146ZM117.256 19.7655C116.545 20.2082 115.73 20.4266 114.814 20.4266C113.601 20.4266 112.576 20.0232 111.743 19.2146C110.905 18.406 110.488 17.4124 110.488 16.228C110.488 15.0436 110.899 14.0559 111.725 13.265C112.551 12.4761 113.579 12.0806 114.814 12.0806C115.732 12.0806 116.552 12.2911 117.271 12.7161C117.993 13.1391 118.541 13.7175 118.915 14.4494H123.46C123.04 12.5705 122.05 11.0615 120.483 9.92428C118.915 8.78708 117.037 8.21849 114.845 8.21849C112.274 8.21849 110.132 8.9799 108.42 10.5027C106.706 12.0275 105.849 13.9241 105.849 16.1985C105.849 17.7036 106.24 19.0749 107.025 20.3164C107.808 21.5559 108.883 22.5298 110.252 23.2341C111.62 23.9404 113.14 24.2906 114.812 24.2906C117.024 24.2906 118.926 23.7043 120.513 22.5278C122.1 21.3513 123.104 19.797 123.521 17.861H118.913C118.517 18.6873 117.964 19.3228 117.254 19.7635L117.256 19.7655ZM101.54 20.0036C101.092 19.6002 100.867 19.0316 100.867 18.2978V11.9409H105.44V8.64149H100.773V4.66526H100.349L93.2223 11.0674V11.9409H96.2915V18.8349C96.2915 19.9642 96.532 20.9342 97.0129 21.7546C97.4939 22.5731 98.189 23.1987 99.0963 23.6296C100.006 24.0624 101.077 24.2769 102.308 24.2769H105.536V20.6115H103.468C102.633 20.6115 101.988 20.4108 101.54 20.0036ZM86.4849 8.27358C84.4584 8.27358 82.7554 8.86775 81.3782 10.0502V0.210938L76.8028 4.30718V24.2769H81.3782V15.8621C81.3782 14.6422 81.7236 13.6723 82.4122 12.9581C83.1008 12.2419 84.019 11.8858 85.1688 11.8858C86.1919 11.8858 86.9396 12.1672 87.4074 12.7318C87.8774 13.2965 88.1135 14.1523 88.1135 15.2974V24.2769H92.6889V14.6226C92.6889 12.6846 92.1358 11.1421 91.0275 9.9951C89.9213 8.85004 88.4064 8.27555 86.4849 8.27555V8.27358Z" fill="#001244"/>
<path d="M21.7581 14.9944C23.9617 13.4263 25.3214 11.2779 25.3214 8.9071C25.3214 4.10454 19.7382 0.210938 12.8521 0.210938C5.96602 0.210938 0.382812 4.10454 0.382812 8.90907C0.382812 11.2799 1.74254 13.4263 3.9461 14.9964C1.74254 16.5625 0.382812 18.7109 0.382812 21.0798C0.382812 25.8843 5.96602 29.7779 12.8521 29.7779C19.7382 29.7779 25.3214 25.8823 25.3214 21.0798C25.3214 18.709 23.9617 16.5625 21.7581 14.9944ZM12.8521 24.9537C9.78507 24.9537 7.29733 23.2184 7.29733 21.0798C7.29733 19.8068 8.18269 18.6795 9.54242 17.9731L12.8499 14.9944L16.1596 17.9731C17.5194 18.6795 18.4047 19.8048 18.4047 21.0798C18.4047 23.2184 15.917 24.9537 12.8499 24.9537H12.8521ZM15.9913 12.1022L12.8521 14.9295L9.71075 12.1022C8.25483 11.4038 7.29733 10.2351 7.29733 8.9071C7.29733 6.76847 9.78507 5.03317 12.8521 5.03317C15.9192 5.03317 18.4069 6.76847 18.4069 8.9071C18.4069 10.2332 17.4494 11.4038 15.9935 12.1022H15.9913Z" fill="#001244"/>
</svg>
