<svg width="32" height="32" viewBox="0 0 32 32" fill="none" xmlns="http://www.w3.org/2000/svg">
<path d="M29.3857 11.8522C28.4054 9.87674 27.293 7.96966 26.0559 6.14395V5.28772C26.0363 4.85191 25.8493 4.44048 25.5338 4.13917C25.2183 3.83787 24.7987 3.66994 24.3625 3.67038H7.6183C6.66693 3.63233 5.86777 4.35537 5.81069 5.30674V6.08687C4.55488 7.93254 3.3942 9.89237 2.38574 11.8903V12.9558C2.38574 13.8691 2.91851 14.7063 3.73669 15.1249V27.8733C3.74307 28.0563 3.81987 28.2297 3.95106 28.3573C4.08225 28.4849 4.25768 28.557 4.44071 28.5583H27.2927C27.4454 28.5641 27.5959 28.5211 27.7225 28.4356C27.8491 28.35 27.9451 28.2264 27.9967 28.0826H28.0348V15.0869C28.8339 14.6683 29.3667 13.8311 29.3857 12.9177V11.8522ZM13.1743 23.4399V27.1122H8.3794V23.4399H13.1743ZM13.1743 18.3786V22.0509H8.3794V18.3786H13.1743ZM7.37094 5.51605V5.26869C7.37094 5.11647 7.50414 5.0023 7.67538 5.0023H24.3435C24.3435 5.0023 24.4957 5.02133 24.5528 5.07841C24.6098 5.1355 24.6479 5.19258 24.6479 5.26869V5.53507H7.37094V5.51605ZM24.8762 11.3004L23.2969 6.96214H25.0475L27.483 11.3004H24.8572H24.8762ZM26.5126 14.1355C25.7895 14.1355 25.1807 13.6027 25.0855 12.9177V12.6514H28.0919V12.8987C28.0664 13.1547 27.9662 13.3976 27.8039 13.5972C27.6415 13.7968 27.424 13.9443 27.1786 14.0213C26.9883 14.0784 26.779 14.1165 26.5697 14.1165H26.5126V14.1355ZM13.9354 16.9896H7.69441C7.59932 16.9866 7.50458 17.0024 7.41566 17.0363C7.32674 17.0701 7.24542 17.1212 7.1764 17.1867C7.10738 17.2522 7.05204 17.3307 7.01358 17.4177C6.97512 17.5047 6.9543 17.5985 6.95234 17.6936V27.1313H5.29695V15.5245H5.44917C6.19124 15.5245 6.93331 15.2581 7.50414 14.7824C7.56122 14.7444 7.6183 14.6873 7.65636 14.6302C8.20815 15.201 8.95022 15.5245 9.73035 15.5245H9.76841C10.5485 15.5245 11.2906 15.2201 11.8424 14.6683C12.946 15.7528 14.6965 15.8099 15.8762 14.8015C15.9143 14.7634 15.9714 14.7253 16.0094 14.6683C17.113 15.7528 18.8635 15.8099 20.0432 14.8015C20.0813 14.7634 20.1384 14.7253 20.1764 14.6683C20.7282 15.2201 21.4513 15.5245 22.2314 15.5245H22.3075C23.0876 15.5245 23.8487 15.201 24.3815 14.6302L24.5528 14.8015C25.1236 15.2771 25.8466 15.5245 26.5887 15.5435H26.7409V27.1503H14.6775V17.7127C14.6775 17.3321 14.335 17.0277 13.9545 17.0277L13.9354 16.9896ZM12.0136 6.92408L11.3096 11.3004L8.70287 11.2623L10.2821 6.92408H12.0136ZM12.7177 11.2623L13.4978 6.92408H15.2673V11.3004L12.7177 11.2623ZM14.7536 13.793C14.4744 14.015 14.1187 14.1176 13.7642 14.0784C13.4668 14.0428 13.1896 13.9096 12.9761 13.6995C12.7627 13.4895 12.6249 13.2145 12.5845 12.9177V12.6514H15.2673V12.8797C15.2293 13.2412 15.039 13.5647 14.7536 13.793ZM11.0813 12.9177C11.0813 13.2602 10.9291 13.5647 10.6817 13.793C10.4344 14.0213 10.1299 14.1545 9.73035 14.1355C9.38786 14.1355 9.06439 14.0404 8.798 13.793C8.55215 13.5652 8.40244 13.2521 8.3794 12.9177V12.6514H11.0623V12.8987L11.0813 12.9177ZM20.8043 11.3194L20.0242 6.98116H21.7367L23.335 11.3194H20.8043ZM23.5253 12.9748C23.5253 13.3173 23.3731 13.6218 23.1257 13.8501C22.8783 14.0784 22.5549 14.2116 22.1743 14.1926C21.835 14.2052 21.5041 14.0851 21.2518 13.8577C20.9996 13.6304 20.8459 13.3137 20.8234 12.9748V12.7084H23.5062V12.9558L23.5253 12.9748ZM19.4344 12.9177C19.4344 13.2602 19.2631 13.5837 19.0158 13.812C18.7684 14.0404 18.4259 14.1545 18.0644 14.1545C17.7298 14.1671 17.4031 14.0514 17.1511 13.8311C17.0257 13.717 16.9242 13.5792 16.8524 13.4257C16.7805 13.2723 16.7398 13.1061 16.7325 12.9368V12.6704H19.4153V12.9177H19.4344ZM16.7515 11.2623V6.92408H18.521L19.3012 11.2623H16.7515ZM4.45974 11.2623L7.04748 6.92408H8.70287L7.12359 11.2623H4.44071H4.45974ZM5.41111 14.1355C5.22084 14.1355 5.03056 14.0974 4.82126 14.0023C4.57875 13.9292 4.36381 13.7849 4.20434 13.5881C4.04487 13.3913 3.94823 13.1511 3.92697 12.8987V12.6514H6.93331V12.8797C6.8858 13.2429 6.70224 13.5745 6.41971 13.8076C6.13717 14.0407 5.77671 14.1579 5.41111 14.1355Z" fill="url(#paint0_linear_424_2309)"/>
<path d="M17.037 23.4595H25.3901C25.4852 23.4625 25.5799 23.4467 25.6688 23.4128C25.7578 23.379 25.8391 23.3279 25.9081 23.2624C25.9771 23.1969 26.0325 23.1184 26.0709 23.0314C26.1094 22.9444 26.1302 22.8506 26.1322 22.7555C26.1322 22.3559 25.7706 22.0705 25.3901 22.0705H25.0856V17.7132C25.0856 17.3136 24.7241 17.0092 24.3436 17.0282H18.0835C17.684 17.0282 17.3795 17.3136 17.3415 17.7322V22.0705H17.0751C16.8848 22.0705 16.6945 22.1276 16.5613 22.2607C16.4091 22.3939 16.333 22.5652 16.333 22.7745C16.333 23.155 16.6755 23.4595 17.0561 23.4595H17.037ZM18.8446 22.0514V18.3791H23.6015V22.0514H18.8446Z" fill="url(#paint1_linear_424_2309)"/>
<defs>
<linearGradient id="paint0_linear_424_2309" x1="2.38574" y1="16.1139" x2="29.3857" y2="16.1139" gradientUnits="userSpaceOnUse">
<stop stop-color="#E348FF"/>
<stop offset="0.3" stop-color="#B514F7"/>
<stop offset="0.7" stop-color="#625BFB"/>
<stop offset="1" stop-color="#00CCFF"/>
</linearGradient>
<linearGradient id="paint1_linear_424_2309" x1="16.333" y1="20.2436" x2="26.1322" y2="20.2436" gradientUnits="userSpaceOnUse">
<stop stop-color="#E348FF"/>
<stop offset="0.3" stop-color="#B514F7"/>
<stop offset="0.7" stop-color="#625BFB"/>
<stop offset="1" stop-color="#00CCFF"/>
</linearGradient>
</defs>
</svg>
