<svg width="32" height="32" viewBox="0 0 32 32" fill="none" xmlns="http://www.w3.org/2000/svg">
<path d="M15.9727 1.65723C8.11516 1.65723 1.72266 8.04973 1.72266 15.9072C1.72266 23.7647 8.11516 30.1572 15.9727 30.1572C17.1302 30.1572 18.2802 30.0172 19.3952 29.7422C19.4052 29.7422 19.4127 29.7447 19.4227 29.7447C19.8377 29.7447 20.1727 29.4097 20.1727 28.9947L20.1677 14.1422H22.4277C22.7377 15.0647 23.6102 15.7297 24.6352 15.7297C25.9202 15.7297 26.9652 14.6847 26.9652 13.3997C26.9652 12.1147 25.9202 11.0697 24.6352 11.0697C23.6152 11.0697 22.7502 11.7272 22.4352 12.6422H19.4202C19.2202 12.6422 19.0302 12.7222 18.8902 12.8622C18.7502 13.0022 18.6702 13.1947 18.6702 13.3922L18.6777 28.3672C17.7952 28.5572 16.8902 28.6597 15.9777 28.6597C8.94766 28.6597 3.22766 22.9397 3.22766 15.9097C3.22766 15.0047 3.32516 14.1222 3.50516 13.2697H5.99516C6.34766 14.1072 7.17766 14.6972 8.14266 14.6972C9.42766 14.6972 10.4727 13.6522 10.4727 12.3672C10.4727 11.0822 9.42766 10.0372 8.14266 10.0372C7.06516 10.0372 6.15766 10.7747 5.89266 11.7697H3.92266C5.28766 7.80473 8.55516 4.71973 12.6302 3.60973L12.6352 17.6772H10.3752C10.0652 16.7547 9.19266 16.0897 8.16766 16.0897C6.88266 16.0897 5.83766 17.1347 5.83766 18.4197C5.83766 19.7047 6.88266 20.7497 8.16766 20.7497C9.18766 20.7497 10.0527 20.0922 10.3677 19.1797H13.3827C13.5827 19.1797 13.7727 19.0997 13.9127 18.9597C14.0527 18.8197 14.1327 18.6272 14.1327 18.4297L14.1252 3.29973C14.7302 3.21223 15.3477 3.16473 15.9752 3.16473C23.0052 3.16473 28.7252 8.88473 28.7252 15.9147C28.7252 16.8647 28.6152 17.8022 28.4077 18.7172H26.9727C26.6202 17.8797 25.7902 17.2897 24.8252 17.2897C23.5402 17.2897 22.4952 18.3347 22.4952 19.6197C22.4952 20.9047 23.5402 21.9497 24.8252 21.9497C25.9027 21.9497 26.8102 21.2122 27.0752 20.2172H27.9702C27.2827 22.1272 26.1502 23.8697 24.6352 25.2722C24.3302 25.5547 24.3127 26.0272 24.5952 26.3322C24.8777 26.6372 25.3502 26.6547 25.6552 26.3722C28.5602 23.6822 30.2252 19.8697 30.2252 15.9147C30.2252 8.05723 23.8327 1.66473 15.9752 1.66473L15.9727 1.65723ZM24.6302 12.5697C25.0877 12.5697 25.4602 12.9422 25.4602 13.3997C25.4602 13.8572 25.0877 14.2297 24.6302 14.2297C24.1727 14.2297 23.8002 13.8572 23.8002 13.3997C23.8002 12.9422 24.1727 12.5697 24.6302 12.5697ZM8.13516 11.5347C8.59266 11.5347 8.96516 11.9072 8.96516 12.3647C8.96516 12.8222 8.59266 13.1947 8.13516 13.1947C7.67766 13.1947 7.30516 12.8222 7.30516 12.3647C7.30516 11.9072 7.67766 11.5347 8.13516 11.5347ZM8.16266 19.2447C7.70516 19.2447 7.33266 18.8722 7.33266 18.4147C7.33266 17.9572 7.70516 17.5847 8.16266 17.5847C8.62016 17.5847 8.99266 17.9572 8.99266 18.4147C8.99266 18.8722 8.62016 19.2447 8.16266 19.2447ZM24.8202 20.4447C24.3627 20.4447 23.9902 20.0722 23.9902 19.6147C23.9902 19.1572 24.3627 18.7847 24.8202 18.7847C25.2777 18.7847 25.6502 19.1572 25.6502 19.6147C25.6502 20.0722 25.2777 20.4447 24.8202 20.4447Z" fill="url(#paint0_linear_405_3003)"/>
<path d="M15.713 11.2173V20.9598L14.233 22.1848C13.833 21.4748 13.073 20.9948 12.203 20.9948C10.918 20.9948 9.87305 22.0398 9.87305 23.3248C9.87305 24.6098 10.918 25.6548 12.203 25.6548C13.273 25.6548 14.173 24.9298 14.4455 23.9473C14.468 23.9323 14.4905 23.9198 14.5105 23.9023L16.9405 21.8898C17.113 21.7473 17.213 21.5348 17.213 21.3123V11.5323L18.8305 9.93984C19.1105 10.0598 19.418 10.1248 19.743 10.1248C21.028 10.1248 22.073 9.07984 22.073 7.79484C22.073 6.50984 21.028 5.46484 19.743 5.46484C18.458 5.46484 17.413 6.50984 17.413 7.79484C17.413 8.20984 17.523 8.59734 17.713 8.93484L15.938 10.6823C15.7955 10.8223 15.7155 11.0148 15.7155 11.2173H15.713ZM12.203 24.1548C11.7455 24.1548 11.373 23.7823 11.373 23.3248C11.373 22.8673 11.7455 22.4948 12.203 22.4948C12.6605 22.4948 13.033 22.8673 13.033 23.3248C13.033 23.7823 12.6605 24.1548 12.203 24.1548ZM19.7405 6.96734C20.198 6.96734 20.5705 7.33984 20.5705 7.79734C20.5705 8.25484 20.198 8.62734 19.7405 8.62734C19.283 8.62734 18.9105 8.25484 18.9105 7.79734C18.9105 7.33984 19.283 6.96734 19.7405 6.96734Z" fill="url(#paint1_linear_405_3003)"/>
<defs>
<linearGradient id="paint0_linear_405_3003" x1="1.72266" y1="15.9072" x2="30.2227" y2="15.9072" gradientUnits="userSpaceOnUse">
<stop stop-color="#E240FB"/>
<stop offset="0.3" stop-color="#B00DF1"/>
<stop offset="0.7" stop-color="#604BF6"/>
<stop offset="1" stop-color="#22C2FC"/>
</linearGradient>
<linearGradient id="paint1_linear_405_3003" x1="9.87305" y1="15.5598" x2="22.0705" y2="15.5598" gradientUnits="userSpaceOnUse">
<stop stop-color="#E240FB"/>
<stop offset="0.3" stop-color="#B00DF1"/>
<stop offset="0.7" stop-color="#604BF6"/>
<stop offset="1" stop-color="#22C2FC"/>
</linearGradient>
</defs>
</svg>
