<svg width="32" height="33" viewBox="0 0 32 33" fill="none" xmlns="http://www.w3.org/2000/svg">
<path d="M30.307 19.0114C30.307 19.0114 30.307 18.9989 30.307 18.9939C30.307 18.9714 30.3045 18.9514 30.302 18.9289C30.302 18.9114 30.2995 18.8914 30.2945 18.8739C30.2945 18.8639 30.2895 18.8539 30.287 18.8439C30.282 18.8214 30.2745 18.8014 30.267 18.7814C30.262 18.7689 30.262 18.7539 30.257 18.7414C30.257 18.7389 30.2545 18.7364 30.252 18.7314C30.2495 18.7214 30.2445 18.7139 30.2395 18.7064C30.2295 18.6864 30.2195 18.6664 30.207 18.6464C30.197 18.6314 30.192 18.6139 30.182 18.5989C30.177 18.5939 30.1745 18.5864 30.1695 18.5814C30.157 18.5639 30.142 18.5464 30.127 18.5289C30.1145 18.5139 30.1045 18.4989 30.0895 18.4839C30.0845 18.4789 30.0795 18.4764 30.0745 18.4714C30.0595 18.4564 30.0395 18.4439 30.022 18.4289C30.007 18.4164 29.9945 18.4039 29.977 18.3914C29.972 18.3864 29.9645 18.3839 29.957 18.3789C29.9395 18.3689 29.9195 18.3589 29.902 18.3489C29.8845 18.3389 29.867 18.3289 29.8495 18.3214C29.8395 18.3164 29.832 18.3139 29.822 18.3114C29.817 18.3114 29.812 18.3064 29.807 18.3039L24.7745 16.4814V9.49891C24.7745 9.08391 24.4395 8.74891 24.0245 8.74891H22.2695V5.99891C22.2695 5.99891 22.2695 5.98641 22.2695 5.98141C22.2695 5.95891 22.267 5.93891 22.2645 5.91641C22.2645 5.89891 22.262 5.87891 22.257 5.86141C22.257 5.85141 22.252 5.84141 22.2495 5.83141C22.2445 5.80891 22.237 5.78891 22.2295 5.76891C22.2245 5.75641 22.2245 5.74141 22.2195 5.72891C22.2195 5.72641 22.217 5.72391 22.2145 5.71891C22.212 5.70891 22.207 5.70141 22.202 5.69391C22.192 5.67391 22.182 5.65391 22.1695 5.63391C22.162 5.61891 22.1545 5.60141 22.1445 5.58641C22.1395 5.58141 22.137 5.57391 22.132 5.56891C22.1195 5.55141 22.1045 5.53391 22.0895 5.51641C22.077 5.50141 22.067 5.48641 22.0545 5.47391C22.0495 5.46891 22.0445 5.46391 22.0395 5.46141C22.022 5.44641 22.0045 5.43141 21.9845 5.41641C21.9695 5.40641 21.957 5.39141 21.942 5.38141C21.9345 5.37641 21.9295 5.37391 21.922 5.36891C21.9045 5.35641 21.8845 5.34891 21.8645 5.33891C21.8645 5.33891 21.862 5.33891 21.8595 5.33891C21.8445 5.33141 21.8295 5.32141 21.8145 5.31391C21.8045 5.30891 21.7945 5.30641 21.787 5.30391C21.782 5.30391 21.777 5.29891 21.772 5.29641L16.247 3.29641C16.247 3.29641 16.222 3.29141 16.2095 3.28641C16.1845 3.27891 16.162 3.27391 16.137 3.26891C16.112 3.26391 16.087 3.25891 16.0595 3.25641C16.037 3.25641 16.017 3.25391 15.9945 3.25391C15.967 3.25391 15.937 3.25391 15.9095 3.25891C15.8895 3.25891 15.8695 3.26391 15.8495 3.26891C15.8195 3.27391 15.792 3.28141 15.762 3.29141C15.752 3.29391 15.742 3.29641 15.732 3.29891L10.207 5.29891C10.207 5.29891 10.197 5.30391 10.192 5.30641C10.182 5.30891 10.172 5.31391 10.162 5.31641C10.147 5.32391 10.1345 5.33141 10.122 5.33891C10.122 5.33891 10.117 5.34141 10.1145 5.34391C10.0945 5.35391 10.0745 5.36391 10.057 5.37391C10.0495 5.37891 10.0445 5.38141 10.037 5.38641C10.022 5.39641 10.0095 5.40891 9.99703 5.42141C9.97953 5.43641 9.95953 5.44891 9.94203 5.46641C9.93703 5.47141 9.93203 5.47391 9.92703 5.47891C9.91453 5.49141 9.90453 5.50641 9.89203 5.52141C9.87703 5.53891 9.86203 5.55641 9.84953 5.57391C9.84453 5.57891 9.83953 5.58641 9.83703 5.59141C9.82703 5.60641 9.81953 5.62391 9.81203 5.63891C9.80203 5.65891 9.78953 5.67641 9.77953 5.69891C9.77453 5.70641 9.77203 5.71641 9.76703 5.72391C9.76703 5.72641 9.76453 5.72891 9.76203 5.73391C9.75703 5.74641 9.75453 5.76141 9.75203 5.77391C9.74453 5.79391 9.73703 5.81391 9.73203 5.83641C9.73203 5.84641 9.72703 5.85641 9.72453 5.86641C9.72203 5.88391 9.71953 5.90391 9.71703 5.92141C9.71703 5.94391 9.71203 5.96391 9.71203 5.98641C9.71203 5.99141 9.71203 5.99891 9.71203 6.00391V8.75391H7.99453C7.99453 8.75391 7.99203 8.75391 7.98953 8.75391C7.98953 8.75391 7.98703 8.75391 7.98453 8.75391C7.56953 8.75391 7.23453 9.08891 7.23453 9.50391V16.4864L2.20203 18.3089C2.20203 18.3089 2.19203 18.3139 2.18703 18.3164C2.17703 18.3189 2.16703 18.3239 2.15953 18.3264C2.14203 18.3339 2.12703 18.3439 2.10953 18.3539C2.08953 18.3639 2.06953 18.3739 2.05203 18.3839C2.04453 18.3889 2.03953 18.3914 2.03203 18.3964C2.01703 18.4064 2.00453 18.4189 1.98953 18.4314C1.97203 18.4464 1.95203 18.4589 1.93703 18.4764C1.93203 18.4814 1.92703 18.4839 1.92203 18.4889C1.90953 18.5014 1.89953 18.5164 1.88703 18.5314C1.87203 18.5489 1.85703 18.5664 1.84453 18.5839C1.83953 18.5889 1.83703 18.5964 1.83203 18.6014C1.82203 18.6164 1.81453 18.6339 1.80703 18.6489C1.79703 18.6689 1.78453 18.6864 1.77453 18.7089C1.76953 18.7164 1.76703 18.7264 1.76203 18.7339C1.76203 18.7364 1.75953 18.7389 1.75703 18.7439C1.75203 18.7564 1.74953 18.7714 1.74703 18.7839C1.73953 18.8039 1.73203 18.8239 1.72703 18.8464C1.72703 18.8564 1.72203 18.8664 1.71953 18.8764C1.71703 18.8939 1.71453 18.9139 1.71203 18.9314C1.71203 18.9539 1.70703 18.9739 1.70703 18.9964C1.70703 19.0014 1.70703 19.0089 1.70703 19.0139V26.0139C1.70703 26.3689 1.95453 26.6639 2.28453 26.7414L7.72703 28.7189C7.72703 28.7189 7.73703 28.7189 7.73953 28.7214C7.76203 28.7289 7.78453 28.7339 7.80703 28.7389C7.81953 28.7414 7.83203 28.7464 7.84203 28.7489C7.84703 28.7489 7.85453 28.7514 7.85953 28.7514C7.89953 28.7589 7.93953 28.7614 7.98203 28.7614C8.02453 28.7614 8.06203 28.7564 8.10203 28.7514C8.10953 28.7514 8.11453 28.7489 8.12203 28.7464C8.13453 28.7464 8.14703 28.7414 8.15703 28.7364C8.17953 28.7314 8.19953 28.7264 8.22203 28.7189C8.22703 28.7189 8.23203 28.7189 8.23703 28.7139L13.762 26.7139C13.762 26.7139 13.772 26.7089 13.7795 26.7064C13.8045 26.6964 13.8295 26.6839 13.8545 26.6714C13.8745 26.6614 13.8945 26.6514 13.9145 26.6389C13.9345 26.6264 13.9545 26.6089 13.972 26.5939C13.992 26.5789 14.012 26.5639 14.0295 26.5464C14.047 26.5314 14.0595 26.5114 14.0745 26.4939C14.0895 26.4764 14.107 26.4564 14.122 26.4364C14.137 26.4164 14.147 26.3939 14.1595 26.3739C14.172 26.3539 14.1845 26.3339 14.192 26.3114C14.202 26.2889 14.2095 26.2664 14.217 26.2439C14.2245 26.2214 14.2345 26.1989 14.2395 26.1739C14.2445 26.1514 14.247 26.1314 14.2495 26.1089C14.2545 26.0814 14.257 26.0539 14.257 26.0264C14.257 26.0214 14.257 26.0139 14.257 26.0089V23.2589H17.742V26.0089C17.742 26.3639 17.9895 26.6589 18.3195 26.7364L23.762 28.7139C23.762 28.7139 23.772 28.7139 23.7745 28.7164C23.797 28.7239 23.8195 28.7289 23.842 28.7339C23.8545 28.7364 23.867 28.7414 23.877 28.7439C23.882 28.7439 23.8895 28.7464 23.8945 28.7464C23.9345 28.7539 23.9745 28.7564 24.017 28.7564C24.0595 28.7564 24.097 28.7514 24.137 28.7464C24.1445 28.7464 24.1495 28.7439 24.157 28.7414C24.1695 28.7414 24.182 28.7364 24.192 28.7314C24.2145 28.7264 24.2345 28.7214 24.257 28.7139C24.262 28.7139 24.267 28.7139 24.272 28.7089L29.797 26.7089C29.797 26.7089 29.807 26.7039 29.8145 26.7014C29.8395 26.6914 29.8645 26.6789 29.8895 26.6664C29.9095 26.6564 29.9295 26.6464 29.9495 26.6339C29.9695 26.6214 29.9895 26.6039 30.007 26.5889C30.027 26.5739 30.047 26.5589 30.0645 26.5414C30.082 26.5264 30.0945 26.5064 30.1095 26.4889C30.1245 26.4714 30.142 26.4514 30.157 26.4314C30.172 26.4114 30.182 26.3889 30.1945 26.3689C30.207 26.3489 30.2195 26.3289 30.227 26.3064C30.237 26.2839 30.2445 26.2614 30.252 26.2389C30.2595 26.2164 30.2695 26.1939 30.2745 26.1689C30.2795 26.1464 30.282 26.1264 30.2845 26.1039C30.2895 26.0764 30.292 26.0489 30.292 26.0214C30.292 26.0164 30.292 26.0089 30.292 26.0039V19.0039L30.307 19.0114ZM24.032 17.8064L27.4195 19.0339L24.032 20.3414L20.6445 19.0339L24.032 17.8064ZM19.2545 20.1039L23.2795 21.6589V26.9389L19.2545 25.4764V20.1039ZM24.782 21.6589L28.807 20.1039V25.4814L24.782 26.9389V21.6589ZM15.9995 4.79891L19.387 6.02641L16.002 7.33391L12.617 6.02641L16.002 4.79891H15.9995ZM11.2245 7.09641L15.2495 8.65141V13.9314L11.2245 12.4689V7.09641ZM16.7495 8.65141L20.7745 7.09641V12.4739L16.7495 13.9314V8.65141ZM3.21953 20.1039L7.24453 21.6589V26.9389L3.21953 25.4764V20.1039ZM8.74453 21.6589L12.7695 20.1039V25.4814L8.74453 26.9389V21.6589ZM7.99453 20.3414L4.60703 19.0339L7.99453 17.8064L11.382 19.0339L7.99453 20.3414ZM14.272 21.7589V19.0089C14.272 19.0089 14.272 18.9964 14.272 18.9914C14.272 18.9689 14.2695 18.9489 14.267 18.9264C14.267 18.9089 14.2645 18.8889 14.2595 18.8714C14.2595 18.8614 14.2545 18.8514 14.252 18.8414C14.247 18.8189 14.2395 18.7989 14.232 18.7789C14.227 18.7664 14.227 18.7514 14.222 18.7389C14.222 18.7364 14.2195 18.7339 14.217 18.7289C14.2145 18.7189 14.2095 18.7114 14.2045 18.7039C14.1945 18.6839 14.1845 18.6639 14.172 18.6439C14.162 18.6289 14.157 18.6114 14.147 18.5964C14.142 18.5914 14.1395 18.5839 14.1345 18.5789C14.122 18.5614 14.107 18.5439 14.092 18.5264C14.0795 18.5114 14.0695 18.4964 14.0545 18.4814C14.0495 18.4764 14.0445 18.4739 14.0395 18.4689C14.0245 18.4539 14.0045 18.4414 13.987 18.4264C13.972 18.4139 13.9595 18.4014 13.942 18.3889C13.937 18.3839 13.9295 18.3814 13.922 18.3764C13.9045 18.3664 13.8845 18.3564 13.867 18.3464C13.8495 18.3364 13.832 18.3264 13.8145 18.3189C13.8045 18.3139 13.797 18.3114 13.787 18.3089C13.782 18.3089 13.777 18.3039 13.772 18.3014L8.74203 16.4789V10.2464H9.71953V12.9964C9.71953 13.3514 9.96703 13.6464 10.297 13.7239L15.7395 15.7014C15.7395 15.7014 15.7495 15.7014 15.752 15.7039C15.7745 15.7114 15.797 15.7164 15.8195 15.7214C15.832 15.7239 15.8445 15.7289 15.8545 15.7314C15.8595 15.7314 15.867 15.7339 15.872 15.7339C15.912 15.7414 15.952 15.7439 15.9945 15.7439C16.037 15.7439 16.0745 15.7389 16.1145 15.7339C16.122 15.7339 16.127 15.7314 16.1345 15.7289C16.147 15.7289 16.1595 15.7239 16.1695 15.7189C16.192 15.7139 16.212 15.7089 16.2345 15.7014C16.2395 15.7014 16.2445 15.7014 16.2495 15.6964L21.7745 13.6964C21.7745 13.6964 21.7845 13.6914 21.792 13.6889C21.817 13.6789 21.842 13.6664 21.867 13.6539C21.887 13.6439 21.907 13.6339 21.927 13.6214C21.947 13.6089 21.967 13.5914 21.9845 13.5764C22.0045 13.5614 22.0245 13.5464 22.042 13.5289C22.0595 13.5139 22.072 13.4939 22.087 13.4764C22.102 13.4589 22.1195 13.4389 22.1345 13.4189C22.1495 13.3989 22.1595 13.3764 22.172 13.3564C22.1845 13.3364 22.197 13.3164 22.2045 13.2939C22.2145 13.2714 22.222 13.2489 22.2295 13.2264C22.237 13.2039 22.247 13.1814 22.252 13.1564C22.257 13.1339 22.2595 13.1139 22.262 13.0914C22.267 13.0639 22.2695 13.0364 22.2695 13.0089C22.2695 13.0039 22.2695 12.9964 22.2695 12.9914V10.2414H23.2745V16.4739L18.2445 18.2964C18.2445 18.2964 18.2345 18.3014 18.2295 18.3039C18.2195 18.3064 18.2095 18.3114 18.202 18.3139C18.1845 18.3214 18.1695 18.3314 18.152 18.3414C18.132 18.3514 18.1145 18.3614 18.0945 18.3714C18.087 18.3764 18.082 18.3789 18.0745 18.3839C18.0595 18.3939 18.047 18.4064 18.032 18.4189C18.0145 18.4339 17.9945 18.4464 17.9795 18.4639C17.9745 18.4689 17.9695 18.4714 17.9645 18.4764C17.952 18.4889 17.942 18.5039 17.9295 18.5189C17.9145 18.5364 17.8995 18.5539 17.887 18.5714C17.882 18.5764 17.877 18.5839 17.8745 18.5889C17.8645 18.6039 17.857 18.6214 17.8495 18.6364C17.8395 18.6564 17.827 18.6764 17.817 18.6964C17.812 18.7039 17.8095 18.7139 17.8045 18.7214C17.8045 18.7239 17.802 18.7264 17.7995 18.7314C17.7945 18.7439 17.792 18.7589 17.7895 18.7714C17.782 18.7914 17.7745 18.8114 17.7695 18.8339C17.7695 18.8439 17.7645 18.8539 17.762 18.8639C17.7595 18.8814 17.757 18.9014 17.7545 18.9189C17.7545 18.9414 17.7495 18.9614 17.7495 18.9839C17.7495 18.9889 17.7495 18.9964 17.7495 19.0014V21.7514H14.2645L14.272 21.7589Z" fill="url(#paint0_linear_729_5341)"/>
<defs>
<linearGradient id="paint0_linear_729_5341" x1="1.70703" y1="16.0077" x2="30.307" y2="16.0077" gradientUnits="userSpaceOnUse">
<stop stop-color="#E348FF"/>
<stop offset="0.3" stop-color="#B514F7"/>
<stop offset="0.7" stop-color="#625BFB"/>
<stop offset="1" stop-color="#00CCFF"/>
</linearGradient>
</defs>
</svg>
