<svg width="32" height="33" viewBox="0 0 32 33" fill="none" xmlns="http://www.w3.org/2000/svg">
<path d="M13.0443 13.3777C13.2318 13.5627 13.5318 13.5702 13.7293 13.3927C13.9343 13.2077 13.9518 12.8927 13.7668 12.6877C13.4268 12.3102 12.3768 12.1552 11.4518 12.2402C11.5268 11.9952 11.5718 11.7502 11.5993 11.5102H12.2493C12.5243 11.5102 12.7493 11.2852 12.7493 11.0102C12.7493 10.7352 12.5243 10.5102 12.2493 10.5102H11.6593C11.6743 10.0727 11.6968 9.64524 11.8518 9.53024C12.2968 9.19274 12.8143 9.60024 12.8768 9.65024C13.0868 9.82774 13.4018 9.80274 13.5793 9.59274C13.7593 9.38274 13.7343 9.06774 13.5243 8.88774C13.1218 8.54274 12.1268 8.06774 11.2493 8.73274C10.7218 9.13274 10.6818 9.82774 10.6618 10.5102H10.4043C10.1293 10.5102 9.9043 10.7352 9.9043 11.0102C9.9043 11.2852 10.1293 11.5102 10.4043 11.5102H10.5943C10.5293 11.9377 10.3968 12.3452 10.0918 12.6902C9.9243 12.8777 9.9243 13.1627 10.0918 13.3527C10.1893 13.4652 10.3268 13.5227 10.4668 13.5227C10.5643 13.5227 10.6643 13.4952 10.7493 13.4352C11.2143 13.1177 12.7493 13.2052 13.0493 13.3802L13.0443 13.3777Z" fill="url(#paint0_linear_729_5352)"/>
<path d="M22.9968 23.3128C22.6293 23.1678 22.2143 23.3453 22.0668 23.7128C21.2018 25.8853 19.1318 27.2903 16.7918 27.2903C13.6618 27.2903 11.1168 24.7428 11.1168 21.6153C11.1168 18.4878 13.6643 15.9403 16.7918 15.9403C19.0068 15.9403 21.0343 17.2428 21.9569 19.2553C22.1219 19.6153 22.5469 19.7728 22.9044 19.6078C23.2644 19.4428 23.4219 19.0178 23.2568 18.6603C22.2943 16.5603 20.3743 15.0828 18.1568 14.6453C19.5368 12.0503 19.1893 8.86031 17.1918 6.60531C15.9318 5.18281 14.1918 4.33531 12.2943 4.22281C10.3968 4.10531 8.56935 4.74031 7.14685 6.00031C4.20935 8.60281 3.93935 13.1103 6.54185 16.0478C7.58185 17.2203 8.97685 18.0128 10.5043 18.3103C9.98185 19.2978 9.68435 20.4228 9.68435 21.6178C9.68435 25.5378 12.8718 28.7253 16.7918 28.7253C19.7218 28.7253 22.3143 26.9678 23.3968 24.2453C23.5418 23.8778 23.3643 23.4628 22.9968 23.3153V23.3128ZM11.1418 16.8953C9.79935 16.7203 8.56435 16.0678 7.66185 15.0503C5.60685 12.7328 5.82185 9.17531 8.13935 7.12031C9.26185 6.12531 10.7043 5.62781 12.2018 5.71781C13.6994 5.80781 15.0718 6.47531 16.0668 7.59781C17.7943 9.54781 17.9619 12.3803 16.4844 14.5153C14.4569 14.6003 12.6468 15.5403 11.4043 16.9828C11.3243 16.9378 11.2343 16.9078 11.1393 16.8953H11.1418Z" fill="url(#paint1_linear_729_5352)"/>
<path d="M16.4903 25.0016C16.7653 25.0016 16.9903 24.7766 16.9903 24.5016V24.2191H17.1603C18.0053 24.2191 18.6903 23.5316 18.6903 22.6891C18.6903 21.8466 18.0028 21.1591 17.1603 21.1591H16.8653C16.8503 21.1591 16.8378 21.1541 16.8253 21.1541H15.9753C15.6828 21.1541 15.4453 20.9166 15.4453 20.6241C15.4453 20.3316 15.6828 20.0941 15.9753 20.0941H17.2153C17.3828 20.0941 17.5378 20.1716 17.6403 20.3066C17.8078 20.5266 18.1203 20.5691 18.3403 20.4041C18.5603 20.2366 18.6053 19.9241 18.4378 19.7041C18.1478 19.3216 17.6928 19.0941 17.2153 19.0941H16.9903V18.7266C16.9903 18.4516 16.7653 18.2266 16.4903 18.2266C16.2153 18.2266 15.9903 18.4516 15.9903 18.7266V19.0941H15.9753C15.1303 19.0941 14.4453 19.7816 14.4453 20.6241C14.4453 21.4666 15.1328 22.1541 15.9753 22.1541H16.3028C16.3178 22.1541 16.3303 22.1591 16.3428 22.1591H17.1578C17.4503 22.1591 17.6878 22.3966 17.6878 22.6891C17.6878 22.9816 17.4503 23.2191 17.1578 23.2191H15.9178C15.7503 23.2191 15.5953 23.1416 15.4928 23.0066C15.3253 22.7866 15.0128 22.7416 14.7928 22.9091C14.5728 23.0766 14.5278 23.3891 14.6953 23.6091C14.9828 23.9916 15.4403 24.2191 15.9178 24.2191H15.9878V24.5016C15.9878 24.7766 16.2128 25.0016 16.4878 25.0016H16.4903Z" fill="url(#paint2_linear_729_5352)"/>
<defs>
<linearGradient id="paint0_linear_729_5352" x1="4.7318" y1="10.9577" x2="22.4143" y2="10.9577" gradientUnits="userSpaceOnUse">
<stop stop-color="#E240FB"/>
<stop offset="0.3" stop-color="#B00DF1"/>
<stop offset="0.7" stop-color="#604BF6"/>
<stop offset="1" stop-color="#22C2FC"/>
</linearGradient>
<linearGradient id="paint1_linear_729_5352" x1="4.73185" y1="16.4653" x2="22.4143" y2="16.4653" gradientUnits="userSpaceOnUse">
<stop stop-color="#E240FB"/>
<stop offset="0.3" stop-color="#B00DF1"/>
<stop offset="0.7" stop-color="#604BF6"/>
<stop offset="1" stop-color="#22C2FC"/>
</linearGradient>
<linearGradient id="paint2_linear_729_5352" x1="0.00030975" y1="21.6141" x2="22.4153" y2="21.6141" gradientUnits="userSpaceOnUse">
<stop stop-color="#E240FB"/>
<stop offset="0.3" stop-color="#B00DF1"/>
<stop offset="0.7" stop-color="#604BF6"/>
<stop offset="1" stop-color="#22C2FC"/>
</linearGradient>
</defs>
</svg>
